<svg width="661" height="127" viewBox="0 0 661 127" fill="none" xmlns="http://www.w3.org/2000/svg">
<g style="mix-blend-mode:color-dodge">
<path fill-rule="evenodd" clip-rule="evenodd" d="M46.3407 3H74.8544L117.714 118H86.6831L78.4475 93.6687H41.8005L33.2599 118H3L46.3407 3ZM39.7759 90.7994H80.4964L88.732 115.131H113.591L72.8708 5.86926H48.3165L7.13856 115.131H31.2353L39.7759 90.7994ZM46.0289 72.8952H74.2434L60.5174 32.8021H60.2124L46.0289 72.8952ZM50.0783 70.0259H70.2375L60.3232 41.0664L50.0783 70.0259ZM120.122 3H149.785V92.0619H202.859V118H120.122V3ZM199.999 94.9311V115.131H122.981V5.86926H146.926V94.9311H199.999ZM210.526 3H240.19V92.0619H293.264V118H210.526V3ZM290.404 94.9311V115.131H213.386V5.86926H237.33V94.9311H290.404ZM402.056 28.6703C398.091 26.936 393.16 26.0689 387.263 26.0689H370.181V94.9311H391.533C394.99 94.9311 398.345 94.37 401.599 93.2478C404.852 92.1256 407.75 90.2893 410.292 87.7389C412.834 85.0864 414.867 81.6688 416.392 77.486C417.917 73.3033 418.68 68.2024 418.68 62.1833C418.68 56.6743 418.121 51.7264 417.002 47.3397C415.986 42.8509 414.257 39.0252 411.817 35.8626C409.377 32.7 406.123 30.3026 402.056 28.6703ZM408.25 85.7295C410.457 83.4205 412.294 80.3743 413.707 76.5002C415.084 72.7227 415.82 67.9766 415.82 62.1833C415.82 56.8644 415.28 52.1615 414.232 48.0508L414.222 48.0133L414.214 47.9755C413.276 43.833 411.705 40.4047 409.556 37.6191C407.458 34.9001 404.636 32.7961 400.994 31.3344L400.954 31.3181L400.914 31.3006C397.414 29.7701 392.901 28.9381 387.263 28.9381H373.041V92.0619H391.533C394.675 92.0619 397.716 91.5529 400.669 90.5344C403.485 89.5633 406.007 87.9752 408.25 85.7295ZM343.378 3H393.211C400.532 3 407.378 4.17159 413.724 6.54467C420.2 8.9285 425.797 12.5193 430.474 17.3182C435.27 22.1336 438.93 28.1077 441.493 35.1711C444.18 42.2972 445.484 50.5561 445.484 59.8879C445.484 68.0909 444.436 75.7202 442.311 82.7559C440.175 89.8266 436.899 95.9965 432.457 101.219C428.099 106.462 422.615 110.588 416.06 113.607L416.05 113.611L416.041 113.616C409.492 116.572 401.856 118 393.211 118H343.378V3ZM430.271 99.3689C434.439 94.472 437.54 88.657 439.574 81.9238C441.607 75.1906 442.624 67.8453 442.624 59.8879C442.624 50.8083 441.353 42.9019 438.811 36.1687C436.371 29.4355 432.914 23.8245 428.441 19.3357C424.069 14.8469 418.833 11.4803 412.732 9.23586C406.733 6.99146 400.226 5.86926 393.211 5.86926H346.237V115.131H393.211C401.548 115.131 408.767 113.753 414.867 110.999C421.069 108.142 426.204 104.266 430.271 99.3689ZM487.044 3H515.558L558.417 118H527.386L519.151 93.6687H482.504L473.963 118H443.703L487.044 3ZM480.479 90.7994H521.2L529.435 115.131H554.294L513.574 5.86926H489.02L447.842 115.131H471.939L480.479 90.7994ZM486.732 72.8952H514.947L501.221 32.8021H500.916L486.732 72.8952ZM490.781 70.0259H510.941L501.026 41.0664L490.781 70.0259ZM604.524 73.2013V115.131H580.58V72.5891L540.622 5.86926H567.464L592.933 49.023L618.25 5.86926H644.94L604.524 73.2013ZM592.926 43.3794L569.094 3H535.567L577.72 73.385V118H607.384V73.9986L650 3H616.615L592.926 43.3794Z" fill="#0036D7"/>
</g>
<g filter="url(#filter0_d)">
<g style="mix-blend-mode:hard-light" filter="url(#filter1_f)">
<path fill-rule="evenodd" clip-rule="evenodd" d="M47.5983 5H74.7355L116.86 118H87.98L79.7416 93.6668H41.6559L33.1124 118H5L47.5983 5ZM40.3395 91.8017H81.0738L89.3122 116.135H114.18L73.4456 6.86516H48.883L7.69098 116.135H31.7959L40.3395 91.8017ZM46.5946 73.8961H74.8187L61.088 33.8H60.7829L46.5946 73.8961ZM49.2276 72.031H72.214L60.9092 39.0188L49.2276 72.031ZM121.714 5H149.385V94.0686H202.477V118H121.714V5ZM200.618 95.9337V116.135H123.573V6.86516H147.526V95.9337H200.618ZM212.149 5H239.82V94.0686H292.912V118H212.149V5ZM291.053 95.9337V116.135H214.009V6.86516H237.961V95.9337H291.053ZM402.743 29.6679C398.777 27.9335 393.844 27.0663 387.945 27.0663H370.858V95.9337H392.217C395.675 95.9337 399.031 95.3726 402.286 94.2503C405.54 93.128 408.439 91.2916 410.982 88.7409C413.525 86.0882 415.559 82.6704 417.084 78.4873C418.61 74.3042 419.373 69.203 419.373 63.1834C419.373 57.674 418.813 52.7258 417.695 48.3387C416.678 43.8495 414.948 40.0236 412.507 36.8608C410.066 33.698 406.812 31.3004 402.743 29.6679ZM409.654 87.4349C411.979 85.0056 413.886 81.8292 415.338 77.8465C416.768 73.9268 417.513 69.0562 417.513 63.1834C417.513 57.7976 416.966 53.0086 415.893 48.8009L415.887 48.7766L415.882 48.752C414.915 44.488 413.289 40.9203 411.037 38.0026C408.819 35.1281 405.845 32.9212 402.053 31.3997L402.026 31.3891L402 31.3777C398.337 29.7758 393.676 28.9314 387.945 28.9314H372.717V94.0686H392.217C395.47 94.0686 398.622 93.5413 401.681 92.4864C404.651 91.4624 407.305 89.7874 409.654 87.4349ZM345.046 5H393.895C401.111 5 407.842 6.15441 414.068 8.48268C420.415 10.8179 425.887 14.3303 430.459 19.0208C435.143 23.7222 438.734 29.5694 441.254 36.5175C443.892 43.5068 445.185 51.6433 445.185 60.8878C445.185 69.0055 444.147 76.536 442.053 83.4663C439.953 90.42 436.736 96.4665 432.388 101.575C428.13 106.698 422.768 110.736 416.334 113.698L416.328 113.701L416.322 113.704C409.928 116.59 402.435 118 393.895 118H345.046V5ZM439.511 37.1668C437.07 30.4331 433.612 24.8217 429.137 20.3326C424.763 15.8434 419.525 12.4766 413.423 10.232C407.422 7.98744 400.913 6.86516 393.895 6.86516H346.905V116.135H393.895C402.235 116.135 409.456 114.757 415.559 112.003C421.763 109.146 426.899 105.269 430.968 100.372C435.138 95.4746 438.24 89.6591 440.274 82.9254C442.308 76.1917 443.325 68.8459 443.325 60.8878C443.325 51.8075 442.054 43.9005 439.511 37.1668ZM488.452 5H515.589L557.714 118H528.834L520.595 93.6668H482.509L473.966 118H445.854L488.452 5ZM481.193 91.8017H521.927L530.166 116.135H555.034L514.299 6.86516H489.737L448.545 116.135H472.65L481.193 91.8017ZM487.448 73.8961H515.672L501.942 33.8H501.636L487.448 73.8961ZM490.081 72.031H513.068L501.763 39.0188L490.081 72.031ZM605.28 74.2022V116.135H581.328V73.5901L541.356 6.86516H568.208L593.686 50.0221L619.011 6.86516H645.71L605.28 74.2022ZM593.681 46.3536L569.267 5H538.07L579.469 74.1074V118H607.14V74.7205L649 5H617.948L593.681 46.3536Z" fill="#0094FF"/>
</g>
<g style="mix-blend-mode:hard-light" filter="url(#filter2_f)">
<path fill-rule="evenodd" clip-rule="evenodd" d="M47.0416 5H74.9779L117.541 119H87.4187L79.1783 94.6983H41.8983L33.3527 119H4L47.0416 5ZM40.1764 92.2624H80.9208L89.1613 116.564H114.035L73.2908 7.4359H48.722L7.51985 116.564H31.6308L40.1764 92.2624ZM46.433 74.3801H74.6642L60.9301 34.3358H60.6249L46.433 74.3801ZM49.8771 71.9442H71.2572L60.7424 41.2863L49.8771 71.9442ZM120.999 5H149.821V93.9532H202.926V119H120.999V5ZM200.494 96.3891V116.564H123.431V7.4359H147.389V96.3891H200.494ZM211.456 5H240.279V93.9532H293.384V119H211.456V5ZM290.952 96.3891V116.564H213.889V7.4359H237.847V96.3891H290.952ZM402.67 30.2092C398.702 28.477 393.768 27.6109 387.868 27.6109H370.776V96.3891H392.14C395.599 96.3891 398.957 95.8287 402.212 94.7079C405.468 93.5871 408.367 91.753 410.91 89.2056C413.454 86.5564 415.488 83.1429 417.014 78.9653C418.54 74.7877 419.303 69.693 419.303 63.6812C419.303 58.179 418.744 53.2371 417.625 48.8557C416.607 44.3724 414.878 40.5514 412.436 37.3927C409.995 34.234 406.739 31.8395 402.67 30.2092ZM409.174 87.5001C411.432 85.1424 413.3 82.0443 414.73 78.1284C416.131 74.2947 416.871 69.5013 416.871 63.6812C416.871 58.3404 416.328 53.6065 415.269 49.4594L415.26 49.4276L415.253 49.3956C414.303 45.2062 412.708 41.7226 410.513 38.8839C408.363 36.1017 405.475 33.9563 401.767 32.4708L401.732 32.457L401.698 32.4421C398.127 30.883 393.548 30.0468 387.868 30.0468H373.208V93.9532H392.14C395.332 93.9532 398.422 93.4371 401.421 92.4043C404.304 91.4118 406.884 89.7886 409.174 87.5001ZM344.386 5H393.819C401.098 5 407.897 6.16262 414.194 8.51325C420.619 10.8733 426.165 14.4262 430.799 19.1732C435.549 23.9336 439.181 29.8455 441.727 36.8503C444.394 43.9091 445.694 52.1056 445.694 61.3886C445.694 69.5449 444.65 77.1223 442.537 84.1041C440.416 91.1158 437.164 97.2252 432.76 102.392C428.443 107.577 423.009 111.66 416.503 114.651L416.495 114.655L416.486 114.659C410.001 117.582 402.423 119 393.819 119H344.386V5ZM430.901 100.822C435.072 95.9306 438.175 90.1227 440.21 83.3977C442.244 76.6727 443.262 69.3363 443.262 61.3886C443.262 52.3201 441.99 44.4233 439.447 37.6983C437.005 30.9734 433.546 25.3692 429.07 20.8859C424.695 16.4026 419.456 13.0401 413.352 10.7984C407.35 8.55673 400.839 7.4359 393.819 7.4359H346.818V116.564H393.819C402.161 116.564 409.384 115.189 415.488 112.437C421.694 109.584 426.832 105.712 430.901 100.822ZM488.004 5H515.94L558.504 119H528.381L520.141 94.6983H482.861L474.315 119H444.962L488.004 5ZM481.139 92.2624H521.883L530.124 116.564H554.998L514.253 7.4359H489.685L448.482 116.564H472.593L481.139 92.2624ZM487.396 74.3801H515.627L501.893 34.3358H501.587L487.396 74.3801ZM490.84 71.9442H512.22L501.705 41.2864L490.84 71.9442ZM605.257 74.6858V116.564H581.299V74.0744L541.317 7.4359H568.175L593.659 50.537L618.991 7.4359H645.696L605.257 74.6858ZM593.653 45.7458L569.561 5H537.018L578.867 74.75V119H607.689V75.3626L650 5H617.601L593.653 45.7458Z" fill="#0094FF"/>
</g>
<g style="mix-blend-mode:hard-light" filter="url(#filter3_ddi)">
<path fill-rule="evenodd" clip-rule="evenodd" d="M47.5983 5H74.7355L116.86 118H87.98L79.7416 93.6668H41.6559L33.1124 118H5L47.5983 5ZM40.3395 91.8017H81.0738L89.3122 116.135H114.18L73.4456 6.86516H48.883L7.69098 116.135H31.7959L40.3395 91.8017ZM46.5946 73.8961H74.8187L61.088 33.8H60.7829L46.5946 73.8961ZM49.2276 72.031H72.214L60.9092 39.0188L49.2276 72.031ZM121.714 5H149.385V94.0686H202.477V118H121.714V5ZM200.618 95.9337V116.135H123.573V6.86516H147.526V95.9337H200.618ZM212.149 5H239.82V94.0686H292.912V118H212.149V5ZM291.053 95.9337V116.135H214.009V6.86516H237.961V95.9337H291.053ZM402.743 29.6679C398.777 27.9335 393.844 27.0663 387.945 27.0663H370.858V95.9337H392.217C395.675 95.9337 399.031 95.3726 402.286 94.2503C405.54 93.128 408.439 91.2916 410.982 88.7409C413.525 86.0882 415.559 82.6704 417.084 78.4873C418.61 74.3042 419.373 69.203 419.373 63.1834C419.373 57.674 418.813 52.7258 417.695 48.3387C416.678 43.8495 414.948 40.0236 412.507 36.8608C410.066 33.698 406.812 31.3004 402.743 29.6679ZM409.654 87.4349C411.979 85.0056 413.886 81.8292 415.338 77.8465C416.768 73.9268 417.513 69.0562 417.513 63.1834C417.513 57.7976 416.966 53.0086 415.893 48.8009L415.887 48.7766L415.882 48.752C414.915 44.488 413.289 40.9203 411.037 38.0026C408.819 35.1281 405.845 32.9212 402.053 31.3997L402.026 31.3891L402 31.3777C398.337 29.7758 393.676 28.9314 387.945 28.9314H372.717V94.0686H392.217C395.47 94.0686 398.622 93.5413 401.681 92.4864C404.651 91.4624 407.305 89.7874 409.654 87.4349ZM345.046 5H393.895C401.111 5 407.842 6.15441 414.068 8.48268C420.415 10.8179 425.887 14.3303 430.459 19.0208C435.143 23.7222 438.734 29.5694 441.254 36.5175C443.892 43.5068 445.185 51.6433 445.185 60.8878C445.185 69.0055 444.147 76.536 442.053 83.4663C439.953 90.42 436.736 96.4665 432.388 101.575C428.13 106.698 422.768 110.736 416.334 113.698L416.328 113.701L416.322 113.704C409.928 116.59 402.435 118 393.895 118H345.046V5ZM439.511 37.1668C437.07 30.4331 433.612 24.8217 429.137 20.3326C424.763 15.8434 419.525 12.4766 413.423 10.232C407.422 7.98744 400.913 6.86516 393.895 6.86516H346.905V116.135H393.895C402.235 116.135 409.456 114.757 415.559 112.003C421.763 109.146 426.899 105.269 430.968 100.372C435.138 95.4746 438.24 89.6591 440.274 82.9254C442.308 76.1917 443.325 68.8459 443.325 60.8878C443.325 51.8075 442.054 43.9005 439.511 37.1668ZM488.452 5H515.589L557.714 118H528.834L520.595 93.6668H482.509L473.966 118H445.854L488.452 5ZM481.193 91.8017H521.927L530.166 116.135H555.034L514.299 6.86516H489.737L448.545 116.135H472.65L481.193 91.8017ZM487.448 73.8961H515.672L501.942 33.8H501.636L487.448 73.8961ZM490.081 72.031H513.068L501.763 39.0188L490.081 72.031ZM605.28 74.2022V116.135H581.328V73.5901L541.356 6.86516H568.208L593.686 50.0221L619.011 6.86516H645.71L605.28 74.2022ZM593.681 46.3536L569.267 5H538.07L579.469 74.1074V118H607.14V74.7205L649 5H617.948L593.681 46.3536Z" fill="#00B3FF" fill-opacity="0.2"/>
</g>
<g style="mix-blend-mode:color-dodge" filter="url(#filter4_f)">
<path fill-rule="evenodd" clip-rule="evenodd" d="M48.0771 6H74.2363L115.846 117H88.496L80.2538 92.7901H41.131L32.5835 117H6L48.0771 6ZM40.3205 91.6481H81.074L89.3162 115.858H114.196L73.4422 7.14198H48.8681L7.65677 115.858H31.773L40.3205 91.6481ZM46.5786 73.8333H74.8159L61.0788 33.9403H60.7736L46.5786 73.8333ZM48.1996 72.6914H73.2123L60.911 36.968L48.1996 72.6914ZM122.449 6H148.702V94.6173H201.819V117H122.449V6ZM200.674 95.7593V115.858H123.593V7.14198H147.557V95.7593H200.674ZM212.926 6H239.179V94.6173H292.296V117H212.926V6ZM291.151 95.7593V115.858H214.071V7.14198H238.035V95.7593H291.151ZM402.894 29.8292C398.926 28.1036 393.991 27.2407 388.089 27.2407H370.994V95.7593H392.362C395.822 95.7593 399.18 95.201 402.436 94.0844C405.693 92.9678 408.593 91.1406 411.136 88.6029C413.68 85.9636 415.716 82.5631 417.242 78.4012C418.768 74.2394 419.531 69.1639 419.531 63.1749C419.531 57.6934 418.972 52.7702 417.852 48.4053C416.835 43.939 415.105 40.1324 412.663 36.9856C410.221 33.8388 406.964 31.4534 402.894 29.8292ZM410.319 87.8034C412.729 85.3009 414.685 82.0482 416.167 78.0089C417.634 74.0083 418.387 69.0741 418.387 63.1749C418.387 57.7691 417.835 52.9434 416.743 48.6884L416.74 48.6735L416.736 48.6584C415.75 44.3299 414.083 40.6814 411.758 37.6847C409.453 34.7145 406.369 32.4458 402.469 30.8895L402.453 30.883L402.437 30.8761C398.655 29.2315 393.887 28.3827 388.089 28.3827H372.138V94.6173H392.362C395.696 94.6173 398.928 94.0797 402.064 93.0044C405.145 91.948 407.895 90.2197 410.319 87.8034ZM345.885 6H394.041C401.185 6 407.833 7.13624 413.976 9.42077C420.232 11.7095 425.617 15.1486 430.114 19.7386C434.72 24.3349 438.261 30.0619 440.752 36.8923C443.354 43.7485 444.64 51.756 444.64 60.8909C444.64 68.9064 443.61 76.3281 441.538 83.1481C439.462 89.9823 436.288 95.9098 432.006 100.912C427.819 105.922 422.541 109.878 416.193 112.785L416.185 112.788C409.901 115.61 402.509 117 394.041 117H345.885V6ZM439.679 37.2901C437.237 30.5905 433.777 25.0075 429.3 20.5412C424.924 16.0748 419.684 12.725 413.579 10.4918C407.575 8.25857 401.063 7.14198 394.041 7.14198H347.03V115.858H394.041C402.385 115.858 409.61 114.488 415.716 111.747C421.923 108.905 427.061 105.047 431.132 100.175C435.304 95.3025 438.407 89.5165 440.442 82.8169C442.477 76.1173 443.495 68.8086 443.495 60.8909C443.495 51.8567 442.223 43.9897 439.679 37.2901ZM489.137 6H515.296L556.906 117H529.556L521.314 92.7901H482.191L473.644 117H447.06L489.137 6ZM481.381 91.6481H522.134L530.376 115.858H555.256L514.502 7.14198H489.928L448.717 115.858H472.833L481.381 91.6481ZM487.639 73.8333H515.876L502.139 33.9403H501.834L487.639 73.8333ZM489.26 72.6914H514.272L501.971 36.968L489.26 72.6914ZM605.526 74.1379V115.858H581.562V73.5288L541.572 7.14198H568.436L593.926 50.0802L619.263 7.14198H645.974L605.526 74.1379ZM593.923 47.8341L569.088 6H539.549L580.418 73.8455V117H606.671V74.4552L648 6H618.609L593.923 47.8341Z" fill="#82D9FF"/>
</g>
<g style="mix-blend-mode:color-dodge" filter="url(#filter5_f)">
<path fill-rule="evenodd" clip-rule="evenodd" d="M45.6339 7H70.9943L112.166 117H86.0574L77.8172 92.7588H37.889L29.3436 117H4L45.6339 7ZM37.4839 92.1871H78.2272L86.4674 116.428H111.341L70.5973 7.57173H46.0293L4.82818 116.428H28.9384L37.4839 92.1871ZM43.7403 74.3493H71.9707L58.237 34.4047H57.9318L43.7403 74.3493ZM44.5507 73.7775H71.1691L58.078 35.7022L44.5507 73.7775ZM120.164 7H145.266V95.7318H198.37V117H120.164V7ZM197.797 96.3035V116.428H120.736V7.57173H144.694V96.3035H197.797ZM210.619 7H235.721V95.7318H288.825V117H210.619V7ZM288.253 96.3035V116.428H211.191V7.57173H235.149V96.3035H288.253ZM399.968 30.2883C396 28.5604 391.066 27.6965 385.166 27.6965H368.075V96.3035H389.438C392.897 96.3035 396.254 95.7445 399.51 94.6265C402.765 93.5084 405.665 91.6789 408.208 89.1379C410.751 86.4953 412.786 83.0903 414.312 78.9231C415.838 74.7558 416.601 69.6738 416.601 63.6771C416.601 58.1885 416.041 53.2589 414.922 48.8884C413.905 44.4163 412.175 40.6048 409.734 37.4539C407.292 34.3031 404.037 31.9145 399.968 30.2883ZM407.799 88.7374C410.275 86.1633 412.271 82.8324 413.774 78.7266C415.271 74.6401 416.028 69.6288 416.028 63.6771C416.028 58.2264 415.473 53.3456 414.368 49.0301L414.366 49.0226L414.364 49.0151C413.362 44.612 411.665 40.8796 409.281 37.8039C406.908 34.7415 403.739 32.4114 399.755 30.8191L399.747 30.8159L399.739 30.8124C395.865 29.1251 391.014 28.2682 385.166 28.2682H368.647V95.7318H389.438C392.834 95.7318 396.129 95.1832 399.324 94.0858C402.492 92.9979 405.316 91.2177 407.799 88.7374ZM343.545 7H391.117C398.198 7 404.777 8.12791 410.848 10.3898C417.027 12.6535 422.337 16.0518 426.773 20.5852C431.314 25.1226 434.814 30.7853 437.28 37.5596C439.852 44.3462 441.131 52.2938 441.131 61.3902C441.131 69.367 440.107 76.7417 438.054 83.5102C435.999 90.2857 432.861 96.1499 428.635 101.093C424.508 106.041 419.301 109.953 413.024 112.831L413.021 112.833C406.827 115.618 399.521 117 391.117 117H343.545V7ZM436.743 37.7588C434.302 31.0506 430.843 25.4604 426.367 20.9882C421.992 16.5161 416.753 13.1619 410.649 10.9259C404.647 8.68977 398.136 7.57173 391.117 7.57173H344.117V116.428H391.117C399.459 116.428 406.682 115.056 412.786 112.312C418.991 109.466 424.129 105.604 428.198 100.725C432.369 95.8461 435.472 90.0527 437.506 83.3444C439.541 76.6362 440.558 69.3181 440.558 61.3902C440.558 52.3442 439.287 44.4671 436.743 37.7588ZM486.585 7H511.945L553.116 117H527.008L518.768 92.7588H478.84L470.294 117H444.951L486.585 7ZM478.435 92.1871H519.178L527.418 116.428H552.291L511.548 7.57173H486.98L445.779 116.428H469.889L478.435 92.1871ZM484.691 74.3493H512.921L499.188 34.4047H498.882L484.691 74.3493ZM485.501 73.7775H512.12L499.029 35.7023L485.501 73.7775ZM602.549 74.6542V116.428H578.592V74.0443L538.611 7.57173H565.468L590.952 50.5655L616.283 7.57173H642.987L602.549 74.6542ZM590.95 49.441L565.794 7H537.6L578.019 74.2028V117H603.121V74.8131L644 7H615.956L590.95 49.441Z" fill="white"/>
</g>
<g style="mix-blend-mode:color-dodge" filter="url(#filter6_f)">
<path fill-rule="evenodd" clip-rule="evenodd" d="M58.6339 7H83.9943L125.166 117H99.0574L90.8172 92.7588H50.889L42.3436 117H17L58.6339 7ZM50.4839 92.1871H91.2272L99.4674 116.428H124.341L83.5973 7.57173H59.0293L17.8282 116.428H41.9384L50.4839 92.1871ZM56.7403 74.3493H84.9707L71.237 34.4047H70.9318L56.7403 74.3493ZM57.5507 73.7775H84.1691L71.078 35.7022L57.5507 73.7775ZM133.164 7H158.266V95.7318H211.37V117H133.164V7ZM210.797 96.3035V116.428H133.736V7.57173H157.694V96.3035H210.797ZM223.619 7H248.721V95.7318H301.825V117H223.619V7ZM301.253 96.3035V116.428H224.191V7.57173H248.149V96.3035H301.253ZM412.968 30.2883C409 28.5604 404.066 27.6965 398.166 27.6965H381.075V96.3035H402.438C405.897 96.3035 409.254 95.7445 412.51 94.6265C415.765 93.5084 418.665 91.6789 421.208 89.1379C423.751 86.4953 425.786 83.0903 427.312 78.9231C428.838 74.7558 429.601 69.6738 429.601 63.6771C429.601 58.1885 429.041 53.2589 427.922 48.8884C426.905 44.4163 425.175 40.6048 422.734 37.4539C420.292 34.3031 417.037 31.9145 412.968 30.2883ZM420.799 88.7374C423.275 86.1633 425.271 82.8324 426.774 78.7266C428.271 74.6401 429.028 69.6288 429.028 63.6771C429.028 58.2264 428.473 53.3456 427.368 49.0301L427.366 49.0226L427.364 49.0151C426.362 44.612 424.665 40.8796 422.281 37.8039C419.908 34.7415 416.739 32.4114 412.755 30.8191L412.747 30.8159L412.739 30.8124C408.865 29.1251 404.014 28.2682 398.166 28.2682H381.647V95.7318H402.438C405.834 95.7318 409.129 95.1832 412.324 94.0858C415.492 92.9979 418.316 91.2177 420.799 88.7374ZM356.545 7H404.117C411.198 7 417.777 8.12791 423.848 10.3898C430.027 12.6535 435.337 16.0518 439.773 20.5852C444.314 25.1226 447.814 30.7853 450.28 37.5596C452.852 44.3462 454.131 52.2938 454.131 61.3902C454.131 69.367 453.107 76.7417 451.054 83.5102C448.999 90.2857 445.861 96.1499 441.635 101.093C437.508 106.041 432.301 109.953 426.024 112.831L426.021 112.833C419.827 115.618 412.521 117 404.117 117H356.545V7ZM449.743 37.7588C447.302 31.0506 443.843 25.4604 439.367 20.9882C434.992 16.5161 429.753 13.1619 423.649 10.9259C417.647 8.68977 411.136 7.57173 404.117 7.57173H357.117V116.428H404.117C412.459 116.428 419.682 115.056 425.786 112.312C431.991 109.466 437.129 105.604 441.198 100.725C445.369 95.8461 448.472 90.0527 450.506 83.3444C452.541 76.6362 453.558 69.3181 453.558 61.3902C453.558 52.3442 452.287 44.4671 449.743 37.7588ZM499.585 7H524.945L566.116 117H540.008L531.768 92.7588H491.84L483.294 117H457.951L499.585 7ZM491.435 92.1871H532.178L540.418 116.428H565.291L524.548 7.57173H499.98L458.779 116.428H482.889L491.435 92.1871ZM497.691 74.3493H525.921L512.188 34.4047H511.882L497.691 74.3493ZM498.501 73.7775H525.12L512.029 35.7023L498.501 73.7775ZM615.549 74.6542V116.428H591.592V74.0443L551.611 7.57173H578.468L603.952 50.5655L629.283 7.57173H655.987L615.549 74.6542ZM603.95 49.441L578.794 7H550.6L591.019 74.2028V117H616.121V74.8131L657 7H628.956L603.95 49.441Z" fill="white"/>
</g>
</g>
<defs>
<filter id="filter0_d" x="0" y="5" width="661" height="122" filterUnits="userSpaceOnUse" color-interpolation-filters="sRGB">
<feFlood flood-opacity="0" result="BackgroundImageFix"/>
<feColorMatrix in="SourceAlpha" type="matrix" values="0 0 0 0 0 0 0 0 0 0 0 0 0 0 0 0 0 0 127 0"/>
<feOffset dy="4"/>
<feGaussianBlur stdDeviation="2"/>
<feColorMatrix type="matrix" values="0 0 0 0 0 0 0 0 0 0 0 0 0 0 0 0 0 0 0.25 0"/>
<feBlend mode="normal" in2="BackgroundImageFix" result="effect1_dropShadow"/>
<feBlend mode="normal" in="SourceGraphic" in2="effect1_dropShadow" result="shape"/>
</filter>
<filter id="filter1_f" x="0.455" y="0.455" width="653.09" height="122.09" filterUnits="userSpaceOnUse" color-interpolation-filters="sRGB">
<feFlood flood-opacity="0" result="BackgroundImageFix"/>
<feBlend mode="normal" in="SourceGraphic" in2="BackgroundImageFix" result="shape"/>
<feGaussianBlur stdDeviation="2.2725" result="effect1_foregroundBlur"/>
</filter>
<filter id="filter2_f" x="2.485" y="3.485" width="649.03" height="117.03" filterUnits="userSpaceOnUse" color-interpolation-filters="sRGB">
<feFlood flood-opacity="0" result="BackgroundImageFix"/>
<feBlend mode="normal" in="SourceGraphic" in2="BackgroundImageFix" result="shape"/>
<feGaussianBlur stdDeviation="0.7575" result="effect1_foregroundBlur"/>
</filter>
<filter id="filter3_ddi" x="3.0305" y="4.5455" width="647.939" height="116.939" filterUnits="userSpaceOnUse" color-interpolation-filters="sRGB">
<feFlood flood-opacity="0" result="BackgroundImageFix"/>
<feColorMatrix in="SourceAlpha" type="matrix" values="0 0 0 0 0 0 0 0 0 0 0 0 0 0 0 0 0 0 127 0"/>
<feOffset dy="1.95"/>
<feGaussianBlur stdDeviation="0.75"/>
<feColorMatrix type="matrix" values="0 0 0 0 0 0 0 0 0 0.051 0 0 0 0 0.082 0 0 0 0.7 0"/>
<feBlend mode="multiply" in2="BackgroundImageFix" result="effect1_dropShadow"/>
<feColorMatrix in="SourceAlpha" type="matrix" values="0 0 0 0 0 0 0 0 0 0 0 0 0 0 0 0 0 0 127 0"/>
<feOffset dy="1.515"/>
<feGaussianBlur stdDeviation="0.98475"/>
<feColorMatrix type="matrix" values="0 0 0 0 0 0 0 0 0 0.4 0 0 0 0 1 0 0 0 1 0"/>
<feBlend mode="color-dodge" in2="effect1_dropShadow" result="effect2_dropShadow"/>
<feBlend mode="normal" in="SourceGraphic" in2="effect2_dropShadow" result="shape"/>
<feColorMatrix in="SourceAlpha" type="matrix" values="0 0 0 0 0 0 0 0 0 0 0 0 0 0 0 0 0 0 127 0" result="hardAlpha"/>
<feOffset dx="-0.195" dy="0.39"/>
<feGaussianBlur stdDeviation="0.0975"/>
<feComposite in2="hardAlpha" operator="arithmetic" k2="-1" k3="1"/>
<feColorMatrix type="matrix" values="0 0 0 0 1 0 0 0 0 1 0 0 0 0 1 0 0 0 0.5 0"/>
<feBlend mode="normal" in2="shape" result="effect3_innerShadow"/>
</filter>
<filter id="filter4_f" x="5.7" y="5.7" width="642.6" height="111.6" filterUnits="userSpaceOnUse" color-interpolation-filters="sRGB">
<feFlood flood-opacity="0" result="BackgroundImageFix"/>
<feBlend mode="normal" in="SourceGraphic" in2="BackgroundImageFix" result="shape"/>
<feGaussianBlur stdDeviation="0.15" result="effect1_foregroundBlur"/>
</filter>
<filter id="filter5_f" x="3.8" y="6.8" width="640.4" height="110.4" filterUnits="userSpaceOnUse" color-interpolation-filters="sRGB">
<feFlood flood-opacity="0" result="BackgroundImageFix"/>
<feBlend mode="normal" in="SourceGraphic" in2="BackgroundImageFix" result="shape"/>
<feGaussianBlur stdDeviation="0.1" result="effect1_foregroundBlur"/>
</filter>
<filter id="filter6_f" x="16.8" y="6.8" width="640.4" height="110.4" filterUnits="userSpaceOnUse" color-interpolation-filters="sRGB">
<feFlood flood-opacity="0" result="BackgroundImageFix"/>
<feBlend mode="normal" in="SourceGraphic" in2="BackgroundImageFix" result="shape"/>
<feGaussianBlur stdDeviation="0.1" result="effect1_foregroundBlur"/>
</filter>
</defs>
</svg>
