<svg width="78" height="79" viewBox="0 0 78 79" fill="none" xmlns="http://www.w3.org/2000/svg">
<path d="M77 39.5C77 60.775 59.9748 78 39 78C18.0252 78 1 60.775 1 39.5C1 18.225 18.0252 1 39 1C59.9748 1 77 18.225 77 39.5Z" stroke="white" stroke-width="2"/>
<path d="M52 43.3527L52 40.8776C50.4816 40.9243 46.8409 41.3633 44.4252 42.7456C42.0094 44.1279 40.689 45.7187 40.3307 46.3414L40.3307 25L37.6693 25L37.6693 46.3414C37.311 45.7966 35.9701 44.3147 33.4724 42.7456C30.9748 41.1765 27.4501 40.8465 26 40.8776L26 43.3994C26.6483 43.3838 28.6512 43.6235 31.4764 44.7069C35.0079 46.0612 36.6201 49.4235 37.1575 50.6844C37.6693 51.8852 37.6181 53.175 37.6693 54L40.3307 54C40.2966 53.4085 40.5354 51.9266 40.9449 50.5443C41.4567 48.8164 43.1969 46.3414 45.8583 44.847C47.8609 43.7226 50.7546 43.2904 52 43.3527Z" fill="white" stroke="white"/>
</svg>
