<svg width="18" height="18" viewBox="0 0 18 18" fill="none" xmlns="http://www.w3.org/2000/svg">
<path d="M13.1276 0H4.87244C2.18573 0 0 2.18573 0 4.87244V13.1277C0 15.8143 2.18573 18 4.87244 18H13.1277C15.8143 18 18 15.8143 18 13.1277V4.87244C18 2.18573 15.8143 0 13.1276 0V0ZM16.9448 13.1277C16.9448 15.2324 15.2324 16.9448 13.1276 16.9448H4.87244C2.76759 16.9448 1.05524 15.2324 1.05524 13.1277V4.87244C1.05524 2.76759 2.76759 1.05524 4.87244 1.05524H13.1277C15.2324 1.05524 16.9448 2.76759 16.9448 4.87244V13.1277Z" fill="white"/>
<path d="M9 4C6.24295 4 4 6.24295 4 9C4 11.7571 6.24295 14 9 14C11.7571 14 14 11.7571 14 9C14 6.24295 11.7571 4 9 4ZM9 12.928C6.8342 12.928 5.07202 11.1659 5.07202 9C5.07202 6.8342 6.8342 5.07202 9 5.07202C11.1659 5.07202 12.928 6.8342 12.928 9C12.928 11.1659 11.1659 12.928 9 12.928Z" fill="white"/>
<path d="M14 3C13.4485 3 13 3.44861 13 3.99995C13 4.55139 13.4485 5 14 5C14.5514 5 15 4.55139 15 3.99995C15 3.44852 14.5514 3 14 3ZM14 4.27435C13.8487 4.27435 13.7256 4.15122 13.7256 3.99995C13.7256 3.84859 13.8487 3.72556 14 3.72556C14.1513 3.72556 14.2744 3.84859 14.2744 3.99995C14.2744 4.15122 14.1513 4.27435 14 4.27435Z" fill="white"/>
</svg>
