<svg width="12" height="15" viewBox="0 0 12 15" fill="none" xmlns="http://www.w3.org/2000/svg">
<path d="M6 0.00012207C3.10946 0.00012207 0.757812 2.35177 0.757812 5.24231C0.757812 6.21893 1.02834 7.17202 1.54033 7.99889L5.7016 14.7047C5.78131 14.8332 5.92175 14.9112 6.07278 14.9112C6.07394 14.9112 6.07508 14.9112 6.07624 14.9112C6.22859 14.91 6.36931 14.8296 6.44757 14.6989L10.5028 7.92806C10.9865 7.11866 11.2422 6.18995 11.2422 5.24231C11.2422 2.35177 8.89054 0.00012207 6 0.00012207ZM9.753 7.4795L6.06617 13.6352L2.28291 7.53856C1.85675 6.85032 1.62569 6.0563 1.62569 5.24231C1.62569 2.83352 3.59121 0.867995 6 0.867995C8.40878 0.867995 10.3714 2.83352 10.3714 5.24231C10.3714 6.03216 10.1556 6.80588 9.753 7.4795Z" fill="#2258FC"/>
<path d="M6 2.62122C4.55473 2.62122 3.37891 3.79704 3.37891 5.24231C3.37891 6.67835 4.53559 7.8634 6 7.8634C7.48246 7.8634 8.62109 6.66256 8.62109 5.24231C8.62109 3.79704 7.44527 2.62122 6 2.62122ZM6 6.99553C5.03145 6.99553 4.24678 6.20824 4.24678 5.24231C4.24678 4.2788 5.03649 3.48909 6 3.48909C6.96351 3.48909 7.75031 4.2788 7.75031 5.24231C7.75031 6.19415 6.9839 6.99553 6 6.99553Z" fill="#2258FC"/>
</svg>
