<svg width="20" height="20" viewBox="0 0 20 20" fill="none" xmlns="http://www.w3.org/2000/svg">
<g clip-path="url(#clip0)">
<path d="M19.486 14.7513L16.9997 12.265C16.3143 11.5796 15.1989 11.5796 14.5134 12.265L13.3833 13.3951C12.864 13.9144 12.019 13.9143 11.4999 13.3953L6.60147 8.49271C6.08096 7.9722 6.08089 7.12974 6.60147 6.60915C6.7835 6.42712 7.3062 5.90443 7.73159 5.47903C8.41405 4.79661 8.42359 3.68469 7.73093 2.99212L5.2453 0.514298C4.55983 -0.171133 3.44447 -0.171133 2.76084 0.512501C2.24928 1.01961 2.08428 1.18321 1.8549 1.41059C-0.616979 3.88243 -0.616979 7.90443 1.85478 10.3762L9.61621 18.1417C12.0939 20.6194 16.104 20.6196 18.5819 18.1417L19.486 17.2376C20.1715 16.5521 20.1715 15.4368 19.486 14.7513ZM3.5878 1.34305C3.81627 1.11457 4.18799 1.11453 4.41721 1.34367L6.90284 3.82149C7.13187 4.05052 7.13187 4.42118 6.90284 4.65024L6.48843 5.06462L3.17553 1.75172L3.5878 1.34305ZM10.4451 17.313L2.68365 9.54748C0.771227 7.63505 0.66611 4.63212 2.36037 2.59411L5.66366 5.89739C4.79569 6.88134 4.83186 8.38068 5.77253 9.32135L10.6708 14.2237C10.6709 14.2238 10.6709 14.2239 10.671 14.2239C11.6106 15.1636 13.1099 15.2021 14.095 14.333L17.3984 17.6363C15.3669 19.3277 12.3707 19.2386 10.4451 17.313ZM18.6573 16.4088L18.2429 16.8232L14.9279 13.5082L15.3422 13.0938C15.5707 12.8653 15.9425 12.8653 16.171 13.0938L18.6573 15.5801C18.8858 15.8086 18.8858 16.1804 18.6573 16.4088Z" fill="white"/>
</g>
<defs>
<clipPath id="clip0">
<rect width="20" height="20" fill="white"/>
</clipPath>
</defs>
</svg>
