<svg width="838" height="120" viewBox="0 0 838 120" fill="none" xmlns="http://www.w3.org/2000/svg">
<g style="mix-blend-mode:color-dodge" opacity="0.5">
<path d="M142.866 114.558L172.172 5.59437H148.666L130.808 80.6787H130.503L111.881 5.59437H89.4437L70.5169 79.763H70.2116L52.9638 5.59437H29L57.8482 114.558H82.1172L100.281 40.3896H100.586L119.055 114.558H142.866Z" fill="#0036D7"/>
<path d="M202.445 60.5341C202.445 55.7523 202.954 51.1232 203.972 46.6466C205.091 42.17 206.821 38.2021 209.161 34.743C211.502 31.1821 214.555 28.3842 218.32 26.3494C222.085 24.2128 226.664 23.1446 232.057 23.1446C237.45 23.1446 242.029 24.2128 245.794 26.3494C249.559 28.3842 252.612 31.1821 254.952 34.743C257.293 38.2021 258.972 42.17 259.989 46.6466C261.108 51.1232 261.668 55.7523 261.668 60.5341C261.668 65.1124 261.108 69.589 259.989 73.9639C258.972 78.237 257.293 82.1031 254.952 85.5622C252.612 89.0214 249.559 91.8193 245.794 93.9558C242.029 95.9906 237.45 97.008 232.057 97.008C226.664 97.008 222.085 95.9906 218.32 93.9558C214.555 91.8193 211.502 89.0214 209.161 85.5622C206.821 82.1031 205.091 78.237 203.972 73.9639C202.954 69.589 202.445 65.1124 202.445 60.5341ZM178.482 60.5341C178.482 68.4699 179.703 75.8969 182.145 82.8153C184.587 89.6319 188.098 95.5837 192.677 100.671C197.256 105.758 202.852 109.776 209.467 112.727C216.183 115.576 223.713 117 232.057 117C240.503 117 248.033 115.576 254.647 112.727C261.261 109.776 266.858 105.758 271.437 100.671C276.016 95.5837 279.526 89.6319 281.969 82.8153C284.411 75.8969 285.632 68.4699 285.632 60.5341C285.632 52.3949 284.411 44.8661 281.969 37.9478C279.526 30.9277 276.016 24.8233 271.437 19.6345C266.858 14.4458 261.261 10.3762 254.647 7.4257C248.033 4.47523 240.503 3 232.057 3C223.713 3 216.183 4.47523 209.467 7.4257C202.852 10.3762 197.256 14.4458 192.677 19.6345C188.098 24.8233 184.587 30.9277 182.145 37.9478C179.703 44.8661 178.482 52.3949 178.482 60.5341Z" fill="#0036D7"/>
<path d="M325.977 54.8875V24.2129H352.23C357.725 24.2129 361.846 25.4337 364.593 27.8755C367.341 30.2155 368.715 34.0308 368.715 39.3213C368.715 44.8153 367.341 48.7831 364.593 51.2249C361.846 53.6667 357.725 54.8875 352.23 54.8875H325.977ZM302.013 5.59437V114.558H325.977V71.9799H349.94C355.944 71.9799 360.269 73.3025 362.914 75.9478C365.56 78.593 367.29 82.7644 368.104 88.4618C368.715 92.8367 369.173 97.415 369.478 102.197C369.783 106.979 370.597 111.099 371.92 114.558H395.884C394.764 113.032 393.9 111.201 393.289 109.064C392.78 106.826 392.373 104.486 392.068 102.044C391.864 99.6024 391.712 97.2115 391.61 94.8715C391.508 92.5315 391.406 90.4966 391.305 88.7671C391.101 86.0201 390.694 83.2731 390.084 80.5261C389.575 77.7791 388.71 75.2865 387.489 73.0482C386.268 70.7082 384.69 68.7242 382.757 67.0964C380.824 65.3668 378.382 64.095 375.431 63.2811V62.9759C381.536 60.5341 385.912 56.9732 388.557 52.2932C391.305 47.6131 392.678 42.0683 392.678 35.6586C392.678 31.4873 391.915 27.6211 390.389 24.0602C388.964 20.3976 386.827 17.1928 383.978 14.4458C381.231 11.6988 377.873 9.56225 373.904 8.03614C370.037 6.4083 365.662 5.59437 360.778 5.59437H302.013Z" fill="#0036D7"/>
<path d="M412.167 5.59437V114.558H436.131V79.4578L449.868 65.5703L482.685 114.558H512.754L466.047 48.6305L508.633 5.59437H478.716L436.131 50.7671V5.59437H412.167Z" fill="#0036D7"/>
<path d="M541.553 60.5341C541.553 55.7523 542.062 51.1232 543.079 46.6466C544.199 42.17 545.929 38.2021 548.269 34.743C550.609 31.1821 553.662 28.3842 557.427 26.3494C561.192 24.2128 565.771 23.1446 571.164 23.1446C576.558 23.1446 581.137 24.2128 584.902 26.3494C588.667 28.3842 591.719 31.1821 594.06 34.743C596.4 38.2021 598.079 42.17 599.097 46.6466C600.216 51.1232 600.776 55.7523 600.776 60.5341C600.776 65.1124 600.216 69.589 599.097 73.9639C598.079 78.237 596.4 82.1031 594.06 85.5622C591.719 89.0214 588.667 91.8193 584.902 93.9558C581.137 95.9906 576.558 97.008 571.164 97.008C565.771 97.008 561.192 95.9906 557.427 93.9558C553.662 91.8193 550.609 89.0214 548.269 85.5622C545.929 82.1031 544.199 78.237 543.079 73.9639C542.062 69.589 541.553 65.1124 541.553 60.5341ZM517.589 60.5341C517.589 68.4699 518.81 75.8969 521.253 82.8153C523.695 89.6319 527.205 95.5837 531.784 100.671C536.364 105.758 541.96 109.776 548.574 112.727C555.29 115.576 562.82 117 571.164 117C579.61 117 587.14 115.576 593.755 112.727C600.369 109.776 605.965 105.758 610.544 100.671C615.124 95.5837 618.634 89.6319 621.076 82.8153C623.518 75.8969 624.74 68.4699 624.74 60.5341C624.74 52.3949 623.518 44.8661 621.076 37.9478C618.634 30.9277 615.124 24.8233 610.544 19.6345C605.965 14.4458 600.369 10.3762 593.755 7.4257C587.14 4.47523 579.61 3 571.164 3C562.82 3 555.29 4.47523 548.574 7.4257C541.96 10.3762 536.364 14.4458 531.784 19.6345C527.205 24.8233 523.695 30.9277 521.253 37.9478C518.81 44.8661 517.589 52.3949 517.589 60.5341Z" fill="#0036D7"/>
<path d="M733.618 73.3534V5.59437H709.654V73.3534C709.654 81.4926 708.026 87.4953 704.77 91.3614C701.513 95.1258 695.611 97.008 687.064 97.008C682.18 97.008 678.262 96.3467 675.311 95.0241C672.462 93.5997 670.223 91.8193 668.595 89.6827C666.967 87.4444 665.898 84.9009 665.39 82.0522C664.881 79.2035 664.626 76.3039 664.626 73.3534V5.59437H640.663V73.3534C640.663 88.2075 644.682 99.1954 652.721 106.317C660.861 113.439 672.309 117 687.064 117C701.615 117 713.012 113.439 721.254 106.317C729.497 99.0937 733.618 88.1058 733.618 73.3534Z" fill="#0036D7"/>
<path d="M778.372 25.739V114.558H802.336V25.739H835V5.59437H745.708V25.739H778.372Z" fill="#0036D7"/>
</g>
<g style="mix-blend-mode:color-dodge" opacity="0.5">
<path fill-rule="evenodd" clip-rule="evenodd" d="M144.84 117.553H116.584L100.212 51.6892L84.1115 117.553H55.379L25 2.60038H54.9702L70.2277 68.3281L86.9704 2.60038H113.884L130.373 69.2046L146.186 2.60038H175.701L144.84 117.553ZM148.448 5.46845H171.966L142.645 114.685H118.822L100.343 40.3442H100.038L81.8647 114.685H57.583L28.72 5.46845H52.6962L69.9529 79.8088H70.2584L89.195 5.46845H111.644L130.275 80.7266H130.581L148.448 5.46845ZM208.975 34.6845C206.633 38.1517 204.902 42.1287 203.782 46.6157C202.764 51.1026 202.255 55.7425 202.255 60.5354C202.255 65.1243 202.764 69.6112 203.782 73.9962C204.902 78.2792 206.633 82.1542 208.975 85.6214C211.316 89.0886 214.37 91.8929 218.137 94.0344C221.904 96.0739 226.486 97.0937 231.882 97.0937C237.278 97.0937 241.859 96.0739 245.626 94.0344C249.393 91.8929 252.447 89.0886 254.789 85.6214C257.131 82.1542 258.81 78.2792 259.828 73.9962C260.948 69.6112 261.508 65.1243 261.508 60.5354C261.508 55.7425 260.948 51.1026 259.828 46.6157C258.81 42.1287 257.131 38.1517 254.789 34.6845C252.447 31.1154 249.393 28.311 245.626 26.2715C241.859 24.13 237.278 23.0593 231.882 23.0593C226.486 23.0593 221.904 24.13 218.137 26.2715C214.37 28.311 211.316 31.1154 208.975 34.6845ZM244.239 91.5253C247.625 89.5956 250.337 87.0945 252.417 84.0144C254.555 80.8485 256.101 77.2958 257.043 73.3319L257.048 73.3086L257.054 73.2854C258.114 69.1359 258.645 64.8879 258.645 60.5354C258.645 55.9685 258.112 51.5626 257.051 47.3113L257.043 47.2814L257.036 47.2513C256.089 43.077 254.541 39.4359 252.417 36.2915L252.406 36.2756L252.396 36.2596C250.316 33.0888 247.616 30.6094 244.264 28.7946L244.238 28.7805L244.213 28.7658C240.97 26.9226 236.902 25.9273 231.882 25.9273C226.861 25.9273 222.793 26.9226 219.551 28.7658L219.525 28.7805L219.499 28.7946C216.147 30.6094 213.448 33.0888 211.367 36.2596L211.357 36.2756L211.346 36.2915C209.216 39.4459 207.615 43.0984 206.568 47.2817C205.603 51.5422 205.118 55.9584 205.118 60.5354C205.118 64.8963 205.601 69.1523 206.562 73.3079C207.605 77.2798 209.203 80.8414 211.346 84.0144C213.426 87.0945 216.139 89.5956 219.525 91.5253C222.774 93.278 226.853 94.2256 231.882 94.2256C236.91 94.2256 240.989 93.278 244.239 91.5253ZM179.248 83.8353L179.244 83.8226C176.684 76.5575 175.415 68.7881 175.415 60.5354C175.415 52.0896 176.681 44.2187 179.242 36.9476C181.798 29.5888 185.491 23.1419 190.334 17.6435C195.2 12.1203 201.139 7.80156 208.113 4.6848L208.121 4.6815L208.128 4.67824C215.257 1.54061 223.191 0 231.882 0C240.668 0 248.609 1.53842 255.65 4.6848C262.625 7.80156 268.564 12.1203 273.429 17.6435C278.273 23.1419 281.965 29.5888 284.521 36.9476C287.083 44.2187 288.348 52.0896 288.348 60.5354C288.348 68.7881 287.08 76.5575 284.52 83.8226L284.515 83.8353C281.953 90.9981 278.255 97.2916 273.41 102.683C268.546 108.098 262.612 112.357 255.65 115.468L255.633 115.476L255.616 115.483C248.585 118.517 240.655 120 231.882 120C223.204 120 215.282 118.515 208.162 115.489L208.137 115.479L208.113 115.468C201.151 112.357 195.218 108.098 190.353 102.683C185.508 97.2916 181.81 90.9981 179.248 83.8353ZM281.819 37.8967C279.376 30.8604 275.864 24.7419 271.282 19.5411C266.701 14.3403 261.101 10.2613 254.483 7.30401C247.866 4.34672 240.332 2.86807 231.882 2.86807C223.533 2.86807 215.999 4.34672 209.28 7.30401C202.662 10.2613 197.063 14.3403 192.481 19.5411C187.9 24.7419 184.387 30.8604 181.944 37.8967C179.501 44.8311 178.279 52.3773 178.279 60.5354C178.279 68.4895 179.501 75.9337 181.944 82.8681C184.387 89.7004 187.9 95.666 192.481 100.765C197.063 105.864 202.662 109.892 209.28 112.849C215.999 115.704 223.533 117.132 231.882 117.132C240.332 117.132 247.866 115.704 254.483 112.849C261.101 109.892 266.701 105.864 271.282 100.765C275.864 95.666 279.376 89.7004 281.819 82.8681C284.263 75.9337 285.485 68.4895 285.485 60.5354C285.485 52.3773 284.263 44.8311 281.819 37.8967ZM362.607 29.9648L362.585 29.9448C360.567 28.1482 357.251 26.9981 352.117 26.9981H328.714V52.0076H352.117C357.251 52.0076 360.567 50.8576 362.585 49.061C364.472 47.3804 365.747 44.3696 365.747 39.2734C365.747 34.4102 364.488 31.5699 362.63 29.9844L362.607 29.9648ZM299.011 2.60038H360.669C365.859 2.60038 370.609 3.46466 374.872 5.2551C379.155 6.9108 382.843 9.24977 385.888 12.2937C389.014 15.318 391.373 18.8579 392.947 22.892C394.625 26.8323 395.45 31.0801 395.45 35.6023C395.45 42.4353 393.987 48.5064 390.944 53.707C388.813 57.4755 385.737 60.5414 381.821 62.9441C382.793 63.5337 383.7 64.2001 384.537 64.9463C386.748 66.8187 388.542 69.0887 389.92 71.7279C391.286 74.2411 392.238 77.0061 392.796 80.0003C393.43 82.8696 393.855 85.7438 394.068 88.6218L394.069 88.6435L394.07 88.6652C394.173 90.4175 394.276 92.4723 394.378 94.8276C394.477 97.1147 394.626 99.4536 394.824 101.844C395.114 104.154 395.497 106.36 395.972 108.464C396.503 110.3 397.226 111.792 398.102 112.988L401.444 117.553H369.846L369.143 115.709C367.691 111.906 366.835 107.478 366.516 102.477C366.215 97.751 365.764 93.2347 365.164 88.9273C364.392 83.5232 362.811 80.0448 360.782 78.0127C358.92 76.1469 355.515 74.8757 349.826 74.8757H328.714V117.553H299.011V2.60038ZM367.999 88.5277C368.61 92.9127 369.068 97.5016 369.374 102.294C369.679 107.087 370.494 111.217 371.817 114.685H395.793C395.164 113.825 394.615 112.869 394.147 111.816C393.781 110.996 393.465 110.116 393.197 109.178C392.688 106.934 392.281 104.589 391.976 102.142C391.772 99.6941 391.619 97.2977 391.517 94.9522C391.416 92.6068 391.314 90.5672 391.212 88.8336C391.008 86.0803 390.601 83.327 389.99 80.5736C389.481 77.8203 388.616 75.3219 387.394 73.0784C386.172 70.7329 384.594 68.7444 382.66 67.1128C381.548 66.1163 380.268 65.2714 378.819 64.5781C377.787 64.0841 376.67 63.6671 375.467 63.3271C375.421 63.3142 375.376 63.3014 375.33 63.2887V62.9828C375.361 62.9701 375.393 62.9574 375.424 62.9447C376.59 62.4741 377.692 61.9625 378.731 61.4099C383.092 59.0892 386.336 56.0443 388.463 52.2753C391.212 47.5844 392.586 42.0268 392.586 35.6023C392.586 31.4213 391.823 27.5462 390.296 23.977C388.87 20.3059 386.732 17.0937 383.882 14.3403C381.133 11.587 377.773 9.4455 373.802 7.91587C369.934 6.28425 365.556 5.46845 360.669 5.46845H301.874V114.685H325.85V72.0077H349.826C355.833 72.0077 360.16 73.3333 362.807 75.9847C365.454 78.6361 367.185 82.8171 367.999 88.5277ZM409.222 2.60038H438.925V43.5214L477.433 2.60038H515.462L469.719 48.9104L518.261 117.553H481.111L449.377 70.096L438.925 80.6816V117.553H409.222V2.60038ZM436.061 79.5029L449.805 65.5832L482.639 114.685H512.724L465.993 48.6042L508.601 5.46845H478.668L436.061 50.7457V5.46845H412.085V114.685H436.061V79.5029ZM557.42 26.2715C553.653 28.311 550.599 31.1154 548.257 34.6845C545.916 38.1517 544.185 42.1287 543.065 46.6157C542.047 51.1026 541.538 55.7425 541.538 60.5354C541.538 65.1243 542.047 69.6112 543.065 73.9962C544.185 78.2792 545.916 82.1542 548.257 85.6214C550.599 89.0886 553.653 91.8929 557.42 94.0344C561.187 96.0739 565.769 97.0937 571.165 97.0937C576.56 97.0937 581.142 96.0739 584.909 94.0344C588.676 91.8929 591.73 89.0886 594.072 85.6214C596.413 82.1542 598.093 78.2792 599.111 73.9962C600.231 69.6112 600.791 65.1243 600.791 60.5354C600.791 55.7425 600.231 51.1026 599.111 46.6157C598.093 42.1287 596.413 38.1517 594.072 34.6845C591.73 31.1154 588.676 28.311 584.909 26.2715C581.142 24.13 576.56 23.0593 571.165 23.0593C565.769 23.0593 561.187 24.13 557.42 26.2715ZM558.808 91.5253C562.057 93.278 566.136 94.2256 571.165 94.2256C576.193 94.2256 580.272 93.2779 583.522 91.5252C586.908 89.5955 589.62 87.0944 591.7 84.0144C593.838 80.8485 595.384 77.2958 596.326 73.3319L596.331 73.3086L596.337 73.2854C597.397 69.1359 597.928 64.8879 597.928 60.5354C597.928 55.9685 597.395 51.5626 596.333 47.3113L596.326 47.2814L596.319 47.2513C595.372 43.077 593.824 39.4359 591.7 36.2915L591.689 36.2756L591.679 36.2596C589.599 33.0888 586.899 30.6094 583.547 28.7946L583.521 28.7805L583.496 28.7658C580.253 26.9226 576.185 25.9273 571.165 25.9273C566.144 25.9273 562.076 26.9226 558.834 28.7658L558.808 28.7805L558.782 28.7946C555.43 30.6094 552.731 33.0888 550.65 36.2596L550.64 36.2756L550.629 36.2915C548.499 39.4461 546.898 43.0987 545.85 47.2822C544.886 51.5426 544.401 55.9586 544.401 60.5354C544.401 64.8961 544.883 69.152 545.845 73.3075C546.888 77.2795 548.486 80.8413 550.629 84.0144C552.709 87.0945 555.422 89.5956 558.808 91.5253ZM518.531 83.8353L518.527 83.8226C515.967 76.5575 514.698 68.7881 514.698 60.5354C514.698 52.0895 515.963 44.219 518.525 36.9478C521.081 29.5889 524.773 23.142 529.617 17.6435C534.483 12.1203 540.422 7.80156 547.396 4.6848L547.404 4.6815L547.411 4.67824C554.54 1.54061 562.474 0 571.165 0C579.951 0 587.892 1.53842 594.933 4.6848C601.908 7.80156 607.847 12.1203 612.712 17.6435C617.556 23.142 621.248 29.5886 623.804 36.9474C626.366 44.2186 627.631 52.0895 627.631 60.5354C627.631 68.7881 626.362 76.5575 623.802 83.8226L623.798 83.8353C621.236 90.9981 617.538 97.2916 612.693 102.683C607.828 108.098 601.895 112.357 594.933 115.468L594.916 115.476L594.899 115.483C587.867 118.517 579.938 120 571.165 120C562.487 120 554.565 118.515 547.445 115.489L547.42 115.479L547.396 115.468C540.434 112.357 534.501 108.098 529.636 102.683C524.791 97.2916 521.093 90.9981 518.531 83.8353ZM621.102 37.8967C623.546 44.8311 624.767 52.3773 624.767 60.5354C624.767 68.4895 623.546 75.9337 621.102 82.8681C618.659 89.7004 615.146 95.666 610.565 100.765C605.984 105.864 600.384 109.892 593.766 112.849C587.149 115.704 579.615 117.132 571.165 117.132C562.816 117.132 555.282 115.704 548.563 112.849C541.945 109.892 536.346 105.864 531.764 100.765C527.183 95.666 523.67 89.7004 521.227 82.8681C518.784 75.9337 517.562 68.4895 517.562 60.5354C517.562 52.3773 518.784 44.8311 521.227 37.8967C523.67 30.8604 527.183 24.7419 531.764 19.5411C536.346 14.3403 541.945 10.2613 548.563 7.30401C555.282 4.34672 562.816 2.86807 571.165 2.86807C579.615 2.86807 587.149 4.34672 593.766 7.30401C600.384 10.2613 605.984 14.3403 610.565 19.5411C615.146 24.7419 618.659 30.8604 621.102 37.8967ZM736.565 2.60038V73.3843C736.565 88.6962 732.281 100.625 723.219 108.581L723.212 108.588L723.204 108.594C714.285 116.315 702.137 120 687.124 120C671.922 120 659.708 116.322 650.878 108.583L650.871 108.577L650.864 108.571C642 100.704 637.835 88.7666 637.835 73.3843V2.60038H667.538V73.3843C667.538 76.1759 667.778 78.9134 668.257 81.5991C668.692 84.0358 669.59 86.1684 670.942 88.0385C672.251 89.7496 674.099 91.2559 676.59 92.5121C679.032 93.5952 682.488 94.2256 687.124 94.2256C695.4 94.2256 700.229 92.3761 702.661 89.5716C705.28 86.4459 706.862 81.2403 706.862 73.3843V2.60038H736.565ZM704.839 91.434C708.097 87.559 709.726 81.5424 709.726 73.3843V5.46845H733.702V73.3843C733.702 88.1708 729.579 99.1842 721.332 106.424C713.085 113.563 701.683 117.132 687.124 117.132C672.362 117.132 660.908 113.563 652.763 106.424C644.72 99.2862 640.699 88.2728 640.699 73.3843V5.46845H664.675V73.3843C664.675 76.3416 664.929 79.2479 665.438 82.1032C665.947 84.9586 667.017 87.508 668.646 89.7514C670.274 91.8929 672.514 93.6775 675.365 95.1052C678.317 96.4308 682.237 97.0937 687.124 97.0937C695.676 97.0937 701.581 95.2071 704.839 91.434ZM745.799 25.6597V5.46845H835.137V25.6597H802.456V114.685H778.479V25.6597H745.799ZM775.616 28.5277V117.553H805.319V28.5277H838V2.60038H742.935V28.5277H775.616ZM325.85 54.8757H352.117C357.615 54.8757 361.738 53.652 364.487 51.2046C367.236 48.7572 368.61 44.7801 368.61 39.2734C368.61 33.9707 367.236 30.1466 364.487 27.8011C361.738 25.3537 357.615 24.13 352.117 24.13H325.85V54.8757Z" fill="#0036D7" fill-opacity="0.6"/>
</g>
<g style="mix-blend-mode:color-dodge">
<path d="M117.866 114.558L147.172 5.59437H123.666L105.808 80.6787H105.503L86.8812 5.59437H64.4437L45.5169 79.763H45.2116L27.9638 5.59437H4L32.8482 114.558H57.1172L75.2809 40.3896H75.5862L94.0551 114.558H117.866Z" fill="white"/>
<path d="M177.445 60.5341C177.445 55.7523 177.954 51.1232 178.972 46.6466C180.091 42.17 181.821 38.2021 184.161 34.743C186.502 31.1821 189.555 28.3842 193.32 26.3494C197.085 24.2128 201.664 23.1446 207.057 23.1446C212.45 23.1446 217.029 24.2128 220.794 26.3494C224.559 28.3842 227.612 31.1821 229.952 34.743C232.293 38.2021 233.972 42.17 234.989 46.6466C236.108 51.1232 236.668 55.7523 236.668 60.5341C236.668 65.1124 236.108 69.589 234.989 73.9639C233.972 78.237 232.293 82.1031 229.952 85.5622C227.612 89.0214 224.559 91.8193 220.794 93.9558C217.029 95.9906 212.45 97.008 207.057 97.008C201.664 97.008 197.085 95.9906 193.32 93.9558C189.555 91.8193 186.502 89.0214 184.161 85.5622C181.821 82.1031 180.091 78.237 178.972 73.9639C177.954 69.589 177.445 65.1124 177.445 60.5341ZM153.482 60.5341C153.482 68.4699 154.703 75.8969 157.145 82.8153C159.587 89.6319 163.098 95.5837 167.677 100.671C172.256 105.758 177.852 109.776 184.467 112.727C191.183 115.576 198.713 117 207.057 117C215.503 117 223.033 115.576 229.647 112.727C236.261 109.776 241.858 105.758 246.437 100.671C251.016 95.5837 254.526 89.6319 256.969 82.8153C259.411 75.8969 260.632 68.4699 260.632 60.5341C260.632 52.3949 259.411 44.8661 256.969 37.9478C254.526 30.9277 251.016 24.8233 246.437 19.6345C241.858 14.4458 236.261 10.3762 229.647 7.4257C223.033 4.47523 215.503 3 207.057 3C198.713 3 191.183 4.47523 184.467 7.4257C177.852 10.3762 172.256 14.4458 167.677 19.6345C163.098 24.8233 159.587 30.9277 157.145 37.9478C154.703 44.8661 153.482 52.3949 153.482 60.5341Z" fill="white"/>
<path d="M300.977 54.8875V24.2129H327.23C332.725 24.2129 336.846 25.4337 339.593 27.8755C342.341 30.2155 343.715 34.0308 343.715 39.3213C343.715 44.8153 342.341 48.7831 339.593 51.2249C336.846 53.6667 332.725 54.8875 327.23 54.8875H300.977ZM277.013 5.59437V114.558H300.977V71.9799H324.94C330.944 71.9799 335.269 73.3025 337.914 75.9478C340.56 78.593 342.29 82.7644 343.104 88.4618C343.715 92.8367 344.173 97.415 344.478 102.197C344.783 106.979 345.597 111.099 346.92 114.558H370.884C369.764 113.032 368.9 111.201 368.289 109.064C367.78 106.826 367.373 104.486 367.068 102.044C366.864 99.6024 366.712 97.2115 366.61 94.8715C366.508 92.5315 366.406 90.4966 366.305 88.7671C366.101 86.0201 365.694 83.2731 365.084 80.5261C364.575 77.7791 363.71 75.2865 362.489 73.0482C361.268 70.7082 359.69 68.7242 357.757 67.0964C355.824 65.3668 353.382 64.095 350.431 63.2811V62.9759C356.536 60.5341 360.912 56.9732 363.557 52.2932C366.305 47.6131 367.678 42.0683 367.678 35.6586C367.678 31.4873 366.915 27.6211 365.389 24.0602C363.964 20.3976 361.827 17.1928 358.978 14.4458C356.231 11.6988 352.873 9.56225 348.904 8.03614C345.037 6.4083 340.662 5.59437 335.778 5.59437H277.013Z" fill="white"/>
<path d="M387.167 5.59437V114.558H411.131V79.4578L424.868 65.5703L457.685 114.558H487.754L441.047 48.6305L483.633 5.59437H453.716L411.131 50.7671V5.59437H387.167Z" fill="white"/>
<path d="M516.553 60.5341C516.553 55.7523 517.062 51.1232 518.079 46.6466C519.199 42.17 520.929 38.2021 523.269 34.743C525.609 31.1821 528.662 28.3842 532.427 26.3494C536.192 24.2128 540.771 23.1446 546.164 23.1446C551.558 23.1446 556.137 24.2128 559.902 26.3494C563.667 28.3842 566.719 31.1821 569.06 34.743C571.4 38.2021 573.079 42.17 574.097 46.6466C575.216 51.1232 575.776 55.7523 575.776 60.5341C575.776 65.1124 575.216 69.589 574.097 73.9639C573.079 78.237 571.4 82.1031 569.06 85.5622C566.719 89.0214 563.667 91.8193 559.902 93.9558C556.137 95.9906 551.558 97.008 546.164 97.008C540.771 97.008 536.192 95.9906 532.427 93.9558C528.662 91.8193 525.609 89.0214 523.269 85.5622C520.929 82.1031 519.199 78.237 518.079 73.9639C517.062 69.589 516.553 65.1124 516.553 60.5341ZM492.589 60.5341C492.589 68.4699 493.81 75.8969 496.253 82.8153C498.695 89.6319 502.205 95.5837 506.784 100.671C511.364 105.758 516.96 109.776 523.574 112.727C530.29 115.576 537.82 117 546.164 117C554.61 117 562.14 115.576 568.755 112.727C575.369 109.776 580.965 105.758 585.544 100.671C590.124 95.5837 593.634 89.6319 596.076 82.8153C598.518 75.8969 599.74 68.4699 599.74 60.5341C599.74 52.3949 598.518 44.8661 596.076 37.9478C593.634 30.9277 590.124 24.8233 585.544 19.6345C580.965 14.4458 575.369 10.3762 568.755 7.4257C562.14 4.47523 554.61 3 546.164 3C537.82 3 530.29 4.47523 523.574 7.4257C516.96 10.3762 511.364 14.4458 506.784 19.6345C502.205 24.8233 498.695 30.9277 496.253 37.9478C493.81 44.8661 492.589 52.3949 492.589 60.5341Z" fill="white"/>
<path d="M708.618 73.3534V5.59437H684.654V73.3534C684.654 81.4926 683.026 87.4953 679.77 91.3614C676.513 95.1258 670.611 97.008 662.064 97.008C657.18 97.008 653.262 96.3467 650.311 95.0241C647.462 93.5997 645.223 91.8193 643.595 89.6827C641.967 87.4444 640.898 84.9009 640.39 82.0522C639.881 79.2035 639.626 76.3039 639.626 73.3534V5.59437H615.663V73.3534C615.663 88.2075 619.682 99.1954 627.721 106.317C635.861 113.439 647.309 117 662.064 117C676.615 117 688.012 113.439 696.254 106.317C704.497 99.0937 708.618 88.1058 708.618 73.3534Z" fill="white"/>
<path d="M753.372 25.739V114.558H777.336V25.739H810V5.59437H720.708V25.739H753.372Z" fill="white"/>
</g>
<g style="mix-blend-mode:color-dodge">
<path fill-rule="evenodd" clip-rule="evenodd" d="M119.84 117.553H91.5837L75.2123 51.6892L59.1115 117.553H30.379L0 2.60038H29.9702L45.2277 68.3281L61.9704 2.60038H88.8841L105.373 69.2046L121.186 2.60038H150.701L119.84 117.553ZM123.448 5.46845H146.966L117.645 114.685H93.8216L75.3431 40.3442H75.0377L56.8647 114.685H32.583L3.71998 5.46845H27.6962L44.9529 79.8088H45.2584L64.195 5.46845H86.644L105.275 80.7266H105.581L123.448 5.46845ZM183.975 34.6845C181.633 38.1517 179.902 42.1287 178.782 46.6157C177.764 51.1026 177.255 55.7425 177.255 60.5354C177.255 65.1243 177.764 69.6112 178.782 73.9962C179.902 78.2792 181.633 82.1542 183.975 85.6214C186.316 89.0886 189.37 91.8929 193.137 94.0344C196.904 96.0739 201.486 97.0937 206.882 97.0937C212.278 97.0937 216.859 96.0739 220.626 94.0344C224.393 91.8929 227.447 89.0886 229.789 85.6214C232.131 82.1542 233.81 78.2792 234.828 73.9962C235.948 69.6112 236.508 65.1243 236.508 60.5354C236.508 55.7425 235.948 51.1026 234.828 46.6157C233.81 42.1287 232.131 38.1517 229.789 34.6845C227.447 31.1154 224.393 28.311 220.626 26.2715C216.859 24.13 212.278 23.0593 206.882 23.0593C201.486 23.0593 196.904 24.13 193.137 26.2715C189.37 28.311 186.316 31.1154 183.975 34.6845ZM219.239 91.5253C222.625 89.5956 225.337 87.0945 227.417 84.0144C229.555 80.8485 231.101 77.2958 232.043 73.3319L232.048 73.3086L232.054 73.2854C233.114 69.1359 233.645 64.8879 233.645 60.5354C233.645 55.9685 233.112 51.5626 232.051 47.3113L232.043 47.2814L232.036 47.2513C231.089 43.077 229.541 39.4359 227.417 36.2915L227.406 36.2756L227.396 36.2596C225.316 33.0888 222.616 30.6094 219.264 28.7946L219.238 28.7805L219.213 28.7658C215.97 26.9226 211.902 25.9273 206.882 25.9273C201.861 25.9273 197.793 26.9226 194.551 28.7658L194.525 28.7805L194.499 28.7946C191.147 30.6094 188.448 33.0888 186.367 36.2596L186.357 36.2756L186.346 36.2915C184.216 39.4459 182.615 43.0984 181.568 47.2817C180.603 51.5422 180.118 55.9584 180.118 60.5354C180.118 64.8963 180.601 69.1523 181.562 73.3079C182.605 77.2798 184.203 80.8414 186.346 84.0144C188.426 87.0945 191.139 89.5956 194.525 91.5253C197.774 93.278 201.853 94.2256 206.882 94.2256C211.91 94.2256 215.989 93.278 219.239 91.5253ZM154.248 83.8353L154.244 83.8226C151.684 76.5575 150.415 68.7881 150.415 60.5354C150.415 52.0896 151.681 44.2187 154.242 36.9476C156.798 29.5888 160.491 23.1419 165.334 17.6435C170.2 12.1203 176.139 7.80156 183.113 4.6848L183.121 4.6815L183.128 4.67824C190.257 1.54061 198.191 0 206.882 0C215.668 0 223.609 1.53842 230.65 4.6848C237.625 7.80156 243.564 12.1203 248.429 17.6435C253.273 23.1419 256.965 29.5888 259.521 36.9476C262.083 44.2187 263.348 52.0896 263.348 60.5354C263.348 68.7881 262.08 76.5575 259.52 83.8226L259.515 83.8353C256.953 90.9981 253.255 97.2916 248.41 102.683C243.546 108.098 237.612 112.357 230.65 115.468L230.633 115.476L230.616 115.483C223.585 118.517 215.655 120 206.882 120C198.204 120 190.282 118.515 183.162 115.489L183.137 115.479L183.113 115.468C176.151 112.357 170.218 108.098 165.353 102.683C160.508 97.2916 156.81 90.9981 154.248 83.8353ZM256.819 37.8967C254.376 30.8604 250.864 24.7419 246.282 19.5411C241.701 14.3403 236.101 10.2613 229.483 7.30401C222.866 4.34672 215.332 2.86807 206.882 2.86807C198.533 2.86807 190.999 4.34672 184.28 7.30401C177.662 10.2613 172.063 14.3403 167.481 19.5411C162.9 24.7419 159.387 30.8604 156.944 37.8967C154.501 44.8311 153.279 52.3773 153.279 60.5354C153.279 68.4895 154.501 75.9337 156.944 82.8681C159.387 89.7004 162.9 95.666 167.481 100.765C172.063 105.864 177.662 109.892 184.28 112.849C190.999 115.704 198.533 117.132 206.882 117.132C215.332 117.132 222.866 115.704 229.483 112.849C236.101 109.892 241.701 105.864 246.282 100.765C250.864 95.666 254.376 89.7004 256.819 82.8681C259.263 75.9337 260.485 68.4895 260.485 60.5354C260.485 52.3773 259.263 44.8311 256.819 37.8967ZM337.607 29.9648L337.585 29.9448C335.567 28.1482 332.251 26.9981 327.117 26.9981H303.714V52.0076H327.117C332.251 52.0076 335.567 50.8576 337.585 49.061C339.472 47.3804 340.747 44.3696 340.747 39.2734C340.747 34.4102 339.488 31.5699 337.63 29.9844L337.607 29.9648ZM274.011 2.60038H335.669C340.859 2.60038 345.609 3.46466 349.872 5.2551C354.155 6.9108 357.843 9.24977 360.888 12.2937C364.014 15.318 366.373 18.8579 367.947 22.892C369.625 26.8323 370.45 31.0801 370.45 35.6023C370.45 42.4353 368.987 48.5064 365.944 53.707C363.813 57.4755 360.737 60.5414 356.821 62.9441C357.793 63.5337 358.7 64.2001 359.537 64.9463C361.748 66.8187 363.542 69.0887 364.92 71.7279C366.286 74.2411 367.238 77.0061 367.796 80.0003C368.43 82.8696 368.855 85.7438 369.068 88.6218L369.069 88.6435L369.07 88.6652C369.173 90.4175 369.276 92.4723 369.378 94.8276C369.477 97.1147 369.626 99.4536 369.824 101.844C370.114 104.154 370.497 106.36 370.972 108.464C371.503 110.3 372.226 111.792 373.102 112.988L376.444 117.553H344.846L344.143 115.709C342.691 111.906 341.835 107.478 341.516 102.477C341.215 97.751 340.764 93.2347 340.164 88.9273C339.392 83.5232 337.811 80.0448 335.782 78.0127C333.92 76.1469 330.515 74.8757 324.826 74.8757H303.714V117.553H274.011V2.60038ZM342.999 88.5277C343.61 92.9127 344.068 97.5016 344.374 102.294C344.679 107.087 345.494 111.217 346.817 114.685H370.793C370.164 113.825 369.615 112.869 369.147 111.816C368.781 110.996 368.465 110.116 368.197 109.178C367.688 106.934 367.281 104.589 366.976 102.142C366.772 99.6941 366.619 97.2977 366.517 94.9522C366.416 92.6068 366.314 90.5672 366.212 88.8336C366.008 86.0803 365.601 83.327 364.99 80.5736C364.481 77.8203 363.616 75.3219 362.394 73.0784C361.172 70.7329 359.594 68.7444 357.66 67.1128C356.548 66.1163 355.268 65.2714 353.819 64.5781C352.787 64.0841 351.67 63.6671 350.467 63.3271C350.421 63.3142 350.376 63.3014 350.33 63.2887V62.9828C350.361 62.9701 350.393 62.9574 350.424 62.9447C351.59 62.4741 352.692 61.9625 353.731 61.4099C358.092 59.0892 361.336 56.0443 363.463 52.2753C366.212 47.5844 367.586 42.0268 367.586 35.6023C367.586 31.4213 366.823 27.5462 365.296 23.977C363.87 20.3059 361.732 17.0937 358.882 14.3403C356.133 11.587 352.773 9.4455 348.802 7.91587C344.934 6.28425 340.556 5.46845 335.669 5.46845H276.874V114.685H300.85V72.0077H324.826C330.833 72.0077 335.16 73.3333 337.807 75.9847C340.454 78.6361 342.185 82.8171 342.999 88.5277ZM384.222 2.60038H413.925V43.5214L452.433 2.60038H490.462L444.719 48.9104L493.261 117.553H456.111L424.377 70.096L413.925 80.6816V117.553H384.222V2.60038ZM411.061 79.5029L424.805 65.5832L457.639 114.685H487.724L440.993 48.6042L483.601 5.46845H453.668L411.061 50.7457V5.46845H387.085V114.685H411.061V79.5029ZM532.42 26.2715C528.653 28.311 525.599 31.1154 523.257 34.6845C520.916 38.1517 519.185 42.1287 518.065 46.6157C517.047 51.1026 516.538 55.7425 516.538 60.5354C516.538 65.1243 517.047 69.6112 518.065 73.9962C519.185 78.2792 520.916 82.1542 523.257 85.6214C525.599 89.0886 528.653 91.8929 532.42 94.0344C536.187 96.0739 540.769 97.0937 546.165 97.0937C551.56 97.0937 556.142 96.0739 559.909 94.0344C563.676 91.8929 566.73 89.0886 569.072 85.6214C571.413 82.1542 573.093 78.2792 574.111 73.9962C575.231 69.6112 575.791 65.1243 575.791 60.5354C575.791 55.7425 575.231 51.1026 574.111 46.6157C573.093 42.1287 571.413 38.1517 569.072 34.6845C566.73 31.1154 563.676 28.311 559.909 26.2715C556.142 24.13 551.56 23.0593 546.165 23.0593C540.769 23.0593 536.187 24.13 532.42 26.2715ZM533.808 91.5253C537.057 93.278 541.136 94.2256 546.165 94.2256C551.193 94.2256 555.272 93.2779 558.522 91.5252C561.908 89.5955 564.62 87.0944 566.7 84.0144C568.838 80.8485 570.384 77.2958 571.326 73.3319L571.331 73.3086L571.337 73.2854C572.397 69.1359 572.928 64.8879 572.928 60.5354C572.928 55.9685 572.395 51.5626 571.333 47.3113L571.326 47.2814L571.319 47.2513C570.372 43.077 568.824 39.4359 566.7 36.2915L566.689 36.2756L566.679 36.2596C564.599 33.0888 561.899 30.6094 558.547 28.7946L558.521 28.7805L558.496 28.7658C555.253 26.9226 551.185 25.9273 546.165 25.9273C541.144 25.9273 537.076 26.9226 533.834 28.7658L533.808 28.7805L533.782 28.7946C530.43 30.6094 527.731 33.0888 525.65 36.2596L525.64 36.2756L525.629 36.2915C523.499 39.4461 521.898 43.0987 520.85 47.2822C519.886 51.5426 519.401 55.9586 519.401 60.5354C519.401 64.8961 519.883 69.152 520.845 73.3075C521.888 77.2795 523.486 80.8413 525.629 84.0144C527.709 87.0945 530.422 89.5956 533.808 91.5253ZM493.531 83.8353L493.527 83.8226C490.967 76.5575 489.698 68.7881 489.698 60.5354C489.698 52.0895 490.963 44.219 493.525 36.9478C496.081 29.5889 499.773 23.142 504.617 17.6435C509.483 12.1203 515.422 7.80156 522.396 4.6848L522.404 4.6815L522.411 4.67824C529.54 1.54061 537.474 0 546.165 0C554.951 0 562.892 1.53842 569.933 4.6848C576.908 7.80156 582.847 12.1203 587.712 17.6435C592.556 23.142 596.248 29.5886 598.804 36.9474C601.366 44.2186 602.631 52.0895 602.631 60.5354C602.631 68.7881 601.362 76.5575 598.802 83.8226L598.798 83.8353C596.236 90.9981 592.538 97.2916 587.693 102.683C582.828 108.098 576.895 112.357 569.933 115.468L569.916 115.476L569.899 115.483C562.867 118.517 554.938 120 546.165 120C537.487 120 529.565 118.515 522.445 115.489L522.42 115.479L522.396 115.468C515.434 112.357 509.501 108.098 504.636 102.683C499.791 97.2916 496.093 90.9981 493.531 83.8353ZM596.102 37.8967C598.546 44.8311 599.767 52.3773 599.767 60.5354C599.767 68.4895 598.546 75.9337 596.102 82.8681C593.659 89.7004 590.146 95.666 585.565 100.765C580.984 105.864 575.384 109.892 568.766 112.849C562.149 115.704 554.615 117.132 546.165 117.132C537.816 117.132 530.282 115.704 523.563 112.849C516.945 109.892 511.346 105.864 506.764 100.765C502.183 95.666 498.67 89.7004 496.227 82.8681C493.784 75.9337 492.562 68.4895 492.562 60.5354C492.562 52.3773 493.784 44.8311 496.227 37.8967C498.67 30.8604 502.183 24.7419 506.764 19.5411C511.346 14.3403 516.945 10.2613 523.563 7.30401C530.282 4.34672 537.816 2.86807 546.165 2.86807C554.615 2.86807 562.149 4.34672 568.766 7.30401C575.384 10.2613 580.984 14.3403 585.565 19.5411C590.146 24.7419 593.659 30.8604 596.102 37.8967ZM711.565 2.60038V73.3843C711.565 88.6962 707.281 100.625 698.219 108.581L698.212 108.588L698.204 108.594C689.285 116.315 677.137 120 662.124 120C646.922 120 634.708 116.322 625.878 108.583L625.871 108.577L625.864 108.571C617 100.704 612.835 88.7666 612.835 73.3843V2.60038H642.538V73.3843C642.538 76.1759 642.778 78.9134 643.257 81.5991C643.692 84.0358 644.59 86.1684 645.942 88.0385C647.251 89.7496 649.099 91.2559 651.59 92.5121C654.032 93.5952 657.488 94.2256 662.124 94.2256C670.4 94.2256 675.229 92.3761 677.661 89.5716C680.28 86.4459 681.862 81.2403 681.862 73.3843V2.60038H711.565ZM679.839 91.434C683.097 87.559 684.726 81.5424 684.726 73.3843V5.46845H708.702V73.3843C708.702 88.1708 704.579 99.1842 696.332 106.424C688.085 113.563 676.683 117.132 662.124 117.132C647.362 117.132 635.908 113.563 627.763 106.424C619.72 99.2862 615.699 88.2728 615.699 73.3843V5.46845H639.675V73.3843C639.675 76.3416 639.929 79.2479 640.438 82.1032C640.947 84.9586 642.017 87.508 643.646 89.7514C645.274 91.8929 647.514 93.6775 650.365 95.1052C653.317 96.4308 657.237 97.0937 662.124 97.0937C670.676 97.0937 676.581 95.2071 679.839 91.434ZM720.799 25.6597V5.46845H810.137V25.6597H777.456V114.685H753.479V25.6597H720.799ZM750.616 28.5277V117.553H780.319V28.5277H813V2.60038H717.935V28.5277H750.616ZM300.85 54.8757H327.117C332.615 54.8757 336.738 53.652 339.487 51.2046C342.236 48.7572 343.61 44.7801 343.61 39.2734C343.61 33.9707 342.236 30.1466 339.487 27.8011C336.738 25.3537 332.615 24.13 327.117 24.13H300.85V54.8757Z" fill="#3A1AE7" fill-opacity="0.6"/>
</g>
</svg>
