<svg width="30" height="72" fill="none" xmlns="http://www.w3.org/2000/svg"><g clip-path="url(#clip0)"><path d="M19.59 12.71h.01v-2.23h.16c.62 0 1.13-.51 1.13-1.13 0-.62-.51-1.13-1.13-1.13h-.16v-.43h.05c.62 0 1.13-.51 1.13-1.13 0-.62-.51-1.13-1.13-1.13h-.05V5.1h.16c.62 0 1.13-.51 1.13-1.13 0-.62-.51-1.13-1.13-1.13h-.16V2.1c0-.88-.72-1.6-1.6-1.6h-6.98c-.88 0-1.6.72-1.6 1.6v.75c-.6.02-1.09.51-1.09 1.12 0 .61.49 1.1 1.09 1.12v.44h-.08c-.62 0-1.13.51-1.13 1.13 0 .62.51 1.13 1.13 1.13h.08v.44c-.6.02-1.09.51-1.09 1.12 0 .61.49 1.1 1.09 1.12v2.24C4.31 13.96.5 18.56.5 24.06v38.99c0 4.31 3.5 7.81 7.81 7.81H20.7c4.31 0 7.81-3.5 7.81-7.81V24.06c0-5.5-3.8-10.1-8.92-11.35z" stroke="#fff" stroke-miterlimit="10" stroke-linecap="round" stroke-linejoin="round"/><path d="M14.63 26.59s3.06-3.86 5.85-3.79c4.03.09 4.73 3.96 4.73 6.43v32.65c0 3.48-2.9 6.3-6.47 6.3h-8.22c-3.57 0-6.47-2.82-6.47-6.3V29.22s-.85-7.25 4.85-7.25c5.7 0 6.81 11.11 12.48 9.34C24.03 30.49 25 27.6 25 27.6M9.52 7.99H19.7M9.52 5.34H19.7" stroke="#fff" stroke-miterlimit="10" stroke-linecap="round" stroke-linejoin="round"/><path d="M10.02 35.68a1.83 1.83 0 100-3.66 1.83 1.83 0 000 3.66zm6.93 18.23a.92.92 0 100-1.84.92.92 0 000 1.84z" stroke="#fff" stroke-width=".5" stroke-miterlimit="10" stroke-linecap="round" stroke-linejoin="round"/><path d="M20.5 27a.5.5 0 100-1 .5.5 0 000 1z" stroke="#fff" stroke-width=".2" stroke-miterlimit="10" stroke-linecap="round" stroke-linejoin="round"/><path d="M14.05 43.11a.46.46 0 100-.92.46.46 0 000 .92zm-4.03 10.34a.46.46 0 100-.92.46.46 0 000 .92zm7.85 9.76a.46.46 0 100-.92.46.46 0 000 .92z" fill="#fff"/></g><defs><clipPath id="clip0"><path fill="#fff" d="M0 0h29.01v71.36H0z"/></clipPath></defs></svg>