<svg width="49" height="53" fill="none" xmlns="http://www.w3.org/2000/svg"><g clip-path="url(#clip0)" stroke="#fff" stroke-miterlimit="10"><path d="M11.346 52.336H3.804A3.117 3.117 0 01.67 49.227V27.735c0-1.727 1.406-3.108 3.134-3.108h7.529a3.117 3.117 0 013.134 3.108v21.48c.013 1.726-1.393 3.12-3.121 3.12z"/><path d="M26.993 8.565c8.814-4.118 3.564 15.621 3.564 15.621s17.574-3.4 13.06 10.44c-2.585 7.918-5.706 11.77-7.917 13.616-1.272 1.076-2.893 1.634-4.567 1.634H19.626a7.133 7.133 0 01-3.938-1.182l-1.188-1.12V28.5s2.983-2.282 5.595-6.346C22.707 18.089 24.5 10.5 26.993 8.565zM45.483 13l1.232 2.232 2.264 1.235-2.264 1.222-1.232 2.232-1.233-2.232L42 16.467l2.25-1.235L45.483 13z" stroke-linecap="round" stroke-linejoin="round"/><path d="M36.864 3.573l.884 1.594 1.607.877-1.607.877-.884 1.594-.884-1.594-1.621-.877 1.62-.877.885-1.594z" stroke-width=".5" stroke-linecap="round" stroke-linejoin="round"/><path d="M18.496 1l1.233 2.245 2.25 1.222-2.25 1.222-1.233 2.232-1.232-2.232L15 4.467l2.264-1.222L18.496 1z" stroke-linecap="round" stroke-linejoin="round"/></g><defs><clipPath id="clip0"><path fill="#fff" d="M0 0h49v53H0z"/></clipPath></defs></svg>