<svg width="339" height="146" fill="none" xmlns="http://www.w3.org/2000/svg"><path d="M51.26 84.72v2h2.476l-.52-2.42-1.956.42zM42.98 46.2l1.955-.42-.34-1.58H42.98v2zm-.24 0v-2h-1.616l-.34 1.58 1.956.42zm-8.28 38.52l-1.955-.42-.52 2.42h2.475v-2zm19.08-53.4l1.933-.512-.393-1.488h-1.54v2zM76.22 117v2h2.598l-.665-2.512-1.933.512zm-18 0l-1.954.427.344 1.573h1.61v-2zm-3.96-18.12l1.954-.427-.344-1.573h-1.61v2zm-22.8 0v-2h-1.61l-.344 1.573 1.954.427zM27.5 117v2h1.61l.344-1.573L27.5 117zm-18 0l-1.933-.512L6.902 119H9.5v-2zm22.68-85.68v-2h-1.54l-.393 1.488 1.933.512zM53.215 84.3l-8.28-38.52-3.91.84 8.28 38.52 3.91-.84zM42.98 44.2h-.24v4h.24v-4zm-2.195 1.58l-8.28 38.52 3.91.84 8.28-38.52-3.91-.84zM34.46 86.72h16.8v-4h-16.8v4zm17.147-54.888l22.68 85.68 3.866-1.024-22.68-85.68-3.866 1.024zM76.22 115h-18v4h18v-4zm-16.046 1.573l-3.96-18.12-3.908.854 3.96 18.12 3.908-.854zM54.26 96.88h-22.8v4h22.8v-4zm-24.754 1.573l-3.96 18.12 3.908.854 3.96-18.12-3.908-.854zM27.5 115h-18v4h18v-4zm-16.067 2.512l22.68-85.68-3.866-1.024-22.68 85.68 3.866 1.024zM32.18 33.32h21.36v-4H32.18v4zm50-2v-2h-2v2h2zm0 85.68h-2v2h2v-2zm17.28 0v2h2v-2h-2zm0-36.24v-2h-2v2h2zm16.92 2.88l1.568-1.241-1.568 1.241zm2.52 7.92l1.999-.058-.001-.019-.001-.018-1.997.095zm.48 16.44l-1.999.058v.019l.001.018 1.998-.095zm.48 4.92l-1.978.297.001.007.001.008 1.976-.312zm1.68 4.08l-1.613 1.183.599.817h1.014v-2zm18.72 0v2h2v-2h-2zm0-.72h2v-1.183l-1.036-.569-.964 1.752zm-3.12-4.92l-1.983.264.009.065.013.063 1.961-.392zm-.72-10.44l-1.999.069v.001l1.999-.07zm-.24-6.24l-1.999.083.001.004 1.998-.087zm-.36-5.28l-1.99.199 1.99-.199zm-3.72-10.44l-1.468 1.359 1.468-1.359zm-9.48-4.2h-2v1.725l1.707.253.293-1.978zm0-.24l-.417-1.956-1.583.337v1.619h2zm10.8-6.96l1.681 1.083.005-.008.006-.008-1.692-1.067zm-2.52-30.72l-1.354 1.472.008.007.008.008 1.338-1.487zM99.46 68.76h-2v2h2v-2zm0-24.72v-2h-2v2h2zm16.8 21.84l1.301 1.519.016-.014.015-.013-1.332-1.492zM80.18 31.32V117h4V31.32h-4zm2 87.68h17.28v-4H82.18v4zm19.28-2V80.76h-4V117h4zm-2-34.24h9.24v-4h-9.24v4zm9.24 0c3.286 0 5.124.873 6.112 2.121l3.136-2.482c-2.052-2.592-5.335-3.639-9.248-3.639v4zm6.112 2.121c1.179 1.49 1.943 3.68 2.09 6.774l3.995-.19c-.172-3.625-1.089-6.716-2.949-9.066l-3.136 2.482zm2.089 6.737l.48 16.44 3.998-.116-.48-16.44-3.998.116zm.481 16.477c.083 1.745.249 3.452.5 5.122l3.956-.594a46.683 46.683 0 01-.461-4.718l-3.995.19zm.502 5.137a11.228 11.228 0 002.043 4.951l3.225-2.366a7.237 7.237 0 01-1.317-3.209l-3.951.624zM121.54 119h18.72v-4h-18.72v4zm20.72-2v-.72h-4v.72h4zm-1.036-2.472c-.923-.508-1.717-1.53-2.123-3.56l-3.922.784c.553 2.77 1.839 5.028 4.117 6.28l1.928-3.504zm-2.102-3.432c-.307-2.302-.544-5.705-.704-10.246l-3.997.14c.161 4.579.403 8.136.736 10.634l3.965-.528zm-.703-10.245a750.57 750.57 0 00-.241-6.258l-3.996.174c.079 1.833.159 3.907.239 6.222l3.998-.138zm-.241-6.254a93.914 93.914 0 00-.368-5.396l-3.98.398c.155 1.555.273 3.276.351 5.164l3.997-.166zm-.368-5.396c-.498-4.98-1.811-8.973-4.243-11.6l-2.935 2.718c1.568 1.694 2.736 4.66 3.198 9.28l3.98-.398zm-4.243-11.6c-2.428-2.622-6.093-4.144-10.654-4.82l-.586 3.957c4.079.605 6.733 1.883 8.305 3.58l2.935-2.717zm-8.947-2.841v-.24h-4v.24h4zm-1.583 1.716c5.307-1.131 9.408-3.711 12.064-7.833l-3.362-2.166c-1.984 3.078-5.084 5.138-9.536 6.087l.834 3.912zm12.075-7.85c2.576-4.087 3.788-9.208 3.788-15.226h-4c0 5.502-1.109 9.82-3.172 13.093l3.384 2.134zM138.9 53.4c0-7.782-2.099-13.94-6.662-18.047l-2.676 2.974c3.436 3.092 5.338 7.975 5.338 15.073h4zm-6.646-18.032c-4.476-4.118-10.619-6.048-18.154-6.048v4c6.865 0 11.921 1.75 15.446 4.992l2.708-2.944zM114.1 29.32H82.18v4h31.92v-4zm-12.64 39.44V44.04h-4v24.72h4zm-2-22.72h8.16v-4h-8.16v4zm8.16 0c3.696 0 6.101.914 7.593 2.391 1.488 1.474 2.407 3.842 2.407 7.489h4c0-4.273-1.081-7.845-3.593-10.331-2.508-2.483-6.104-3.549-10.407-3.549v4zm10 9.88c0 4.379-1.063 7.014-2.692 8.468l2.664 2.984c2.851-2.546 4.028-6.551 4.028-11.452h-4zm-2.662 8.442c-1.753 1.502-4.422 2.398-8.298 2.398v4c4.443 0 8.175-1.024 10.901-3.362l-2.603-3.036zm-8.298 2.398h-7.2v4h7.2v-4zm90.079-35.44h2v-2h-2v2zm-47.88 0v-2h-2v2h2zm0 85.68h-2v2h2v-2zm49.08 0v2h2v-2h-2zm0-14.16h2v-2h-2v2zm-31.8 0h-2v2h2v-2zm0-23.04v-2h-2v2h2zm28.8 0v2h2v-2h-2zm0-14.16h2v-2h-2v2zm-28.8 0h-2v2h2v-2zm0-20.16v-2h-2v2h2zm30.6 0v2h2v-2h-2zm0-16.16h-47.88v4h47.88v-4zm-49.88 2V117h4V31.32h-4zm2 87.68h49.08v-4h-49.08v4zm51.08-2v-14.16h-4V117h4zm-2-16.16h-31.8v4h31.8v-4zm-29.8 2V79.8h-4v23.04h4zm-2-21.04h28.8v-4h-28.8v4zm30.8-2V65.64h-4V79.8h4zm-2-16.16h-28.8v4h28.8v-4zm-26.8 2V45.48h-4v20.16h4zm-2-18.16h30.6v-4h-30.6v4zm32.6-2V31.32h-4v14.16h4zm27.814-14.16l1.884-.67-.473-1.33h-1.411v2zm-19.92 0v-2h-2v2h2zm0 85.68h-2v2h2v-2zm15.84 0v2h2v-2h-2zm0-60v-2h-2v2h2zm.24 0l1.886-.664-.47-1.336h-1.416v2zm21.12 60l-1.887.664.471 1.336h1.416v-2zm19.68 0v2h2v-2h-2zm0-85.68h2v-2h-2v2zm-15.84 0v-2h-2v2h2zm0 58.68v2h2v-2h-2zm-.24 0l-1.884.67.473 1.33h1.411v-2zm-20.88-60.68h-19.92v4h19.92v-4zm-21.92 2V117h4V31.32h-4zm2 87.68h15.84v-4h-15.84v4zm17.84-2V57h-4v60h4zm-2-58h.24v-4h-.24v4zm-1.647-1.336l21.12 60 3.773-1.328-21.12-60-3.773 1.328zM243.833 119h19.68v-4h-19.68v4zm21.68-2V31.32h-4V117h4zm-2-87.68h-15.84v4h15.84v-4zm-17.84 2V90h4V31.32h-4zm2 56.68h-.24v4h.24v-4zm1.644 1.33l-20.88-58.68-3.768 1.34 20.88 58.68 3.768-1.34zm61.982-4.61v2h2.476l-.521-2.42-1.955.42zm-8.28-38.52l1.955-.42-.339-1.58h-1.616v2zm-.24 0v-2h-1.616l-.339 1.58 1.955.42zm-8.28 38.52l-1.955-.42-.521 2.42h2.476v-2zm19.08-53.4l1.933-.512-.393-1.488h-1.54v2zm22.68 85.68v2h2.598l-.665-2.512-1.933.512zm-18 0l-1.954.427.344 1.573h1.61v-2zm-3.96-18.12l1.954-.427-.344-1.573h-1.61v2zm-22.8 0v-2h-1.61l-.344 1.573 1.954.427zm-3.96 18.12v2h1.61l.344-1.573-1.954-.427zm-18 0l-1.933-.512-.665 2.512h2.598v-2zm22.68-85.68v-2h-1.539l-.394 1.488 1.933.512zm21.035 52.98l-8.28-38.52-3.91.84 8.28 38.52 3.91-.84zm-10.235-40.1h-.24v4h.24v-4zm-2.195 1.58l-8.28 38.52 3.91.84 8.28-38.52-3.91-.84zm-6.325 40.94h16.8v-4h-16.8v4zm17.147-54.888l22.68 85.68 3.866-1.024-22.68-85.68-3.866 1.024zM336.259 115h-18v4h18v-4zm-16.046 1.573l-3.96-18.12-3.908.854 3.96 18.12 3.908-.854zm-5.914-19.693h-22.8v4h22.8v-4zm-24.754 1.573l-3.96 18.12 3.908.854 3.96-18.12-3.908-.854zM287.539 115h-18v4h18v-4zm-16.067 2.512l22.68-85.68-3.866-1.024-22.68 85.68 3.866 1.024zm20.747-84.192h21.36v-4h-21.36v4z" fill="#0036D7"/><g style="mix-blend-mode:hard-light" filter="url(#filter0_f)"><path d="M46.76 85.22v1.3h1.61l-.339-1.573-1.271.273zM38.48 46.7l1.271-.273-.22-1.027H38.48v1.3zm-.24 0v-1.3h-1.05l-.221 1.027 1.271.273zm-8.28 38.52l-1.271-.273-.338 1.573h1.609v-1.3zm19.08-53.4l1.257-.333-.256-.967H49.04v1.3zm22.68 85.68v1.3h1.689l-.432-1.633-1.257.333zm-18 0l-1.27.278.223 1.022h1.047v-1.3zm-3.96-18.12l1.27-.278-.223-1.022H49.76v1.3zm-22.8 0v-1.3h-1.047l-.223 1.022 1.27.278zM23 117.5v1.3h1.047l.223-1.022L23 117.5zm-18 0l-1.257-.333-.432 1.633H5v-1.3zm22.68-85.68v-1.3h-1l-.257.967 1.257.333zm20.351 53.127l-8.28-38.52-2.542.546 8.28 38.52 2.542-.546zM38.48 45.4h-.24V48h.24v-2.6zm-1.511 1.027l-8.28 38.52 2.542.546 8.28-38.52-2.542-.546zM29.96 86.52h16.8v-2.6h-16.8v2.6zm17.823-54.367l22.68 85.68 2.514-.666-22.68-85.68-2.514.666zM71.72 116.2h-18v2.6h18v-2.6zm-16.73 1.022l-3.96-18.12-2.54.556 3.96 18.12 2.54-.556zM49.76 98.08h-22.8v2.6h22.8v-2.6zm-24.07 1.022l-3.96 18.12 2.54.556 3.96-18.12-2.54-.556zM23 116.2H5v2.6h18v-2.6zm-16.743 1.633l22.68-85.68-2.514-.666-22.68 85.68 2.514.666zM27.68 33.12h21.36v-2.6H27.68v2.6zm50-1.3v-1.3h-1.3v1.3h1.3zm0 85.68h-1.3v1.3h1.3v-1.3zm17.28 0v1.3h1.3v-1.3h-1.3zm0-36.24v-1.3h-1.3v1.3h1.3zm16.92 2.88l1.019-.807-1.019.807zm2.52 7.92l1.299-.038v-.012l-.001-.012-1.298.062zm.48 16.44l-1.3.038.001.012v.012l1.299-.062zm.48 4.92l-1.286.193.002.01 1.284-.203zm1.68 4.08l-1.049.769.39.531h.659v-1.3zm18.72 0v1.3h1.3v-1.3h-1.3zm0-.72h1.3v-.769l-.674-.37-.626 1.139zm-3.12-4.92l-1.289.172.006.042.008.041 1.275-.255zm-.72-10.44l-1.3.045v.001l1.3-.046zm-.24-6.24l-1.299.054v.003l1.299-.057zm-.36-5.28l-1.294.13 1.294-.13zm-3.72-10.44l-.954.883.954-.883zm-9.48-4.2h-1.3v1.122l1.109.164.191-1.286zm0-.24l-.271-1.271-1.029.219v1.052h1.3zm10.8-6.96l1.092.704.007-.01-1.099-.694zm-2.52-30.72l-.88.957.005.005.005.004.87-.966zM94.96 69.26h-1.3v1.3h1.3v-1.3zm0-24.72v-1.3h-1.3v1.3h1.3zm16.8 21.84l.846.987.01-.008.01-.01-.866-.969zM76.38 31.82v85.68h2.6V31.82h-2.6zm1.3 86.98h17.28v-2.6H77.68v2.6zm18.58-1.3V81.26h-2.6v36.24h2.6zm-1.3-34.94h9.24v-2.6h-9.24v2.6zm9.24 0c3.396 0 5.486.904 6.66 2.387l2.039-1.614c-1.866-2.357-4.895-3.373-8.699-3.373v2.6zm6.66 2.387c1.299 1.64 2.089 3.987 2.241 7.175l2.597-.124c-.168-3.532-1.058-6.465-2.799-8.665l-2.039 1.614zm2.24 7.15l.48 16.441 2.599-.076-.48-16.44-2.599.076zm.481 16.465a50.03 50.03 0 00.493 5.051l2.571-.386a47.57 47.57 0 01-.467-4.789l-2.597.124zm.495 5.061a10.536 10.536 0 001.915 4.646l2.097-1.538c-.753-1.027-1.235-2.191-1.444-3.514l-2.568.406zm2.964 5.177h18.72v-2.6h-18.72v2.6zm20.02-1.3v-.72h-2.6v.72h2.6zm-.674-1.859c-1.159-.638-2.04-1.876-2.472-4.036l-2.549.51c.528 2.64 1.728 4.682 3.768 5.804l1.253-2.278zm-2.458-3.953c-.311-2.336-.55-5.766-.709-10.314l-2.599.092c.161 4.572.403 8.102.731 10.566l2.577-.344zm-.709-10.313a668.36 668.36 0 00-.241-6.251l-2.597.113c.08 1.835.16 3.91.239 6.228l2.599-.09zm-.24-6.25a93.071 93.071 0 00-.366-5.354l-2.587.258c.157 1.571.276 3.306.355 5.205l2.598-.108zm-.366-5.354c-.491-4.917-1.779-8.731-4.059-11.194l-1.908 1.766c1.719 1.857 2.912 5.003 3.38 9.686l2.587-.258zm-4.059-11.194c-2.279-2.46-5.767-3.94-10.244-4.603l-.381 2.572c4.164.617 6.995 1.938 8.717 3.797l1.908-1.766zm-9.134-3.317v-.24h-2.6v.24h2.6zm-1.029 1.031c5.158-1.099 9.083-3.588 11.621-7.527l-2.185-1.408c-2.102 3.26-5.376 5.412-9.978 6.393l.542 2.543zm11.628-7.538c2.487-3.944 3.681-8.925 3.681-14.853h-2.6c0 5.592-1.127 10.051-3.28 13.467l2.199 1.386zM133.7 53.9c0-7.662-2.064-13.596-6.431-17.526l-1.739 1.932c3.634 3.27 5.57 8.376 5.57 15.594h2.6zm-6.42-17.517c-4.309-3.964-10.263-5.863-17.68-5.863v2.6c6.982 0 12.229 1.781 15.92 5.177l1.76-1.914zM109.6 30.52H77.68v2.6h31.92v-2.6zM96.26 69.26V44.54h-2.6v24.72h2.6zm-1.3-23.42h8.16v-2.6h-8.16v2.6zm8.16 0c3.803 0 6.415.94 8.085 2.594 1.667 1.65 2.615 4.23 2.615 7.986h2.6c0-4.164-1.053-7.525-3.386-9.834-2.33-2.307-5.717-3.346-9.914-3.346v2.6zm10.7 10.58c0 4.47-1.083 7.345-2.926 8.99l1.732 1.94c2.637-2.355 3.794-6.12 3.794-10.93h-2.6zm-2.906 8.973c-1.924 1.649-4.779 2.567-8.754 2.567v2.6c4.344 0 7.889-1.002 10.446-3.193l-1.692-1.974zm-8.754 2.567h-7.2v2.6h7.2v-2.6zm90.079-36.14h1.3v-1.3h-1.3v1.3zm-47.88 0v-1.3h-1.3v1.3h1.3zm0 85.68h-1.3v1.3h1.3v-1.3zm49.08 0v1.3h1.3v-1.3h-1.3zm0-14.16h1.3v-1.3h-1.3v1.3zm-31.8 0h-1.3v1.3h1.3v-1.3zm0-23.04V79h-1.3v1.3h1.3zm28.8 0v1.3h1.3v-1.3h-1.3zm0-14.16h1.3v-1.3h-1.3v1.3zm-28.8 0h-1.3v1.3h1.3v-1.3zm0-20.16v-1.3h-1.3v1.3h1.3zm30.6 0v1.3h1.3v-1.3h-1.3zm0-15.46h-47.88v2.6h47.88v-2.6zm-49.18 1.3v85.68h2.6V31.82h-2.6zm1.3 86.98h49.08v-2.6h-49.08v2.6zm50.38-1.3v-14.16h-2.6v14.16h2.6zm-1.3-15.46h-31.8v2.6h31.8v-2.6zm-30.5 1.3V80.3h-2.6v23.04h2.6zm-1.3-21.74h28.8V79h-28.8v2.6zm30.1-1.3V66.14h-2.6V80.3h2.6zm-1.3-15.46h-28.8v2.6h28.8v-2.6zm-27.5 1.3V45.98h-2.6v20.16h2.6zm-1.3-18.86h30.6v-2.6h-30.6v2.6zm31.9-1.3V31.82h-2.6v14.16h2.6zm28.514-14.16l1.225-.436-.308-.864h-.917v1.3zm-19.92 0v-1.3h-1.3v1.3h1.3zm0 85.68h-1.3v1.3h1.3v-1.3zm15.84 0v1.3h1.3v-1.3h-1.3zm0-60v-1.3h-1.3v1.3h1.3zm.24 0l1.226-.432-.306-.868h-.92v1.3zm21.12 60l-1.226.432.305.868h.921v-1.3zm19.68 0v1.3h1.3v-1.3h-1.3zm0-85.68h1.3v-1.3h-1.3v1.3zm-15.84 0v-1.3h-1.3v1.3h1.3zm0 58.68v1.3h1.3v-1.3h-1.3zm-.24 0l-1.225.436.308.864h.917v-1.3zm-20.88-59.98h-19.92v2.6h19.92v-2.6zm-21.22 1.3v85.68h2.6V31.82h-2.6zm1.3 86.98h15.84v-2.6h-15.84v2.6zm17.14-1.3v-60h-2.6v60h2.6zm-1.3-58.7h.24v-2.6h-.24v2.6zm-.986-.868l21.12 60 2.452-.864-21.12-60-2.452.864zm22.346 60.868h19.68v-2.6h-19.68v2.6zm20.98-1.3V31.82h-2.6v85.68h2.6zm-1.3-86.98h-15.84v2.6h15.84v-2.6zm-17.14 1.3V90.5h2.6V31.82h-2.6zm1.3 57.38h-.24v2.6h.24v-2.6zm.985.864l-20.88-58.68-2.45.872 20.88 58.68 2.45-.872zm62.641-4.844v1.3h1.609l-.338-1.573-1.271.273zm-8.28-38.52l1.271-.273-.221-1.027h-1.05v1.3zm-.24 0v-1.3h-1.05l-.221 1.027 1.271.273zm-8.28 38.52l-1.271-.273-.338 1.573h1.609v-1.3zm19.08-53.4l1.257-.333-.256-.967h-1.001v1.3zm22.68 85.68v1.3h1.689l-.432-1.633-1.257.333zm-18 0l-1.27.278.223 1.022h1.047v-1.3zm-3.96-18.12l1.27-.278-.223-1.022h-1.047v1.3zm-22.8 0v-1.3h-1.047l-.223 1.022 1.27.278zm-3.96 18.12v1.3h1.047l.223-1.022-1.27-.278zm-18 0l-1.257-.333-.432 1.633h1.689v-1.3zm22.68-85.68v-1.3h-1.001l-.256.967 1.257.333zm20.351 53.127l-8.28-38.52-2.542.546 8.28 38.52 2.542-.546zM298.519 45.4h-.24V48h.24v-2.6zm-1.511 1.027l-8.28 38.52 2.542.546 8.28-38.52-2.542-.546zm-7.009 40.093h16.8v-2.6h-16.8v2.6zm17.823-54.367l22.68 85.68 2.514-.666-22.68-85.68-2.514.666zm23.937 84.047h-18v2.6h18v-2.6zm-16.73 1.022l-3.96-18.12-2.54.556 3.96 18.12 2.54-.556zm-5.23-19.142h-22.8v2.6h22.8v-2.6zm-24.07 1.022l-3.96 18.12 2.54.556 3.96-18.12-2.54-.556zm-2.69 17.098h-18v2.6h18v-2.6zm-16.743 1.633l22.68-85.68-2.514-.666-22.68 85.68 2.514.666zm21.423-84.713h21.36v-2.6h-21.36v2.6z" fill="#0094FF"/></g><g style="mix-blend-mode:hard-light" filter="url(#filter1_f)"><path d="M46.76 85.22v1.7h2.104l-.442-2.057-1.662.357zM38.48 46.7l1.662-.357L39.853 45H38.48v1.7zm-.24 0V45h-1.373l-.289 1.343 1.662.357zm-8.28 38.52l-1.662-.357-.442 2.057h2.104v-1.7zm19.08-53.4l1.643-.435-.334-1.265H49.04v1.7zm22.68 85.68v1.7h2.209l-.566-2.135-1.643.435zm-18 0l-1.66.363.291 1.337h1.369v-1.7zm-3.96-18.12l1.66-.363-.291-1.337H49.76v1.7zm-22.8 0v-1.7h-1.369l-.292 1.337 1.661.363zM23 117.5v1.7h1.369l.292-1.337L23 117.5zm-18 0l-1.643-.435-.566 2.135H5v-1.7zm22.68-85.68v-1.7h-1.308l-.335 1.265 1.643.435zm20.742 53.043l-8.28-38.52-3.324.714 8.28 38.52 3.324-.714zM38.48 45h-.24v3.4h.24V45zm-1.902 1.343l-8.28 38.52 3.324.714 8.28-38.52-3.324-.714zM29.96 86.92h16.8v-3.4h-16.8v3.4zm17.437-54.665l22.68 85.68 3.286-.87-22.68-85.68-3.286.87zM71.72 115.8h-18v3.4h18v-3.4zm-16.34 1.337l-3.96-18.12-3.32.726 3.96 18.12 3.32-.726zM49.76 97.68h-22.8v3.4h22.8v-3.4zM25.3 99.017l-3.96 18.12 3.32.726 3.96-18.12-3.32-.726zM23 115.8H5v3.4h18v-3.4zm-16.357 2.135l22.68-85.68-3.286-.87-22.68 85.68 3.286.87zM27.68 33.52h21.36v-3.4H27.68v3.4zm50-1.7v-1.7h-1.7v1.7h1.7zm0 85.68h-1.7v1.7h1.7v-1.7zm17.28 0v1.7h1.7v-1.7h-1.7zm0-36.24v-1.7h-1.7v1.7h1.7zm16.92 2.88l1.333-1.055-1.333 1.055zm2.52 7.92l1.699-.05v-.015l-.001-.016-1.698.081zm.48 16.44l-1.7.05.001.015.001.016 1.698-.081zm.48 4.92l-1.682.252.002.013 1.68-.265zm1.68 4.08l-1.371 1.005.509.695h.862v-1.7zm18.72 0v1.7h1.7v-1.7h-1.7zm0-.72h1.7v-1.005l-.881-.485-.819 1.49zm-3.12-4.92l-1.685.225.007.054.011.054 1.667-.333zm-.72-10.44l-1.699.059v.001l1.699-.06zm-.24-6.24l-1.699.07v.004l1.699-.074zm-.36-5.28l-1.692.17 1.692-.17zm-3.72-10.44l-1.248 1.155 1.248-1.155zm-9.48-4.2h-1.7v1.467l1.451.215.249-1.682zm0-.24l-.355-1.663-1.345.287v1.376h1.7zm10.8-6.96l1.429.92.004-.006.005-.007-1.438-.907zm-2.52-30.72l-1.151 1.251.007.006.006.007 1.138-1.264zM94.96 69.26h-1.7v1.7h1.7v-1.7zm0-24.72v-1.7h-1.7v1.7h1.7zm16.8 21.84l1.106 1.29.013-.01.013-.012-1.132-1.268zM75.98 31.82v85.68h3.4V31.82h-3.4zm1.7 87.38h17.28v-3.4H77.68v3.4zm18.98-1.7V81.26h-3.4v36.24h3.4zm-1.7-34.54h9.24v-3.4h-9.24v3.4zm9.24 0c3.333 0 5.279.886 6.347 2.235l2.666-2.11c-1.973-2.491-5.147-3.525-9.013-3.525v3.4zm6.347 2.235c1.23 1.555 2.005 3.811 2.155 6.946l3.396-.162c-.171-3.585-1.076-6.609-2.885-8.894l-2.666 2.11zm2.153 6.915l.48 16.44 3.399-.1-.48-16.44-3.399.1zm.482 16.471c.082 1.735.248 3.432.496 5.091l3.363-.504a47.038 47.038 0 01-.463-4.749l-3.396.162zm.498 5.104a10.928 10.928 0 001.989 4.82l2.742-2.01c-.715-.974-1.173-2.078-1.372-3.34l-3.359.53zm3.36 5.515h18.72v-3.4h-18.72v3.4zm20.42-1.7v-.72h-3.4v.72h3.4zm-.881-2.21c-1.024-.563-1.855-1.678-2.272-3.763l-3.334.666c.543 2.715 1.791 4.88 3.967 6.077l1.639-2.98zm-2.254-3.655c-.309-2.316-.547-5.731-.706-10.275l-3.398.12c.16 4.576.403 8.121.734 10.605l3.37-.45zm-.706-10.274c-.08-2.323-.161-4.409-.241-6.255l-3.397.148c.08 1.834.16 3.908.24 6.225l3.398-.118zm-.241-6.252a93.179 93.179 0 00-.367-5.378l-3.383.338a90.31 90.31 0 01.353 5.182l3.397-.142zm-.367-5.378c-.495-4.953-1.797-8.87-4.164-11.426l-2.495 2.31c1.633 1.764 2.811 4.807 3.276 9.454l3.383-.338zm-4.164-11.426c-2.364-2.553-5.953-4.056-10.478-4.727l-.498 3.364c4.115.61 6.845 1.906 8.481 3.673l2.495-2.31zm-9.027-3.045v-.24h-3.4v.24h3.4zm-1.346 1.423c5.244-1.118 9.269-3.659 11.875-7.702l-2.858-1.842c-2.035 3.157-5.209 5.256-9.726 6.218l.709 3.326zm11.884-7.716c2.538-4.027 3.742-9.088 3.742-15.067h-3.4c0 5.54-1.117 9.92-3.218 13.253l2.876 1.814zM134.1 53.9c0-7.73-2.084-13.792-6.563-17.824l-2.275 2.528c3.521 3.168 5.438 8.147 5.438 15.296h3.4zm-6.549-17.811c-4.405-4.052-10.466-5.969-17.951-5.969v3.4c6.915 0 12.053 1.763 15.649 5.071l2.302-2.502zM109.6 30.12H77.68v3.4h31.92v-3.4zM96.66 69.26V44.54h-3.4v24.72h3.4zm-1.7-23.02h8.16v-3.4h-8.16v3.4zm8.16 0c3.742 0 6.235.926 7.804 2.478 1.565 1.55 2.496 4.008 2.496 7.702h3.4c0-4.226-1.069-7.708-3.504-10.118-2.432-2.408-5.939-3.462-10.196-3.462v3.4zm10.3 10.18c0 4.418-1.072 7.155-2.793 8.692l2.265 2.536c2.759-2.463 3.928-6.366 3.928-11.228h-3.4zm-2.767 8.67c-1.826 1.565-4.574 2.47-8.493 2.47v3.4c4.401 0 8.052-1.015 10.706-3.29l-2.213-2.58zm-8.493 2.47h-7.2v3.4h7.2v-3.4zm90.079-35.74h1.7v-1.7h-1.7v1.7zm-47.88 0v-1.7h-1.7v1.7h1.7zm0 85.68h-1.7v1.7h1.7v-1.7zm49.08 0v1.7h1.7v-1.7h-1.7zm0-14.16h1.7v-1.7h-1.7v1.7zm-31.8 0h-1.7v1.7h1.7v-1.7zm0-23.04v-1.7h-1.7v1.7h1.7zm28.8 0V82h1.7v-1.7h-1.7zm0-14.16h1.7v-1.7h-1.7v1.7zm-28.8 0h-1.7v1.7h1.7v-1.7zm0-20.16v-1.7h-1.7v1.7h1.7zm30.6 0v1.7h1.7v-1.7h-1.7zm0-15.86h-47.88v3.4h47.88v-3.4zm-49.58 1.7v85.68h3.4V31.82h-3.4zm1.7 87.38h49.08v-3.4h-49.08v3.4zm50.78-1.7v-14.16h-3.4v14.16h3.4zm-1.7-15.86h-31.8v3.4h31.8v-3.4zm-30.1 1.7V80.3h-3.4v23.04h3.4zm-1.7-21.34h28.8v-3.4h-28.8V82zm30.5-1.7V66.14h-3.4V80.3h3.4zm-1.7-15.86h-28.8v3.4h28.8v-3.4zm-27.1 1.7V45.98h-3.4v20.16h3.4zm-1.7-18.46h30.6v-3.4h-30.6v3.4zm32.3-1.7V31.82h-3.4v14.16h3.4zm28.114-14.16l1.601-.57-.402-1.13h-1.199v1.7zm-19.92 0v-1.7h-1.7v1.7h1.7zm0 85.68h-1.7v1.7h1.7v-1.7zm15.84 0v1.7h1.7v-1.7h-1.7zm0-60v-1.7h-1.7v1.7h1.7zm.24 0l1.603-.565-.399-1.135h-1.204v1.7zm21.12 60l-1.604.564.4 1.136h1.204v-1.7zm19.68 0v1.7h1.7v-1.7h-1.7zm0-85.68h1.7v-1.7h-1.7v1.7zm-15.84 0v-1.7h-1.7v1.7h1.7zm0 58.68v1.7h1.7v-1.7h-1.7zm-.24 0l-1.602.57.402 1.13h1.2v-1.7zm-20.88-60.38h-19.92v3.4h19.92v-3.4zm-21.62 1.7v85.68h3.4V31.82h-3.4zm1.7 87.38h15.84v-3.4h-15.84v3.4zm17.54-1.7v-60h-3.4v60h3.4zm-1.7-58.3h.24v-3.4h-.24v3.4zm-1.364-1.136l21.12 60 3.207-1.128-21.12-60-3.207 1.129zm22.724 61.136h19.68v-3.4h-19.68v3.4zm21.38-1.7V31.82h-3.4v85.68h3.4zm-1.7-87.38h-15.84v3.4h15.84v-3.4zm-17.54 1.7V90.5h3.4V31.82h-3.4zm1.7 56.98h-.24v3.4h.24v-3.4zm1.361 1.13l-20.88-58.68-3.203 1.14 20.88 58.68 3.203-1.14zm62.265-4.71v1.7h2.104l-.442-2.057-1.662.357zm-8.28-38.52l1.662-.357-.289-1.343h-1.373v1.7zm-.24 0V45h-1.373l-.289 1.343 1.662.357zm-8.28 38.52l-1.662-.357-.442 2.057h2.104v-1.7zm19.08-53.4l1.643-.435-.334-1.265h-1.309v1.7zm22.68 85.68v1.7h2.209l-.566-2.135-1.643.435zm-18 0l-1.661.363.292 1.337h1.369v-1.7zm-3.96-18.12l1.661-.363-.292-1.337h-1.369v1.7zm-22.8 0v-1.7h-1.369l-.292 1.337 1.661.363zm-3.96 18.12v1.7h1.369l.292-1.337-1.661-.363zm-18 0l-1.643-.435-.565 2.135h2.208v-1.7zm22.68-85.68v-1.7h-1.308l-.335 1.265 1.643.435zm20.742 53.043l-8.28-38.52-3.324.714 8.28 38.52 3.324-.714zM298.519 45h-.24v3.4h.24V45zm-1.902 1.343l-8.28 38.52 3.324.714 8.28-38.52-3.324-.714zm-6.618 40.577h16.8v-3.4h-16.8v3.4zm17.437-54.665l22.68 85.68 3.286-.87-22.68-85.68-3.286.87zm24.323 83.545h-18v3.4h18v-3.4zm-16.339 1.337l-3.96-18.12-3.322.726 3.96 18.12 3.322-.726zm-5.621-19.457h-22.8v3.4h22.8v-3.4zm-24.461 1.337l-3.96 18.12 3.322.726 3.96-18.12-3.322-.726zm-2.299 16.783h-18v3.4h18v-3.4zm-16.357 2.135l22.68-85.68-3.286-.87-22.68 85.68 3.286.87zm21.037-84.415h21.36v-3.4h-21.36v3.4z" fill="#0094FF"/></g><g style="mix-blend-mode:hard-light" filter="url(#filter2_ddi)"><path d="M46.76 85.22v1.3h1.61l-.339-1.573-1.271.273zM38.48 46.7l1.271-.273-.22-1.027H38.48v1.3zm-.24 0v-1.3h-1.05l-.221 1.027 1.271.273zm-8.28 38.52l-1.271-.273-.338 1.573h1.609v-1.3zm19.08-53.4l1.257-.333-.256-.967H49.04v1.3zm22.68 85.68v1.3h1.689l-.432-1.633-1.257.333zm-18 0l-1.27.278.223 1.022h1.047v-1.3zm-3.96-18.12l1.27-.278-.223-1.022H49.76v1.3zm-22.8 0v-1.3h-1.047l-.223 1.022 1.27.278zM23 117.5v1.3h1.047l.223-1.022L23 117.5zm-18 0l-1.257-.333-.432 1.633H5v-1.3zm22.68-85.68v-1.3h-1l-.257.967 1.257.333zm20.351 53.127l-8.28-38.52-2.542.546 8.28 38.52 2.542-.546zM38.48 45.4h-.24V48h.24v-2.6zm-1.511 1.027l-8.28 38.52 2.542.546 8.28-38.52-2.542-.546zM29.96 86.52h16.8v-2.6h-16.8v2.6zm17.823-54.367l22.68 85.68 2.514-.666-22.68-85.68-2.514.666zM71.72 116.2h-18v2.6h18v-2.6zm-16.73 1.022l-3.96-18.12-2.54.556 3.96 18.12 2.54-.556zM49.76 98.08h-22.8v2.6h22.8v-2.6zm-24.07 1.022l-3.96 18.12 2.54.556 3.96-18.12-2.54-.556zM23 116.2H5v2.6h18v-2.6zm-16.743 1.633l22.68-85.68-2.514-.666-22.68 85.68 2.514.666zM27.68 33.12h21.36v-2.6H27.68v2.6zm50-1.3v-1.3h-1.3v1.3h1.3zm0 85.68h-1.3v1.3h1.3v-1.3zm17.28 0v1.3h1.3v-1.3h-1.3zm0-36.24v-1.3h-1.3v1.3h1.3zm16.92 2.88l1.019-.807-1.019.807zm2.52 7.92l1.299-.038v-.012l-.001-.012-1.298.062zm.48 16.44l-1.3.038.001.012v.012l1.299-.062zm.48 4.92l-1.286.193.002.01 1.284-.203zm1.68 4.08l-1.049.769.39.531h.659v-1.3zm18.72 0v1.3h1.3v-1.3h-1.3zm0-.72h1.3v-.769l-.674-.37-.626 1.139zm-3.12-4.92l-1.289.172.006.042.008.041 1.275-.255zm-.72-10.44l-1.3.045v.001l1.3-.046zm-.24-6.24l-1.299.054v.003l1.299-.057zm-.36-5.28l-1.294.13 1.294-.13zm-3.72-10.44l-.954.883.954-.883zm-9.48-4.2h-1.3v1.122l1.109.164.191-1.286zm0-.24l-.271-1.271-1.029.219v1.052h1.3zm10.8-6.96l1.092.704.007-.01-1.099-.694zm-2.52-30.72l-.88.957.005.005.005.004.87-.966zM94.96 69.26h-1.3v1.3h1.3v-1.3zm0-24.72v-1.3h-1.3v1.3h1.3zm16.8 21.84l.846.987.01-.008.01-.01-.866-.969zM76.38 31.82v85.68h2.6V31.82h-2.6zm1.3 86.98h17.28v-2.6H77.68v2.6zm18.58-1.3V81.26h-2.6v36.24h2.6zm-1.3-34.94h9.24v-2.6h-9.24v2.6zm9.24 0c3.396 0 5.486.904 6.66 2.387l2.039-1.614c-1.866-2.357-4.895-3.373-8.699-3.373v2.6zm6.66 2.387c1.299 1.64 2.089 3.987 2.241 7.175l2.597-.124c-.168-3.532-1.058-6.465-2.799-8.665l-2.039 1.614zm2.24 7.15l.48 16.441 2.599-.076-.48-16.44-2.599.076zm.481 16.465a50.03 50.03 0 00.493 5.051l2.571-.386a47.57 47.57 0 01-.467-4.789l-2.597.124zm.495 5.061a10.536 10.536 0 001.915 4.646l2.097-1.538c-.753-1.027-1.235-2.191-1.444-3.514l-2.568.406zm2.964 5.177h18.72v-2.6h-18.72v2.6zm20.02-1.3v-.72h-2.6v.72h2.6zm-.674-1.859c-1.159-.638-2.04-1.876-2.472-4.036l-2.549.51c.528 2.64 1.728 4.682 3.768 5.804l1.253-2.278zm-2.458-3.953c-.311-2.336-.55-5.766-.709-10.314l-2.599.092c.161 4.572.403 8.102.731 10.566l2.577-.344zm-.709-10.313a668.36 668.36 0 00-.241-6.251l-2.597.113c.08 1.835.16 3.91.239 6.228l2.599-.09zm-.24-6.25a93.071 93.071 0 00-.366-5.354l-2.587.258c.157 1.571.276 3.306.355 5.205l2.598-.108zm-.366-5.354c-.491-4.917-1.779-8.731-4.059-11.194l-1.908 1.766c1.719 1.857 2.912 5.003 3.38 9.686l2.587-.258zm-4.059-11.194c-2.279-2.46-5.767-3.94-10.244-4.603l-.381 2.572c4.164.617 6.995 1.938 8.717 3.797l1.908-1.766zm-9.134-3.317v-.24h-2.6v.24h2.6zm-1.029 1.031c5.158-1.099 9.083-3.588 11.621-7.527l-2.185-1.408c-2.102 3.26-5.376 5.412-9.978 6.393l.542 2.543zm11.628-7.538c2.487-3.944 3.681-8.925 3.681-14.853h-2.6c0 5.592-1.127 10.051-3.28 13.467l2.199 1.386zM133.7 53.9c0-7.662-2.064-13.596-6.431-17.526l-1.739 1.932c3.634 3.27 5.57 8.376 5.57 15.594h2.6zm-6.42-17.517c-4.309-3.964-10.263-5.863-17.68-5.863v2.6c6.982 0 12.229 1.781 15.92 5.177l1.76-1.914zM109.6 30.52H77.68v2.6h31.92v-2.6zM96.26 69.26V44.54h-2.6v24.72h2.6zm-1.3-23.42h8.16v-2.6h-8.16v2.6zm8.16 0c3.803 0 6.415.94 8.085 2.594 1.667 1.65 2.615 4.23 2.615 7.986h2.6c0-4.164-1.053-7.525-3.386-9.834-2.33-2.307-5.717-3.346-9.914-3.346v2.6zm10.7 10.58c0 4.47-1.083 7.345-2.926 8.99l1.732 1.94c2.637-2.355 3.794-6.12 3.794-10.93h-2.6zm-2.906 8.973c-1.924 1.649-4.779 2.567-8.754 2.567v2.6c4.344 0 7.889-1.002 10.446-3.193l-1.692-1.974zm-8.754 2.567h-7.2v2.6h7.2v-2.6zm90.079-36.14h1.3v-1.3h-1.3v1.3zm-47.88 0v-1.3h-1.3v1.3h1.3zm0 85.68h-1.3v1.3h1.3v-1.3zm49.08 0v1.3h1.3v-1.3h-1.3zm0-14.16h1.3v-1.3h-1.3v1.3zm-31.8 0h-1.3v1.3h1.3v-1.3zm0-23.04V79h-1.3v1.3h1.3zm28.8 0v1.3h1.3v-1.3h-1.3zm0-14.16h1.3v-1.3h-1.3v1.3zm-28.8 0h-1.3v1.3h1.3v-1.3zm0-20.16v-1.3h-1.3v1.3h1.3zm30.6 0v1.3h1.3v-1.3h-1.3zm0-15.46h-47.88v2.6h47.88v-2.6zm-49.18 1.3v85.68h2.6V31.82h-2.6zm1.3 86.98h49.08v-2.6h-49.08v2.6zm50.38-1.3v-14.16h-2.6v14.16h2.6zm-1.3-15.46h-31.8v2.6h31.8v-2.6zm-30.5 1.3V80.3h-2.6v23.04h2.6zm-1.3-21.74h28.8V79h-28.8v2.6zm30.1-1.3V66.14h-2.6V80.3h2.6zm-1.3-15.46h-28.8v2.6h28.8v-2.6zm-27.5 1.3V45.98h-2.6v20.16h2.6zm-1.3-18.86h30.6v-2.6h-30.6v2.6zm31.9-1.3V31.82h-2.6v14.16h2.6zm28.514-14.16l1.225-.436-.308-.864h-.917v1.3zm-19.92 0v-1.3h-1.3v1.3h1.3zm0 85.68h-1.3v1.3h1.3v-1.3zm15.84 0v1.3h1.3v-1.3h-1.3zm0-60v-1.3h-1.3v1.3h1.3zm.24 0l1.226-.432-.306-.868h-.92v1.3zm21.12 60l-1.226.432.305.868h.921v-1.3zm19.68 0v1.3h1.3v-1.3h-1.3zm0-85.68h1.3v-1.3h-1.3v1.3zm-15.84 0v-1.3h-1.3v1.3h1.3zm0 58.68v1.3h1.3v-1.3h-1.3zm-.24 0l-1.225.436.308.864h.917v-1.3zm-20.88-59.98h-19.92v2.6h19.92v-2.6zm-21.22 1.3v85.68h2.6V31.82h-2.6zm1.3 86.98h15.84v-2.6h-15.84v2.6zm17.14-1.3v-60h-2.6v60h2.6zm-1.3-58.7h.24v-2.6h-.24v2.6zm-.986-.868l21.12 60 2.452-.864-21.12-60-2.452.864zm22.346 60.868h19.68v-2.6h-19.68v2.6zm20.98-1.3V31.82h-2.6v85.68h2.6zm-1.3-86.98h-15.84v2.6h15.84v-2.6zm-17.14 1.3V90.5h2.6V31.82h-2.6zm1.3 57.38h-.24v2.6h.24v-2.6zm.985.864l-20.88-58.68-2.45.872 20.88 58.68 2.45-.872zm62.641-4.844v1.3h1.609l-.338-1.573-1.271.273zm-8.28-38.52l1.271-.273-.221-1.027h-1.05v1.3zm-.24 0v-1.3h-1.05l-.221 1.027 1.271.273zm-8.28 38.52l-1.271-.273-.338 1.573h1.609v-1.3zm19.08-53.4l1.257-.333-.256-.967h-1.001v1.3zm22.68 85.68v1.3h1.689l-.432-1.633-1.257.333zm-18 0l-1.27.278.223 1.022h1.047v-1.3zm-3.96-18.12l1.27-.278-.223-1.022h-1.047v1.3zm-22.8 0v-1.3h-1.047l-.223 1.022 1.27.278zm-3.96 18.12v1.3h1.047l.223-1.022-1.27-.278zm-18 0l-1.257-.333-.432 1.633h1.689v-1.3zm22.68-85.68v-1.3h-1.001l-.256.967 1.257.333zm20.351 53.127l-8.28-38.52-2.542.546 8.28 38.52 2.542-.546zM298.519 45.4h-.24V48h.24v-2.6zm-1.511 1.027l-8.28 38.52 2.542.546 8.28-38.52-2.542-.546zm-7.009 40.093h16.8v-2.6h-16.8v2.6zm17.823-54.367l22.68 85.68 2.514-.666-22.68-85.68-2.514.666zm23.937 84.047h-18v2.6h18v-2.6zm-16.73 1.022l-3.96-18.12-2.54.556 3.96 18.12 2.54-.556zm-5.23-19.142h-22.8v2.6h22.8v-2.6zm-24.07 1.022l-3.96 18.12 2.54.556 3.96-18.12-2.54-.556zm-2.69 17.098h-18v2.6h18v-2.6zm-16.743 1.633l22.68-85.68-2.514-.666-22.68 85.68 2.514.666zm21.423-84.713h21.36v-2.6h-21.36v2.6z" fill="#00B3FF" fill-opacity=".2"/></g><g filter="url(#filter3_f)"><path d="M46.76 85.22v.8h.99l-.208-.968-.782.168zM38.48 46.7l.782-.168-.136-.632h-.646v.8zm-.24 0v-.8h-.646l-.136.632.782.168zm-8.28 38.52l-.782-.168-.208.968h.99v-.8zm19.08-53.4l.773-.205-.157-.595h-.616v.8zm22.68 85.68v.8h1.04l-.267-1.005-.773.205zm-18 0l-.782.171.138.629h.644v-.8zm-3.96-18.12l.782-.17-.138-.63h-.644v.8zm-22.8 0v-.8h-.644l-.138.63.782.17zM23 117.5v.8h.644l.138-.629L23 117.5zm-18 0l-.773-.205-.266 1.005H5v-.8zm22.68-85.68v-.8h-.616l-.157.595.773.205zm19.862 53.232l-8.28-38.52-1.564.336 8.28 38.52 1.564-.336zM38.48 45.9h-.24v1.6h.24v-1.6zm-1.022.632l-8.28 38.52 1.564.336 8.28-38.52-1.564-.336zM29.96 86.02h16.8v-1.6h-16.8v1.6zm18.307-53.995l22.68 85.68 1.546-.41-22.68-85.68-1.546.41zM71.72 116.7h-18v1.6h18v-1.6zm-17.218.629l-3.96-18.12-1.564.342 3.96 18.12 1.564-.342zM49.76 98.58h-22.8v1.6h22.8v-1.6zm-23.582.63l-3.96 18.119 1.564.342 3.96-18.12-1.564-.342zM23 116.7H5v1.6h18v-1.6zm-17.227 1.005l22.68-85.68-1.546-.41-22.68 85.68 1.546.41zM27.68 32.62h21.36v-1.6H27.68v1.6zm50-.8v-.8h-.8v.8h.8zm0 85.68h-.8v.8h.8v-.8zm17.28 0v.8h.8v-.8h-.8zm0-36.24v-.8h-.8v.8h.8zm16.92 2.88l.627-.497-.627.497zm2.52 7.92l.799-.023v-.015l-.799.038zm.48 16.44l-.8.023v.008l.001.007.799-.038zm.48 4.92l-.791.119v.006l.791-.125zm1.68 4.08l-.645.473.239.327h.406v-.8zm18.72 0v.8h.8v-.8h-.8zm0-.72h.8v-.473l-.415-.228-.385.701zm-3.12-4.92l-.793.106.003.025.005.026.785-.157zm-.72-10.44l-.8.028.8-.028zm-.24-6.24l-.8.033v.002l.8-.035zm-.36-5.28l-.796.08.796-.08zm-3.72-10.44l-.587.544.587-.544zm-9.48-4.2h-.8v.69l.682.101.118-.791zm0-.24l-.167-.782-.633.135v.647h.8zm10.8-6.96l.672.433.004-.006-.676-.427zm-2.52-30.72l-.542.589.007.006.535-.595zM94.96 69.26h-.8v.8h.8v-.8zm0-24.72v-.8h-.8v.8h.8zm16.8 21.84l.52.607.006-.005.007-.005-.533-.597zM76.88 31.82v85.68h1.6V31.82h-1.6zm.8 86.48h17.28v-1.6H77.68v1.6zm18.08-.8V81.26h-1.6v36.24h1.6zm-.8-35.44h9.24v-1.6h-9.24v1.6zm9.24 0c3.474 0 5.745.925 7.052 2.577l1.255-.994c-1.733-2.188-4.582-3.183-8.307-3.183v1.6zm7.052 2.577c1.384 1.748 2.194 4.207 2.349 7.461l1.598-.076c-.165-3.466-1.036-6.287-2.692-8.379l-1.255.994zm2.348 7.446l.48 16.44 1.599-.046-.48-16.44-1.599.046zm.481 16.455c.081 1.706.243 3.373.488 5.001l1.582-.238a48.008 48.008 0 01-.472-4.839l-1.598.076zm.488 5.007c.26 1.641.868 3.122 1.826 4.428l1.29-.946a8.43 8.43 0 01-1.535-3.732l-1.581.25zm2.471 4.755h18.72v-1.6h-18.72v1.6zm19.52-.8v-.72h-1.6v.72h1.6zm-.415-1.421c-1.329-.731-2.27-2.124-2.721-4.376l-1.569.314c.51 2.548 1.648 4.435 3.519 5.464l.771-1.402zm-2.712-4.325c-.315-2.361-.554-5.81-.714-10.362l-1.599.056c.16 4.568.401 8.079.727 10.518l1.586-.212zm-.714-10.362c-.08-2.321-.16-4.404-.24-6.247l-1.599.07c.08 1.837.16 3.914.24 6.233l1.599-.056zm-.24-6.245a92.8 92.8 0 00-.363-5.327l-1.592.16c.158 1.582.277 3.326.356 5.233l1.599-.066zm-.363-5.327c-.487-4.871-1.757-8.557-3.929-10.903l-1.174 1.087c1.827 1.973 3.038 5.247 3.511 9.976l1.592-.16zm-3.929-10.903c-2.172-2.345-5.534-3.794-9.95-4.448l-.235 1.582c4.224.626 7.182 1.977 9.011 3.953l1.174-1.088zm-9.267-3.657v-.24h-1.6v.24h1.6zm-.634.542c5.052-1.076 8.852-3.5 11.306-7.309l-1.345-.866c-2.185 3.391-5.585 5.607-10.294 6.61l.333 1.565zm11.31-7.315c2.423-3.843 3.604-8.724 3.604-14.587h-1.6c0 5.657-1.14 10.216-3.357 13.733l1.353.854zM133.2 53.9c0-7.577-2.04-13.352-6.265-17.155l-1.07 1.19c3.774 3.397 5.735 8.662 5.735 15.965h1.6zm-6.259-17.149c-4.19-3.855-10.007-5.731-17.341-5.731v1.6c7.066 0 12.448 1.804 16.258 5.309l1.083-1.178zM109.6 31.02H77.68v1.6h31.92v-1.6zM95.76 69.26V44.54h-1.6v24.72h1.6zm-.8-23.92h8.16v-1.6h-8.16v1.6zm8.16 0c3.878 0 6.64.96 8.437 2.738 1.795 1.778 2.763 4.507 2.763 8.342h1.6c0-4.085-1.033-7.296-3.237-9.479-2.204-2.18-5.442-3.201-9.563-3.201v1.6zm11.2 11.08c0 4.536-1.097 7.581-3.093 9.363l1.066 1.194c2.484-2.218 3.627-5.813 3.627-10.557h-1.6zm-3.081 9.353c-2.045 1.753-5.033 2.687-9.079 2.687v1.6c4.273 0 7.686-.986 10.12-3.073l-1.041-1.214zm-9.079 2.687h-7.2v1.6h7.2v-1.6zm90.079-36.64h.8v-.8h-.8v.8zm-47.88 0v-.8h-.8v.8h.8zm0 85.68h-.8v.8h.8v-.8zm49.08 0v.8h.8v-.8h-.8zm0-14.16h.8v-.8h-.8v.8zm-31.8 0h-.8v.8h.8v-.8zm0-23.04v-.8h-.8v.8h.8zm28.8 0v.8h.8v-.8h-.8zm0-14.16h.8v-.8h-.8v.8zm-28.8 0h-.8v.8h.8v-.8zm0-20.16v-.8h-.8v.8h.8zm30.6 0v.8h.8v-.8h-.8zm0-14.96h-47.88v1.6h47.88v-1.6zm-48.68.8v85.68h1.6V31.82h-1.6zm.8 86.48h49.08v-1.6h-49.08v1.6zm49.88-.8v-14.16h-1.6v14.16h1.6zm-.8-14.96h-31.8v1.6h31.8v-1.6zm-31 .8V80.3h-1.6v23.04h1.6zm-.8-22.24h28.8v-1.6h-28.8v1.6zm29.6-.8V66.14h-1.6V80.3h1.6zm-.8-14.96h-28.8v1.6h28.8v-1.6zm-28 .8V45.98h-1.6v20.16h1.6zm-.8-19.36h30.6v-1.6h-30.6v1.6zm31.4-.8V31.82h-1.6v14.16h1.6zm29.014-14.16l.754-.268-.19-.532h-.564v.8zm-19.92 0v-.8h-.8v.8h.8zm0 85.68h-.8v.8h.8v-.8zm15.84 0v.8h.8v-.8h-.8zm0-60v-.8h-.8v.8h.8zm.24 0l.754-.266-.188-.534h-.566v.8zm21.12 60l-.755.266.188.534h.567v-.8zm19.68 0v.8h.8v-.8h-.8zm0-85.68h.8v-.8h-.8v.8zm-15.84 0v-.8h-.8v.8h.8zm0 58.68v.8h.8v-.8h-.8zm-.24 0l-.754.268.189.532h.565v-.8zm-20.88-59.48h-19.92v1.6h19.92v-1.6zm-20.72.8v85.68h1.6V31.82h-1.6zm.8 86.48h15.84v-1.6h-15.84v1.6zm16.64-.8v-60h-1.6v60h1.6zm-.8-59.2h.24v-1.6h-.24v1.6zm-.515-.534l21.12 60 1.509-.532-21.12-60-1.509.532zm21.875 60.534h19.68v-1.6h-19.68v1.6zm20.48-.8V31.82h-1.6v85.68h1.6zm-.8-86.48h-15.84v1.6h15.84v-1.6zm-16.64.8V90.5h1.6V31.82h-1.6zm.8 57.88h-.24v1.6h.24v-1.6zm.514.532l-20.88-58.68-1.508.536 20.88 58.68 1.508-.536zm63.112-5.012v.8h.99l-.208-.968-.782.168zm-8.28-38.52l.782-.168-.136-.632h-.646v.8zm-.24 0v-.8h-.646l-.136.632.782.168zm-8.28 38.52l-.782-.168-.208.968h.99v-.8zm19.08-53.4l.773-.205-.157-.595h-.616v.8zm22.68 85.68v.8h1.039l-.266-1.005-.773.205zm-18 0l-.781.171.137.629h.644v-.8zm-3.96-18.12l.782-.17-.138-.63h-.644v.8zm-22.8 0v-.8h-.644l-.138.63.782.17zm-3.96 18.12v.8h.644l.138-.629-.782-.171zm-18 0l-.773-.205L264 118.3h1.039v-.8zm22.68-85.68v-.8h-.616l-.157.595.773.205zm19.862 53.232l-8.28-38.52-1.564.336 8.28 38.52 1.564-.336zM298.519 45.9h-.24v1.6h.24v-1.6zm-1.022.632l-8.28 38.52 1.564.336 8.28-38.52-1.564-.336zm-7.498 39.488h16.8v-1.6h-16.8v1.6zm18.307-53.995l22.68 85.68 1.546-.41-22.68-85.68-1.546.41zm23.453 84.675h-18v1.6h18v-1.6zm-17.218.629l-3.96-18.12-1.563.342 3.96 18.12 1.563-.342zm-4.742-18.749h-22.8v1.6h22.8v-1.6zm-23.582.63l-3.959 18.119 1.563.342 3.96-18.12-1.564-.342zm-3.178 17.49h-18v1.6h18v-1.6zm-17.227 1.005l22.68-85.68-1.546-.41-22.68 85.68 1.546.41zm21.907-85.085h21.36v-1.6h-21.36v1.6z" fill="#82D9FF"/></g><defs><filter id="filter0_f" x=".281" y="27.49" width="336.197" height="94.34" filterUnits="userSpaceOnUse" color-interpolation-filters="sRGB"><feFlood flood-opacity="0" result="BackgroundImageFix"/><feBlend in="SourceGraphic" in2="BackgroundImageFix" result="shape"/><feGaussianBlur stdDeviation="1.515" result="effect1_foregroundBlur"/></filter><filter id="filter1_f" x="1.782" y="29.11" width="333.196" height="91.1" filterUnits="userSpaceOnUse" color-interpolation-filters="sRGB"><feFlood flood-opacity="0" result="BackgroundImageFix"/><feBlend in="SourceGraphic" in2="BackgroundImageFix" result="shape"/><feGaussianBlur stdDeviation=".505" result="effect1_foregroundBlur"/></filter><filter id="filter2_ddi" x="1.998" y="30.217" width="332.763" height="90.906" filterUnits="userSpaceOnUse" color-interpolation-filters="sRGB"><feFlood flood-opacity="0" result="BackgroundImageFix"/><feColorMatrix in="SourceAlpha" values="0 0 0 0 0 0 0 0 0 0 0 0 0 0 0 0 0 0 127 0"/><feOffset dy="1.3"/><feGaussianBlur stdDeviation=".5"/><feColorMatrix values="0 0 0 0 0 0 0 0 0 0.051 0 0 0 0 0.082 0 0 0 0.7 0"/><feBlend mode="multiply" in2="BackgroundImageFix" result="effect1_dropShadow"/><feColorMatrix in="SourceAlpha" values="0 0 0 0 0 0 0 0 0 0 0 0 0 0 0 0 0 0 127 0"/><feOffset dy="1.01"/><feGaussianBlur stdDeviation=".656"/><feColorMatrix values="0 0 0 0 0 0 0 0 0 0.4 0 0 0 0 1 0 0 0 1 0"/><feBlend mode="color-dodge" in2="effect1_dropShadow" result="effect2_dropShadow"/><feBlend in="SourceGraphic" in2="effect2_dropShadow" result="shape"/><feColorMatrix in="SourceAlpha" values="0 0 0 0 0 0 0 0 0 0 0 0 0 0 0 0 0 0 127 0" result="hardAlpha"/><feOffset dx="-.13" dy=".26"/><feGaussianBlur stdDeviation=".065"/><feComposite in2="hardAlpha" operator="arithmetic" k2="-1" k3="1"/><feColorMatrix values="0 0 0 0 1 0 0 0 0 1 0 0 0 0 1 0 0 0 0.5 0"/><feBlend in2="shape" result="effect3_innerShadow"/></filter><filter id="filter3_f" x="3.76" y="30.82" width="329.238" height="87.68" filterUnits="userSpaceOnUse" color-interpolation-filters="sRGB"><feFlood flood-opacity="0" result="BackgroundImageFix"/><feBlend in="SourceGraphic" in2="BackgroundImageFix" result="shape"/><feGaussianBlur stdDeviation=".1" result="effect1_foregroundBlur"/></filter></defs></svg>