<svg width="661" height="127" fill="none" xmlns="http://www.w3.org/2000/svg"><path fill-rule="evenodd" clip-rule="evenodd" d="M46.34 3h28.514l42.86 115h-31.03l-8.236-24.331H41.8L33.26 118H3L46.34 3zm-6.564 87.8h40.72l8.236 24.331h24.859L72.871 5.869H48.317L7.139 115.131h24.096l8.54-24.332zm6.253-17.905h28.214L60.517 32.802h-.305L46.03 72.895zm4.05-2.87h20.158l-9.914-28.959-10.245 28.96zM120.121 3h29.663v89.062h53.074V118h-82.737V3zm79.877 91.931v20.2H122.98V5.869h23.945v89.062h53.073zM210.526 3h29.664v89.062h53.074V118h-82.738V3zm79.878 91.931v20.2h-77.018V5.869h23.944v89.062h53.074zm111.652-66.26c-3.965-1.735-8.896-2.602-14.793-2.602h-17.082V94.93h21.352a30.66 30.66 0 0010.066-1.683c3.253-1.122 6.151-2.959 8.693-5.51 2.542-2.652 4.575-6.07 6.1-10.252 1.525-4.183 2.288-9.284 2.288-15.303 0-5.509-.559-10.457-1.678-14.843-1.016-4.49-2.745-8.315-5.185-11.477-2.44-3.163-5.694-5.56-9.761-7.193zm6.194 57.059c2.207-2.31 4.044-5.356 5.457-9.23 1.377-3.777 2.113-8.523 2.113-14.317 0-5.319-.54-10.022-1.588-14.132l-.01-.038-.008-.038c-.938-4.142-2.509-7.57-4.658-10.356-2.098-2.719-4.92-4.823-8.562-6.285l-.04-.016-.04-.017c-3.5-1.53-8.013-2.363-13.651-2.363h-14.222v63.124h18.492c3.142 0 6.183-.51 9.136-1.528 2.816-.97 5.338-2.559 7.581-4.805zM343.378 3h49.833c7.321 0 14.167 1.172 20.513 3.545 6.476 2.383 12.073 5.974 16.75 10.773 4.796 4.816 8.456 10.79 11.019 17.853 2.687 7.126 3.991 15.385 3.991 24.717 0 8.203-1.048 15.832-3.173 22.868-2.136 7.07-5.412 13.24-9.854 18.463-4.358 5.243-9.842 9.369-16.397 12.388l-.01.004-.009.005c-6.549 2.956-14.185 4.384-22.83 4.384h-49.833V3zm86.893 96.369c4.168-4.897 7.269-10.712 9.303-17.445 2.033-6.733 3.05-14.079 3.05-22.036 0-9.08-1.271-16.986-3.813-23.72-2.44-6.732-5.897-12.343-10.37-16.832-4.372-4.49-9.608-7.856-15.709-10.1-5.999-2.245-12.506-3.367-19.521-3.367h-46.974v109.262h46.974c8.337 0 15.556-1.378 21.656-4.132 6.202-2.857 11.337-6.733 15.404-11.63zM487.044 3h28.514l42.859 115h-31.031l-8.235-24.331h-36.647L473.963 118h-30.26L487.044 3zm-6.565 87.8H521.2l8.235 24.331h24.859L513.574 5.869H489.02l-41.178 109.262h24.097l8.54-24.332zm6.253-17.905h28.215l-13.726-40.093h-.305l-14.184 40.093zm4.049-2.87h20.16l-9.915-28.959-10.245 28.96zm113.743 3.176v41.93H580.58V72.589L540.622 5.87h26.842l25.469 43.154L618.25 5.869h26.69l-40.416 67.332zM592.926 43.38L569.094 3h-33.527l42.153 70.385V118h29.664V73.999L650 3h-33.385l-23.689 40.38z" fill="#0036D7"/><g filter="url(#filter0_d)"><g style="mix-blend-mode:hard-light" filter="url(#filter1_f)"><path fill-rule="evenodd" clip-rule="evenodd" d="M47.598 5h27.138l42.124 113H87.98l-8.238-24.333H41.656L33.112 118H5L47.598 5zM40.34 91.802h40.734l8.238 24.333h24.868L73.446 6.865H48.883L7.691 116.135h24.105l8.544-24.333zm6.255-17.906h28.224L61.088 33.8h-.305L46.595 73.896zm2.633-1.865h22.986L60.909 39.019 49.228 72.03zM121.714 5h27.671v89.069h53.092V118h-80.763V5zm78.904 90.934v20.201h-77.045V6.865h23.953v89.069h53.092zM212.149 5h27.671v89.069h53.092V118h-80.763V5zm78.904 90.934v20.201h-77.044V6.865h23.952v89.069h53.092zm111.69-66.266c-3.966-1.735-8.899-2.602-14.798-2.602h-17.087v68.868h21.359c3.458 0 6.814-.561 10.069-1.684 3.254-1.122 6.153-2.958 8.696-5.51 2.543-2.652 4.577-6.07 6.102-10.253 1.526-4.183 2.289-9.284 2.289-15.304 0-5.509-.56-10.457-1.678-14.844-1.017-4.49-2.747-8.315-5.188-11.478-2.441-3.163-5.695-5.56-9.764-7.193zm6.911 57.767c2.325-2.43 4.232-5.606 5.684-9.588 1.43-3.92 2.175-8.79 2.175-14.664 0-5.385-.547-10.174-1.62-14.382l-.006-.024-.005-.025c-.967-4.264-2.593-7.832-4.845-10.75-2.218-2.874-5.192-5.08-8.984-6.602l-.027-.01-.026-.012c-3.663-1.602-8.324-2.447-14.055-2.447h-15.228V94.07h19.5c3.253 0 6.405-.528 9.464-1.583 2.97-1.024 5.624-2.699 7.973-5.051zM345.046 5h48.849c7.216 0 13.947 1.154 20.173 3.483 6.347 2.335 11.819 5.847 16.391 10.538 4.684 4.701 8.275 10.548 10.795 17.496 2.638 6.99 3.931 15.126 3.931 24.37 0 8.118-1.038 15.649-3.132 22.58-2.1 6.953-5.317 13-9.665 18.108-4.258 5.123-9.62 9.161-16.054 12.123l-.006.003-.006.003c-6.394 2.886-13.887 4.296-22.427 4.296h-48.849V5zm94.465 32.167c-2.441-6.734-5.899-12.345-10.374-16.834-4.374-4.49-9.612-7.856-15.714-10.101-6.001-2.245-12.51-3.367-19.528-3.367h-46.99v109.27h46.99c8.34 0 15.561-1.378 21.664-4.132 6.204-2.857 11.34-6.734 15.409-11.631 4.17-4.897 7.272-10.713 9.306-17.447 2.034-6.733 3.051-14.08 3.051-22.037 0-9.08-1.271-16.987-3.814-23.721zM488.452 5h27.137l42.125 113h-28.88l-8.239-24.333h-38.086L473.966 118h-28.112L488.452 5zm-7.259 86.802h40.734l8.239 24.333h24.868L514.299 6.865h-24.562l-41.192 109.27h24.105l8.543-24.333zm6.255-17.906h28.224L501.942 33.8h-.306l-14.188 40.096zm2.633-1.865h22.987l-11.305-33.012-11.682 33.012zm115.199 2.171v41.933h-23.952V73.59L541.356 6.865h26.852l25.478 43.157 25.325-43.157h26.699l-40.43 67.337zm-11.599-27.848L569.267 5H538.07l41.399 69.107V118h27.671V74.72L649 5h-31.052l-24.267 41.354z" fill="#0094FF"/></g><g style="mix-blend-mode:hard-light" filter="url(#filter2_f)"><path fill-rule="evenodd" clip-rule="evenodd" d="M47.042 5h27.936l42.563 114H87.419l-8.24-24.302h-37.28L33.352 119H4L47.042 5zm-6.866 87.262h40.745l8.24 24.302h24.874L73.291 7.436H48.722L7.52 116.564h24.11l8.546-24.302zm6.257-17.882h28.231L60.93 34.336h-.305L46.433 74.38zm3.444-2.436h21.38L60.742 41.286 49.877 71.944zM121 5h28.822v88.953h53.105V119H121V5zm79.495 91.39v20.174h-77.063V7.436h23.958v88.953h53.105zM211.456 5h28.823v88.953h53.105V119h-81.928V5zm79.496 91.39v20.174h-77.063V7.436h23.958v88.953h53.105zM402.67 30.21c-3.968-1.733-8.902-2.6-14.802-2.6h-17.092v68.78h21.364c3.459 0 6.817-.561 10.072-1.682 3.256-1.12 6.155-2.955 8.698-5.502 2.544-2.65 4.578-6.063 6.104-10.24 1.526-4.178 2.289-9.273 2.289-15.285 0-5.502-.559-10.444-1.678-14.825-1.018-4.484-2.747-8.305-5.189-11.463-2.441-3.159-5.697-5.553-9.766-7.184zm6.504 57.29c2.258-2.358 4.126-5.456 5.556-9.372 1.401-3.833 2.141-8.627 2.141-14.447 0-5.34-.543-10.075-1.602-14.222l-.009-.031-.007-.032c-.95-4.19-2.545-7.673-4.74-10.512-2.15-2.782-5.038-4.928-8.746-6.413l-.035-.014-.034-.015c-3.571-1.559-8.15-2.395-13.83-2.395h-14.66v63.906h18.932a28.29 28.29 0 009.281-1.549c2.883-.992 5.463-2.615 7.753-4.904zM344.386 5h49.433c7.279 0 14.078 1.163 20.375 3.513 6.425 2.36 11.971 5.913 16.605 10.66 4.75 4.76 8.382 10.673 10.928 17.677 2.667 7.06 3.967 15.256 3.967 24.539 0 8.156-1.044 15.733-3.157 22.715-2.121 7.012-5.373 13.121-9.777 18.288-4.317 5.185-9.751 9.268-16.257 12.259l-.008.004-.009.004c-6.485 2.923-14.063 4.341-22.667 4.341h-49.433V5zm86.515 95.822c4.171-4.891 7.274-10.7 9.309-17.424 2.034-6.725 3.052-14.062 3.052-22.01 0-9.068-1.272-16.965-3.815-23.69-2.442-6.725-5.901-12.329-10.377-16.812-4.375-4.483-9.614-7.846-15.718-10.088-6.002-2.241-12.513-3.362-19.533-3.362h-47.001v109.128h47.001c8.342 0 15.565-1.375 21.669-4.127 6.206-2.853 11.344-6.725 15.413-11.615zM488.004 5h27.936l42.564 114h-30.123l-8.24-24.302h-37.28L474.315 119h-29.353L488.004 5zm-6.865 87.262h40.744l8.241 24.302h24.874L514.253 7.436h-24.568l-41.203 109.128h24.111l8.546-24.302zm6.257-17.882h28.231l-13.734-40.044h-.306L487.396 74.38zm3.444-2.436h21.38l-10.515-30.658-10.865 30.658zm114.417 2.742v41.878h-23.958v-42.49L541.317 7.436h26.858l25.484 43.101 25.332-43.101h26.705l-40.439 67.25zm-11.604-28.94L569.561 5h-32.543l41.849 69.75V119h28.822V75.363L650 5h-32.399l-23.948 40.746z" fill="#0094FF"/></g><g style="mix-blend-mode:hard-light" filter="url(#filter3_ddi)"><path fill-rule="evenodd" clip-rule="evenodd" d="M47.598 5h27.138l42.124 113H87.98l-8.238-24.333H41.656L33.112 118H5L47.598 5zM40.34 91.802h40.734l8.238 24.333h24.868L73.446 6.865H48.883L7.691 116.135h24.105l8.544-24.333zm6.255-17.906h28.224L61.088 33.8h-.305L46.595 73.896zm2.633-1.865h22.986L60.909 39.019 49.228 72.03zM121.714 5h27.671v89.069h53.092V118h-80.763V5zm78.904 90.934v20.201h-77.045V6.865h23.953v89.069h53.092zM212.149 5h27.671v89.069h53.092V118h-80.763V5zm78.904 90.934v20.201h-77.044V6.865h23.952v89.069h53.092zm111.69-66.266c-3.966-1.735-8.899-2.602-14.798-2.602h-17.087v68.868h21.359c3.458 0 6.814-.561 10.069-1.684 3.254-1.122 6.153-2.958 8.696-5.51 2.543-2.652 4.577-6.07 6.102-10.253 1.526-4.183 2.289-9.284 2.289-15.304 0-5.509-.56-10.457-1.678-14.844-1.017-4.49-2.747-8.315-5.188-11.478-2.441-3.163-5.695-5.56-9.764-7.193zm6.911 57.767c2.325-2.43 4.232-5.606 5.684-9.588 1.43-3.92 2.175-8.79 2.175-14.664 0-5.385-.547-10.174-1.62-14.382l-.006-.024-.005-.025c-.967-4.264-2.593-7.832-4.845-10.75-2.218-2.874-5.192-5.08-8.984-6.602l-.027-.01-.026-.012c-3.663-1.602-8.324-2.447-14.055-2.447h-15.228V94.07h19.5c3.253 0 6.405-.528 9.464-1.583 2.97-1.024 5.624-2.699 7.973-5.051zM345.046 5h48.849c7.216 0 13.947 1.154 20.173 3.483 6.347 2.335 11.819 5.847 16.391 10.538 4.684 4.701 8.275 10.548 10.795 17.496 2.638 6.99 3.931 15.126 3.931 24.37 0 8.118-1.038 15.649-3.132 22.58-2.1 6.953-5.317 13-9.665 18.108-4.258 5.123-9.62 9.161-16.054 12.123l-.006.003-.006.003c-6.394 2.886-13.887 4.296-22.427 4.296h-48.849V5zm94.465 32.167c-2.441-6.734-5.899-12.345-10.374-16.834-4.374-4.49-9.612-7.856-15.714-10.101-6.001-2.245-12.51-3.367-19.528-3.367h-46.99v109.27h46.99c8.34 0 15.561-1.378 21.664-4.132 6.204-2.857 11.34-6.734 15.409-11.631 4.17-4.897 7.272-10.713 9.306-17.447 2.034-6.733 3.051-14.08 3.051-22.037 0-9.08-1.271-16.987-3.814-23.721zM488.452 5h27.137l42.125 113h-28.88l-8.239-24.333h-38.086L473.966 118h-28.112L488.452 5zm-7.259 86.802h40.734l8.239 24.333h24.868L514.299 6.865h-24.562l-41.192 109.27h24.105l8.543-24.333zm6.255-17.906h28.224L501.942 33.8h-.306l-14.188 40.096zm2.633-1.865h22.987l-11.305-33.012-11.682 33.012zm115.199 2.171v41.933h-23.952V73.59L541.356 6.865h26.852l25.478 43.157 25.325-43.157h26.699l-40.43 67.337zm-11.599-27.848L569.267 5H538.07l41.399 69.107V118h27.671V74.72L649 5h-31.052l-24.267 41.354z" fill="#00B3FF" fill-opacity=".2"/></g><g style="mix-blend-mode:color-dodge" filter="url(#filter4_f)"><path fill-rule="evenodd" clip-rule="evenodd" d="M48.077 6h26.16l41.609 111h-27.35l-8.242-24.21H41.13L32.584 117H6L48.077 6zm-7.756 85.648h40.753l8.242 24.21h24.88L73.442 7.142H48.868L7.657 115.858h24.116l8.548-24.21zm6.258-17.815h28.237L61.079 33.94h-.305L46.579 73.833zm1.62-1.142h25.013L60.911 36.968 48.2 72.691zM122.45 6h26.253v88.617h53.117V117h-79.37V6zm78.225 89.76v20.098h-77.081V7.142h23.964v88.617h53.117zM212.926 6h26.253v88.617h53.117V117h-79.37V6zm78.225 89.76v20.098h-77.08V7.142h23.964v88.617h53.116zm111.743-65.93c-3.968-1.726-8.903-2.59-14.805-2.59h-17.095v68.52h21.368c3.46 0 6.818-.559 10.074-1.676 3.257-1.116 6.157-2.943 8.7-5.481 2.544-2.64 4.58-6.04 6.106-10.202 1.526-4.162 2.289-9.237 2.289-15.226 0-5.482-.559-10.405-1.679-14.77-1.017-4.466-2.747-8.273-5.189-11.42-2.442-3.146-5.699-5.532-9.769-7.156zm7.425 57.973c2.41-2.502 4.366-5.755 5.848-9.794 1.467-4 2.22-8.935 2.22-14.834 0-5.406-.552-10.232-1.644-14.487l-.003-.015-.004-.015c-.986-4.328-2.653-7.977-4.978-10.973-2.305-2.97-5.389-5.24-9.289-6.796l-.016-.006-.016-.007c-3.782-1.645-8.55-2.493-14.348-2.493h-15.951v66.234h20.224a29.7 29.7 0 009.702-1.613c3.081-1.056 5.831-2.784 8.255-5.2zM345.885 6h48.156c7.144 0 13.792 1.136 19.935 3.42 6.256 2.29 11.641 5.729 16.138 10.319 4.606 4.596 8.147 10.323 10.638 17.153 2.602 6.856 3.888 14.864 3.888 23.999 0 8.015-1.03 15.437-3.102 22.257-2.076 6.834-5.25 12.762-9.532 17.764-4.187 5.01-9.465 8.966-15.813 11.873l-.008.003c-6.284 2.822-13.676 4.212-22.144 4.212h-48.156V6zm93.794 31.29c-2.442-6.7-5.902-12.282-10.379-16.749-4.376-4.466-9.616-7.816-15.721-10.05-6.004-2.232-12.516-3.349-19.538-3.349H347.03v108.716h47.011c8.344 0 15.569-1.37 21.675-4.111 6.207-2.842 11.345-6.7 15.416-11.572 4.172-4.873 7.275-10.659 9.31-17.358 2.035-6.7 3.053-14.008 3.053-21.926 0-9.034-1.272-16.901-3.816-23.6zM489.137 6h26.159l41.61 111h-27.35l-8.242-24.21h-39.123L473.644 117H447.06L489.137 6zm-7.756 85.648h40.753l8.242 24.21h24.88L514.502 7.142h-24.574l-41.211 108.716h24.116l8.548-24.21zm6.258-17.815h28.237L502.139 33.94h-.305l-14.195 39.893zm1.621-1.142h25.012l-12.301-35.723-12.711 35.723zm116.266 1.447v41.72h-23.964v-42.33l-39.99-66.386h26.864l25.49 42.938 25.337-42.938h26.711l-40.448 66.996zm-11.603-26.304L569.088 6h-29.539l40.869 67.846V117h26.253V74.455L648 6h-29.391l-24.686 41.834z" fill="#82D9FF"/></g><g style="mix-blend-mode:color-dodge" filter="url(#filter5_f)"><path fill-rule="evenodd" clip-rule="evenodd" d="M45.634 7h25.36l41.172 110H86.057l-8.24-24.241H37.89L29.344 117H4L45.634 7zm-8.15 85.187h40.743l8.24 24.241h24.874L70.597 7.572H46.03L4.83 116.428h24.11l8.545-24.24zM43.74 74.35h28.23L58.238 34.405h-.305L43.74 74.349zm.81-.572h26.62L58.077 35.703 44.551 73.778zM120.165 7h25.102v88.732h53.104V117h-78.206V7zm77.633 89.303v20.125h-77.061V7.572h23.958v88.731h53.103zM210.619 7h25.102v88.732h53.104V117h-78.206V7zm77.634 89.303v20.125h-77.062V7.572h23.958v88.731h53.104zm111.715-66.015c-3.968-1.728-8.902-2.591-14.802-2.591h-17.091v68.606h21.363a30.8 30.8 0 0010.072-1.677c3.255-1.118 6.155-2.947 8.698-5.488 2.543-2.643 4.578-6.048 6.104-10.215 1.526-4.167 2.289-9.25 2.289-15.246 0-5.489-.56-10.418-1.679-14.789-1.017-4.472-2.747-8.283-5.188-11.434-2.442-3.15-5.697-5.54-9.766-7.166zm7.831 58.45c2.476-2.575 4.472-5.906 5.975-10.011 1.497-4.087 2.254-9.098 2.254-15.05 0-5.45-.555-10.331-1.66-14.647l-.002-.007-.002-.008c-1.002-4.403-2.699-8.135-5.083-11.211-2.373-3.063-5.542-5.393-9.526-6.985l-.008-.003-.008-.004c-3.874-1.687-8.725-2.544-14.573-2.544h-16.519v67.464h20.791c3.396 0 6.691-.549 9.886-1.646 3.168-1.088 5.992-2.868 8.475-5.349zM343.545 7h47.572c7.081 0 13.66 1.128 19.731 3.39 6.179 2.263 11.489 5.662 15.925 10.195 4.541 4.538 8.041 10.2 10.507 16.975 2.572 6.786 3.851 14.734 3.851 23.83 0 7.977-1.024 15.352-3.077 22.12-2.055 6.776-5.193 12.64-9.419 17.583-4.127 4.948-9.334 8.86-15.611 11.738l-.003.002c-6.194 2.785-13.5 4.167-21.904 4.167h-47.572V7zm93.198 30.759c-2.441-6.708-5.9-12.299-10.376-16.77-4.375-4.473-9.614-7.827-15.718-10.063-6.002-2.236-12.513-3.354-19.532-3.354h-47v108.856h47c8.342 0 15.565-1.372 21.669-4.116 6.205-2.846 11.343-6.708 15.412-11.587 4.171-4.879 7.274-10.672 9.308-17.38 2.035-6.709 3.052-14.027 3.052-21.955 0-9.046-1.271-16.923-3.815-23.631zM486.585 7h25.36l41.171 110h-26.108l-8.24-24.241H478.84L470.294 117h-25.343L486.585 7zm-8.15 85.187h40.743l8.24 24.241h24.873L511.548 7.572H486.98l-41.201 108.856h24.11l8.546-24.24zm6.256-17.838h28.23l-13.733-39.944h-.306l-14.191 39.944zm.81-.572h26.619l-13.091-38.075-13.528 38.076zm117.048.877v41.774h-23.957V74.044L538.611 7.572h26.857l25.484 42.993 25.331-42.993h26.704l-40.438 67.082zM590.95 49.441L565.794 7H537.6l40.419 67.203V117h25.102V74.813L644 7h-28.044L590.95 49.441z" fill="#fff"/></g><g style="mix-blend-mode:color-dodge" filter="url(#filter6_f)"><path fill-rule="evenodd" clip-rule="evenodd" d="M58.634 7h25.36l41.172 110H99.057l-8.24-24.241H50.89L42.344 117H17L58.634 7zm-8.15 85.187h40.743l8.24 24.241h24.874L83.597 7.572H59.03l-41.2 108.856h24.11l8.545-24.24zM56.74 74.35h28.23L71.238 34.405h-.305L56.74 74.349zm.81-.572h26.62L71.077 35.703 57.551 73.778zM133.165 7h25.102v88.732h53.104V117h-78.206V7zm77.633 89.303v20.125h-77.061V7.572h23.958v88.731h53.103zM223.619 7h25.102v88.732h53.104V117h-78.206V7zm77.634 89.303v20.125h-77.062V7.572h23.958v88.731h53.104zm111.715-66.015c-3.968-1.728-8.902-2.591-14.802-2.591h-17.091v68.606h21.363a30.8 30.8 0 0010.072-1.677c3.255-1.118 6.155-2.947 8.698-5.488 2.543-2.643 4.578-6.048 6.104-10.215 1.526-4.167 2.289-9.25 2.289-15.246 0-5.489-.56-10.418-1.679-14.789-1.017-4.472-2.747-8.283-5.188-11.434-2.442-3.15-5.697-5.54-9.766-7.166zm7.831 58.45c2.476-2.575 4.472-5.906 5.975-10.011 1.497-4.087 2.254-9.098 2.254-15.05 0-5.45-.555-10.331-1.66-14.647l-.002-.007-.002-.008c-1.002-4.403-2.699-8.135-5.083-11.211-2.373-3.063-5.542-5.393-9.526-6.985l-.008-.003-.008-.004c-3.874-1.687-8.725-2.544-14.573-2.544h-16.519v67.464h20.791c3.396 0 6.691-.549 9.886-1.646 3.168-1.088 5.992-2.868 8.475-5.349zM356.545 7h47.572c7.081 0 13.66 1.128 19.731 3.39 6.179 2.263 11.489 5.662 15.925 10.195 4.541 4.538 8.041 10.2 10.507 16.975 2.572 6.786 3.851 14.734 3.851 23.83 0 7.977-1.024 15.352-3.077 22.12-2.055 6.776-5.193 12.64-9.419 17.583-4.127 4.948-9.334 8.86-15.611 11.738l-.003.002c-6.194 2.785-13.5 4.167-21.904 4.167h-47.572V7zm93.198 30.759c-2.441-6.708-5.9-12.299-10.376-16.77-4.375-4.473-9.614-7.827-15.718-10.063-6.002-2.236-12.513-3.354-19.532-3.354h-47v108.856h47c8.342 0 15.565-1.372 21.669-4.116 6.205-2.846 11.343-6.708 15.412-11.587 4.171-4.879 7.274-10.672 9.308-17.38 2.035-6.709 3.052-14.027 3.052-21.955 0-9.046-1.271-16.923-3.815-23.631zM499.585 7h25.36l41.171 110h-26.108l-8.24-24.241H491.84L483.294 117h-25.343L499.585 7zm-8.15 85.187h40.743l8.24 24.241h24.873L524.548 7.572H499.98l-41.201 108.856h24.11l8.546-24.24zm6.256-17.838h28.23l-13.733-39.944h-.306l-14.191 39.944zm.81-.572h26.619l-13.091-38.075-13.528 38.076zm117.048.877v41.774h-23.957V74.044L551.611 7.572h26.857l25.484 42.993 25.331-42.993h26.704l-40.438 67.082zM603.95 49.441L578.794 7H550.6l40.419 67.203V117h25.102V74.813L657 7h-28.044L603.95 49.441z" fill="#fff"/></g></g><defs><filter id="filter0_d" x="0" y="5" width="661" height="122" filterUnits="userSpaceOnUse" color-interpolation-filters="sRGB"><feFlood flood-opacity="0" result="BackgroundImageFix"/><feColorMatrix in="SourceAlpha" values="0 0 0 0 0 0 0 0 0 0 0 0 0 0 0 0 0 0 127 0"/><feOffset dy="4"/><feGaussianBlur stdDeviation="2"/><feColorMatrix values="0 0 0 0 0 0 0 0 0 0 0 0 0 0 0 0 0 0 0.25 0"/><feBlend in2="BackgroundImageFix" result="effect1_dropShadow"/><feBlend in="SourceGraphic" in2="effect1_dropShadow" result="shape"/></filter><filter id="filter1_f" x=".455" y=".455" width="653.09" height="122.09" filterUnits="userSpaceOnUse" color-interpolation-filters="sRGB"><feFlood flood-opacity="0" result="BackgroundImageFix"/><feBlend in="SourceGraphic" in2="BackgroundImageFix" result="shape"/><feGaussianBlur stdDeviation="2.272" result="effect1_foregroundBlur"/></filter><filter id="filter2_f" x="2.485" y="3.485" width="649.03" height="117.03" filterUnits="userSpaceOnUse" color-interpolation-filters="sRGB"><feFlood flood-opacity="0" result="BackgroundImageFix"/><feBlend in="SourceGraphic" in2="BackgroundImageFix" result="shape"/><feGaussianBlur stdDeviation=".757" result="effect1_foregroundBlur"/></filter><filter id="filter3_ddi" x="3.03" y="4.545" width="647.939" height="116.939" filterUnits="userSpaceOnUse" color-interpolation-filters="sRGB"><feFlood flood-opacity="0" result="BackgroundImageFix"/><feColorMatrix in="SourceAlpha" values="0 0 0 0 0 0 0 0 0 0 0 0 0 0 0 0 0 0 127 0"/><feOffset dy="1.95"/><feGaussianBlur stdDeviation=".75"/><feColorMatrix values="0 0 0 0 0 0 0 0 0 0.051 0 0 0 0 0.082 0 0 0 0.7 0"/><feBlend mode="multiply" in2="BackgroundImageFix" result="effect1_dropShadow"/><feColorMatrix in="SourceAlpha" values="0 0 0 0 0 0 0 0 0 0 0 0 0 0 0 0 0 0 127 0"/><feOffset dy="1.515"/><feGaussianBlur stdDeviation=".985"/><feColorMatrix values="0 0 0 0 0 0 0 0 0 0.4 0 0 0 0 1 0 0 0 1 0"/><feBlend mode="color-dodge" in2="effect1_dropShadow" result="effect2_dropShadow"/><feBlend in="SourceGraphic" in2="effect2_dropShadow" result="shape"/><feColorMatrix in="SourceAlpha" values="0 0 0 0 0 0 0 0 0 0 0 0 0 0 0 0 0 0 127 0" result="hardAlpha"/><feOffset dx="-.195" dy=".39"/><feGaussianBlur stdDeviation=".098"/><feComposite in2="hardAlpha" operator="arithmetic" k2="-1" k3="1"/><feColorMatrix values="0 0 0 0 1 0 0 0 0 1 0 0 0 0 1 0 0 0 0.5 0"/><feBlend in2="shape" result="effect3_innerShadow"/></filter><filter id="filter4_f" x="5.7" y="5.7" width="642.6" height="111.6" filterUnits="userSpaceOnUse" color-interpolation-filters="sRGB"><feFlood flood-opacity="0" result="BackgroundImageFix"/><feBlend in="SourceGraphic" in2="BackgroundImageFix" result="shape"/><feGaussianBlur stdDeviation=".15" result="effect1_foregroundBlur"/></filter><filter id="filter5_f" x="3.8" y="6.8" width="640.4" height="110.4" filterUnits="userSpaceOnUse" color-interpolation-filters="sRGB"><feFlood flood-opacity="0" result="BackgroundImageFix"/><feBlend in="SourceGraphic" in2="BackgroundImageFix" result="shape"/><feGaussianBlur stdDeviation=".1" result="effect1_foregroundBlur"/></filter><filter id="filter6_f" x="16.8" y="6.8" width="640.4" height="110.4" filterUnits="userSpaceOnUse" color-interpolation-filters="sRGB"><feFlood flood-opacity="0" result="BackgroundImageFix"/><feBlend in="SourceGraphic" in2="BackgroundImageFix" result="shape"/><feGaussianBlur stdDeviation=".1" result="effect1_foregroundBlur"/></filter></defs></svg>