<svg width="78" height="79" fill="none" xmlns="http://www.w3.org/2000/svg"><path d="M77 39.5C77 60.775 59.975 78 39 78S1 60.775 1 39.5 18.025 1 39 1s38 17.225 38 38.5z" stroke="#fff" stroke-width="2"/><path d="M52 43.353v-2.475c-1.518.046-5.16.485-7.575 1.868-2.416 1.382-3.736 2.973-4.094 3.595V25h-2.662v21.341c-.358-.544-1.699-2.026-4.197-3.595-2.497-1.57-6.022-1.9-7.472-1.868v2.521c.648-.015 2.651.224 5.476 1.308 3.532 1.354 5.144 4.716 5.681 5.977.512 1.201.461 2.491.512 3.316h2.662c-.034-.592.204-2.073.614-3.456.512-1.728 2.252-4.203 4.913-5.697 2.003-1.124 4.897-1.557 6.142-1.494z" fill="#fff" stroke="#fff"/></svg>