<svg width="12" height="15" fill="none" xmlns="http://www.w3.org/2000/svg"><path d="M6 0A5.248 5.248 0 00.758 5.242c0 .977.27 1.93.782 2.757l4.162 6.706c.08.128.22.206.37.206h.004a.437.437 0 00.372-.212l4.055-6.77c.483-.81.74-1.74.74-2.687A5.248 5.248 0 006 0zm3.753 7.48l-3.687 6.155L2.283 7.54a4.363 4.363 0 01-.657-2.297A4.383 4.383 0 016 .868a4.38 4.38 0 014.371 4.374c0 .79-.215 1.564-.618 2.237z" fill="#2258FC"/><path d="M6 2.621a2.624 2.624 0 00-2.621 2.621A2.618 2.618 0 006 7.863c1.482 0 2.621-1.2 2.621-2.62A2.624 2.624 0 006 2.62zm0 4.375a1.755 1.755 0 01-1.753-1.754c0-.963.79-1.753 1.753-1.753.964 0 1.75.79 1.75 1.753 0 .952-.766 1.754-1.75 1.754z" fill="#2258FC"/></svg>