<svg width="339" height="146" viewBox="0 0 339 146" fill="none" xmlns="http://www.w3.org/2000/svg">
<path d="M51.26 84.72V86.72H53.7356L53.2153 84.2997L51.26 84.72ZM42.98 46.2L44.9353 45.7797L44.5958 44.2H42.98V46.2ZM42.74 46.2V44.2H41.1242L40.7847 45.7797L42.74 46.2ZM34.46 84.72L32.5047 84.2997L31.9844 86.72H34.46V84.72ZM53.54 31.32L55.4734 30.8082L55.0795 29.32H53.54V31.32ZM76.22 117V119H78.8183L78.1534 116.488L76.22 117ZM58.22 117L56.2661 117.427L56.6099 119H58.22V117ZM54.26 98.88L56.2139 98.453L55.8701 96.88H54.26V98.88ZM31.46 98.88V96.88H29.8499L29.5061 98.453L31.46 98.88ZM27.5 117V119H29.1101L29.4539 117.427L27.5 117ZM9.5 117L7.56659 116.488L6.90171 119H9.5V117ZM32.18 31.32V29.32H30.6405L30.2466 30.8082L32.18 31.32ZM53.2153 84.2997L44.9353 45.7797L41.0247 46.6203L49.3047 85.1403L53.2153 84.2997ZM42.98 44.2H42.74V48.2H42.98V44.2ZM40.7847 45.7797L32.5047 84.2997L36.4153 85.1403L44.6953 46.6203L40.7847 45.7797ZM34.46 86.72H51.26V82.72H34.46V86.72ZM51.6066 31.8318L74.2866 117.512L78.1534 116.488L55.4734 30.8082L51.6066 31.8318ZM76.22 115H58.22V119H76.22V115ZM60.1739 116.573L56.2139 98.453L52.3061 99.307L56.2661 117.427L60.1739 116.573ZM54.26 96.88H31.46V100.88H54.26V96.88ZM29.5061 98.453L25.5461 116.573L29.4539 117.427L33.4139 99.307L29.5061 98.453ZM27.5 115H9.5V119H27.5V115ZM11.4334 117.512L34.1134 31.8318L30.2466 30.8082L7.56659 116.488L11.4334 117.512ZM32.18 33.32H53.54V29.32H32.18V33.32ZM82.1797 31.32V29.32H80.1797V31.32H82.1797ZM82.1797 117H80.1797V119H82.1797V117ZM99.4597 117V119H101.46V117H99.4597ZM99.4597 80.76V78.76H97.4597V80.76H99.4597ZM116.38 83.64L117.948 82.3986H117.948L116.38 83.64ZM118.9 91.56L120.899 91.5016L120.898 91.4832L120.897 91.4649L118.9 91.56ZM119.38 108L117.381 108.058L117.381 108.077L117.382 108.095L119.38 108ZM119.86 112.92L117.882 113.217L117.883 113.224L117.884 113.232L119.86 112.92ZM121.54 117L119.927 118.183L120.526 119H121.54V117ZM140.26 117V119H142.26V117H140.26ZM140.26 116.28H142.26V115.097L141.224 114.528L140.26 116.28ZM137.14 111.36L135.157 111.624L135.166 111.689L135.179 111.752L137.14 111.36ZM136.42 100.92L134.421 100.989L134.421 100.99L136.42 100.92ZM136.18 94.68L134.181 94.7633L134.182 94.7669L136.18 94.68ZM135.82 89.4L133.83 89.599L135.82 89.4ZM132.1 78.96L130.632 80.3188L132.1 78.96ZM122.62 74.76H120.62V76.4855L122.327 76.7384L122.62 74.76ZM122.62 74.52L122.203 72.5639L120.62 72.9013V74.52H122.62ZM133.42 67.56L135.101 68.6434L135.106 68.635L135.112 68.6266L133.42 67.56ZM130.9 36.84L129.546 38.3119L129.554 38.3193L129.562 38.3266L130.9 36.84ZM99.4597 68.76H97.4597V70.76H99.4597V68.76ZM99.4597 44.04V42.04H97.4597V44.04H99.4597ZM116.26 65.88L117.561 67.3985L117.577 67.3853L117.592 67.3719L116.26 65.88ZM80.1797 31.32V117H84.1797V31.32H80.1797ZM82.1797 119H99.4597V115H82.1797V119ZM101.46 117V80.76H97.4597V117H101.46ZM99.4597 82.76H108.7V78.76H99.4597V82.76ZM108.7 82.76C111.986 82.76 113.824 83.6333 114.812 84.8814L117.948 82.3986C115.896 79.8067 112.613 78.76 108.7 78.76V82.76ZM114.812 84.8814C115.991 86.3714 116.755 88.5602 116.902 91.6551L120.897 91.4649C120.725 87.8398 119.808 84.7486 117.948 82.3986L114.812 84.8814ZM116.901 91.6184L117.381 108.058L121.379 107.942L120.899 91.5016L116.901 91.6184ZM117.382 108.095C117.465 109.84 117.631 111.547 117.882 113.217L121.838 112.623C121.608 111.093 121.454 109.52 121.377 107.905L117.382 108.095ZM117.884 113.232C118.172 115.056 118.852 116.717 119.927 118.183L123.152 115.817C122.468 114.883 122.027 113.824 121.835 112.608L117.884 113.232ZM121.54 119H140.26V115H121.54V119ZM142.26 117V116.28H138.26V117H142.26ZM141.224 114.528C140.301 114.02 139.507 112.998 139.101 110.968L135.179 111.752C135.732 114.522 137.018 116.78 139.296 118.032L141.224 114.528ZM139.122 111.096C138.815 108.794 138.578 105.391 138.418 100.85L134.421 100.99C134.582 105.569 134.824 109.126 135.157 111.624L139.122 111.096ZM138.419 100.851C138.338 98.5266 138.258 96.4404 138.178 94.5931L134.182 94.7669C134.261 96.5996 134.341 98.6735 134.421 100.989L138.419 100.851ZM138.178 94.5967C138.097 92.6453 137.974 90.846 137.81 89.201L133.83 89.599C133.985 91.154 134.103 92.8747 134.181 94.7633L138.178 94.5967ZM137.81 89.201C137.312 84.2217 135.999 80.2275 133.567 77.6012L130.632 80.3188C132.2 82.0125 133.368 84.9783 133.83 89.599L137.81 89.201ZM133.567 77.6012C131.139 74.9789 127.474 73.4573 122.913 72.7816L122.327 76.7384C126.406 77.3427 129.06 78.6211 130.632 80.3188L133.567 77.6012ZM124.62 74.76V74.52H120.62V74.76H124.62ZM123.037 76.4761C128.344 75.3449 132.445 72.765 135.101 68.6434L131.739 66.4766C129.755 69.555 126.655 71.6151 122.203 72.5639L123.037 76.4761ZM135.112 68.6266C137.688 64.5393 138.9 59.418 138.9 53.4H134.9C134.9 58.902 133.791 63.2206 131.728 66.4934L135.112 68.6266ZM138.9 53.4C138.9 45.6179 136.801 39.4608 132.238 35.3534L129.562 38.3266C132.998 41.4192 134.9 46.3021 134.9 53.4H138.9ZM132.254 35.3681C127.778 31.2504 121.635 29.32 114.1 29.32V33.32C120.965 33.32 126.021 35.0695 129.546 38.3119L132.254 35.3681ZM114.1 29.32H82.1797V33.32H114.1V29.32ZM101.46 68.76V44.04H97.4597V68.76H101.46ZM99.4597 46.04H107.62V42.04H99.4597V46.04ZM107.62 46.04C111.316 46.04 113.721 46.9542 115.213 48.4313C116.701 49.9047 117.62 52.2734 117.62 55.92H121.62C121.62 51.6466 120.539 48.0753 118.027 45.5887C115.519 43.1057 111.923 42.04 107.62 42.04V46.04ZM117.62 55.92C117.62 60.299 116.557 62.9335 114.928 64.3881L117.592 67.3719C120.443 64.8265 121.62 60.821 121.62 55.92H117.62ZM114.958 64.3615C113.205 65.8644 110.536 66.76 106.66 66.76V70.76C111.103 70.76 114.835 69.7356 117.561 67.3985L114.958 64.3615ZM106.66 66.76H99.4597V70.76H106.66V66.76ZM196.739 31.32H198.739V29.32H196.739V31.32ZM148.859 31.32V29.32H146.859V31.32H148.859ZM148.859 117H146.859V119H148.859V117ZM197.939 117V119H199.939V117H197.939ZM197.939 102.84H199.939V100.84H197.939V102.84ZM166.139 102.84H164.139V104.84H166.139V102.84ZM166.139 79.8V77.8H164.139V79.8H166.139ZM194.939 79.8V81.8H196.939V79.8H194.939ZM194.939 65.64H196.939V63.64H194.939V65.64ZM166.139 65.64H164.139V67.64H166.139V65.64ZM166.139 45.48V43.48H164.139V45.48H166.139ZM196.739 45.48V47.48H198.739V45.48H196.739ZM196.739 29.32H148.859V33.32H196.739V29.32ZM146.859 31.32V117H150.859V31.32H146.859ZM148.859 119H197.939V115H148.859V119ZM199.939 117V102.84H195.939V117H199.939ZM197.939 100.84H166.139V104.84H197.939V100.84ZM168.139 102.84V79.8H164.139V102.84H168.139ZM166.139 81.8H194.939V77.8H166.139V81.8ZM196.939 79.8V65.64H192.939V79.8H196.939ZM194.939 63.64H166.139V67.64H194.939V63.64ZM168.139 65.64V45.48H164.139V65.64H168.139ZM166.139 47.48H196.739V43.48H166.139V47.48ZM198.739 45.48V31.32H194.739V45.48H198.739ZM226.553 31.32L228.437 30.6495L227.964 29.32H226.553V31.32ZM206.633 31.32V29.32H204.633V31.32H206.633ZM206.633 117H204.633V119H206.633V117ZM222.473 117V119H224.473V117H222.473ZM222.473 57V55H220.473V57H222.473ZM222.713 57L224.599 56.3359L224.129 55H222.713V57ZM243.833 117L241.946 117.664L242.417 119H243.833V117ZM263.513 117V119H265.513V117H263.513ZM263.513 31.32H265.513V29.32H263.513V31.32ZM247.673 31.32V29.32H245.673V31.32H247.673ZM247.673 90V92H249.673V90H247.673ZM247.433 90L245.549 90.6705L246.022 92H247.433V90ZM226.553 29.32H206.633V33.32H226.553V29.32ZM204.633 31.32V117H208.633V31.32H204.633ZM206.633 119H222.473V115H206.633V119ZM224.473 117V57H220.473V117H224.473ZM222.473 59H222.713V55H222.473V59ZM220.826 57.6641L241.946 117.664L245.719 116.336L224.599 56.3359L220.826 57.6641ZM243.833 119H263.513V115H243.833V119ZM265.513 117V31.32H261.513V117H265.513ZM263.513 29.32H247.673V33.32H263.513V29.32ZM245.673 31.32V90H249.673V31.32H245.673ZM247.673 88H247.433V92H247.673V88ZM249.317 89.3295L228.437 30.6495L224.669 31.9905L245.549 90.6705L249.317 89.3295ZM311.299 84.72V86.72H313.775L313.254 84.2997L311.299 84.72ZM303.019 46.2L304.974 45.7797L304.635 44.2H303.019V46.2ZM302.779 46.2V44.2H301.163L300.824 45.7797L302.779 46.2ZM294.499 84.72L292.544 84.2997L292.023 86.72H294.499V84.72ZM313.579 31.32L315.512 30.8082L315.119 29.32H313.579V31.32ZM336.259 117V119H338.857L338.192 116.488L336.259 117ZM318.259 117L316.305 117.427L316.649 119H318.259V117ZM314.299 98.88L316.253 98.453L315.909 96.88H314.299V98.88ZM291.499 98.88V96.88H289.889L289.545 98.453L291.499 98.88ZM287.539 117V119H289.149L289.493 117.427L287.539 117ZM269.539 117L267.606 116.488L266.941 119H269.539V117ZM292.219 31.32V29.32H290.68L290.286 30.8082L292.219 31.32ZM313.254 84.2997L304.974 45.7797L301.064 46.6203L309.344 85.1403L313.254 84.2997ZM303.019 44.2H302.779V48.2H303.019V44.2ZM300.824 45.7797L292.544 84.2997L296.454 85.1403L304.734 46.6203L300.824 45.7797ZM294.499 86.72H311.299V82.72H294.499V86.72ZM311.646 31.8318L334.326 117.512L338.192 116.488L315.512 30.8082L311.646 31.8318ZM336.259 115H318.259V119H336.259V115ZM320.213 116.573L316.253 98.453L312.345 99.307L316.305 117.427L320.213 116.573ZM314.299 96.88H291.499V100.88H314.299V96.88ZM289.545 98.453L285.585 116.573L289.493 117.427L293.453 99.307L289.545 98.453ZM287.539 115H269.539V119H287.539V115ZM271.472 117.512L294.152 31.8318L290.286 30.8082L267.606 116.488L271.472 117.512ZM292.219 33.32H313.579V29.32H292.219V33.32Z" fill="#0036D7"/>
<g style="mix-blend-mode:hard-light" filter="url(#filter0_f)">
<path d="M46.76 85.22V86.52H48.3691L48.031 84.9468L46.76 85.22ZM38.48 46.7L39.751 46.4268L39.5303 45.4H38.48V46.7ZM38.24 46.7V45.4H37.1897L36.969 46.4268L38.24 46.7ZM29.96 85.22L28.689 84.9468L28.3509 86.52H29.96V85.22ZM49.04 31.82L50.2967 31.4873L50.0407 30.52H49.04V31.82ZM71.72 117.5V118.8H73.4089L72.9767 117.167L71.72 117.5ZM53.72 117.5L52.45 117.778L52.6734 118.8H53.72V117.5ZM49.76 99.38L51.03 99.1024L50.8066 98.08H49.76V99.38ZM26.96 99.38V98.08H25.9134L25.69 99.1024L26.96 99.38ZM23 117.5V118.8H24.0466L24.27 117.778L23 117.5ZM5 117.5L3.74328 117.167L3.31111 118.8H5V117.5ZM27.68 31.82V30.52H26.6793L26.4233 31.4873L27.68 31.82ZM48.031 84.9468L39.751 46.4268L37.209 46.9732L45.489 85.4932L48.031 84.9468ZM38.48 45.4H38.24V48H38.48V45.4ZM36.969 46.4268L28.689 84.9468L31.231 85.4932L39.511 46.9732L36.969 46.4268ZM29.96 86.52H46.76V83.92H29.96V86.52ZM47.7833 32.1527L70.4633 117.833L72.9767 117.167L50.2967 31.4873L47.7833 32.1527ZM71.72 116.2H53.72V118.8H71.72V116.2ZM54.99 117.222L51.03 99.1024L48.49 99.6576L52.45 117.778L54.99 117.222ZM49.76 98.08H26.96V100.68H49.76V98.08ZM25.69 99.1024L21.73 117.222L24.27 117.778L28.23 99.6576L25.69 99.1024ZM23 116.2H5V118.8H23V116.2ZM6.25672 117.833L28.9367 32.1527L26.4233 31.4873L3.74328 117.167L6.25672 117.833ZM27.68 33.12H49.04V30.52H27.68V33.12ZM77.6797 31.82V30.52H76.3797V31.82H77.6797ZM77.6797 117.5H76.3797V118.8H77.6797V117.5ZM94.9597 117.5V118.8H96.2597V117.5H94.9597ZM94.9597 81.26V79.96H93.6597V81.26H94.9597ZM111.88 84.14L112.899 83.3331L111.88 84.14ZM114.4 92.06L115.699 92.0221L115.699 92.0101L115.698 91.9982L114.4 92.06ZM114.88 108.5L113.58 108.538L113.581 108.55L113.581 108.562L114.88 108.5ZM115.36 113.42L114.074 113.613L114.076 113.623L115.36 113.42ZM117.04 117.5L115.991 118.269L116.381 118.8H117.04V117.5ZM135.76 117.5V118.8H137.06V117.5H135.76ZM135.76 116.78H137.06V116.011L136.386 115.641L135.76 116.78ZM132.64 111.86L131.351 112.032L131.357 112.074L131.365 112.115L132.64 111.86ZM131.92 101.42L130.62 101.465L130.62 101.466L131.92 101.42ZM131.68 95.18L130.381 95.2341L130.381 95.2365L131.68 95.18ZM131.32 89.9L130.026 90.0294V90.0294L131.32 89.9ZM127.6 79.46L126.646 80.3432H126.646L127.6 79.46ZM118.12 75.26H116.82V76.3816L117.929 76.546L118.12 75.26ZM118.12 75.02L117.849 73.7486L116.82 73.9679V75.02H118.12ZM128.92 68.06L130.012 68.7642L130.019 68.7533L128.92 68.06ZM126.4 37.34L125.52 38.2967L125.525 38.3015L125.53 38.3063L126.4 37.34ZM94.9597 69.26H93.6597V70.56H94.9597V69.26ZM94.9597 44.54V43.24H93.6597V44.54H94.9597ZM111.76 66.38L112.606 67.367L112.616 67.3585L112.626 67.3497L111.76 66.38ZM76.3797 31.82V117.5H78.9797V31.82H76.3797ZM77.6797 118.8H94.9597V116.2H77.6797V118.8ZM96.2597 117.5V81.26H93.6597V117.5H96.2597ZM94.9597 82.56H104.2V79.96H94.9597V82.56ZM104.2 82.56C107.596 82.56 109.686 83.4636 110.86 84.9469L112.899 83.3331C111.033 80.9764 108.004 79.96 104.2 79.96V82.56ZM110.86 84.9469C112.159 86.5874 112.949 88.9341 113.101 92.1218L115.698 91.9982C115.53 88.4659 114.64 85.5326 112.899 83.3331L110.86 84.9469ZM113.1 92.0979L113.58 108.538L116.179 108.462L115.699 92.0221L113.1 92.0979ZM113.581 108.562C113.663 110.284 113.827 111.968 114.074 113.613L116.645 113.227C116.412 111.672 116.256 110.076 116.178 108.438L113.581 108.562ZM114.076 113.623C114.347 115.34 114.985 116.896 115.991 118.269L118.088 116.731C117.335 115.704 116.853 114.54 116.644 113.217L114.076 113.623ZM117.04 118.8H135.76V116.2H117.04V118.8ZM137.06 117.5V116.78H134.46V117.5H137.06ZM136.386 115.641C135.227 115.003 134.346 113.765 133.914 111.605L131.365 112.115C131.893 114.755 133.093 116.797 135.133 117.919L136.386 115.641ZM133.928 111.688C133.617 109.352 133.378 105.922 133.219 101.374L130.62 101.466C130.781 106.038 131.023 109.568 131.351 112.032L133.928 111.688ZM133.219 101.375C133.139 99.0523 133.059 96.9683 132.978 95.1235L130.381 95.2365C130.461 97.0717 130.541 99.1477 130.62 101.465L133.219 101.375ZM132.979 95.1259C132.898 93.1854 132.776 91.3999 132.613 89.7706L130.026 90.0294C130.183 91.6001 130.302 93.3346 130.381 95.2341L132.979 95.1259ZM132.613 89.7706C132.122 84.8541 130.834 81.0398 128.554 78.5768L126.646 80.3432C128.365 82.2001 129.558 85.3459 130.026 90.0294L132.613 89.7706ZM128.554 78.5768C126.275 76.1163 122.787 74.6372 118.31 73.974L117.929 76.546C122.093 77.1628 124.924 78.4837 126.646 80.3432L128.554 78.5768ZM119.42 75.26V75.02H116.82V75.26H119.42ZM118.391 76.2915C123.549 75.1922 127.474 72.7032 130.012 68.7642L127.827 67.3558C125.725 70.6167 122.451 72.7678 117.849 73.7486L118.391 76.2915ZM130.019 68.7533C132.506 64.8086 133.7 59.8277 133.7 53.9H131.1C131.1 59.4923 129.973 63.9514 127.82 67.3667L130.019 68.7533ZM133.7 53.9C133.7 46.2376 131.636 40.3035 127.269 36.3737L125.53 38.3063C129.164 41.5765 131.1 46.6823 131.1 53.9H133.7ZM127.28 36.3833C122.971 32.4188 117.017 30.52 109.6 30.52V33.12C116.582 33.12 121.829 34.9012 125.52 38.2967L127.28 36.3833ZM109.6 30.52H77.6797V33.12H109.6V30.52ZM96.2597 69.26V44.54H93.6597V69.26H96.2597ZM94.9597 45.84H103.12V43.24H94.9597V45.84ZM103.12 45.84C106.923 45.84 109.535 46.7808 111.205 48.4338C112.872 50.0845 113.82 52.6637 113.82 56.42H116.42C116.42 52.2563 115.367 48.8955 113.034 46.5862C110.704 44.2792 107.317 43.24 103.12 43.24V45.84ZM113.82 56.42C113.82 60.8903 112.737 63.7648 110.894 65.4103L112.626 67.3497C115.263 64.9952 116.42 61.2297 116.42 56.42H113.82ZM110.914 65.393C108.99 67.0419 106.135 67.96 102.16 67.96V70.56C106.504 70.56 110.049 69.5581 112.606 67.367L110.914 65.393ZM102.16 67.96H94.9597V70.56H102.16V67.96ZM192.239 31.82H193.539V30.52H192.239V31.82ZM144.359 31.82V30.52H143.059V31.82H144.359ZM144.359 117.5H143.059V118.8H144.359V117.5ZM193.439 117.5V118.8H194.739V117.5H193.439ZM193.439 103.34H194.739V102.04H193.439V103.34ZM161.639 103.34H160.339V104.64H161.639V103.34ZM161.639 80.3V79H160.339V80.3H161.639ZM190.439 80.3V81.6H191.739V80.3H190.439ZM190.439 66.14H191.739V64.84H190.439V66.14ZM161.639 66.14H160.339V67.44H161.639V66.14ZM161.639 45.98V44.68H160.339V45.98H161.639ZM192.239 45.98V47.28H193.539V45.98H192.239ZM192.239 30.52H144.359V33.12H192.239V30.52ZM143.059 31.82V117.5H145.659V31.82H143.059ZM144.359 118.8H193.439V116.2H144.359V118.8ZM194.739 117.5V103.34H192.139V117.5H194.739ZM193.439 102.04H161.639V104.64H193.439V102.04ZM162.939 103.34V80.3H160.339V103.34H162.939ZM161.639 81.6H190.439V79H161.639V81.6ZM191.739 80.3V66.14H189.139V80.3H191.739ZM190.439 64.84H161.639V67.44H190.439V64.84ZM162.939 66.14V45.98H160.339V66.14H162.939ZM161.639 47.28H192.239V44.68H161.639V47.28ZM193.539 45.98V31.82H190.939V45.98H193.539ZM222.053 31.82L223.278 31.3842L222.97 30.52H222.053V31.82ZM202.133 31.82V30.52H200.833V31.82H202.133ZM202.133 117.5H200.833V118.8H202.133V117.5ZM217.973 117.5V118.8H219.273V117.5H217.973ZM217.973 57.5V56.2H216.673V57.5H217.973ZM218.213 57.5L219.439 57.0684L219.133 56.2H218.213V57.5ZM239.333 117.5L238.107 117.932L238.412 118.8H239.333V117.5ZM259.013 117.5V118.8H260.313V117.5H259.013ZM259.013 31.82H260.313V30.52H259.013V31.82ZM243.173 31.82V30.52H241.873V31.82H243.173ZM243.173 90.5V91.8H244.473V90.5H243.173ZM242.933 90.5L241.708 90.9358L242.016 91.8H242.933V90.5ZM222.053 30.52H202.133V33.12H222.053V30.52ZM200.833 31.82V117.5H203.433V31.82H200.833ZM202.133 118.8H217.973V116.2H202.133V118.8ZM219.273 117.5V57.5H216.673V117.5H219.273ZM217.973 58.8H218.213V56.2H217.973V58.8ZM216.987 57.9316L238.107 117.932L240.559 117.068L219.439 57.0684L216.987 57.9316ZM239.333 118.8H259.013V116.2H239.333V118.8ZM260.313 117.5V31.82H257.713V117.5H260.313ZM259.013 30.52H243.173V33.12H259.013V30.52ZM241.873 31.82V90.5H244.473V31.82H241.873ZM243.173 89.2H242.933V91.8H243.173V89.2ZM244.158 90.0642L223.278 31.3842L220.828 32.2558L241.708 90.9358L244.158 90.0642ZM306.799 85.22V86.52H308.408L308.07 84.9468L306.799 85.22ZM298.519 46.7L299.79 46.4268L299.569 45.4H298.519V46.7ZM298.279 46.7V45.4H297.229L297.008 46.4268L298.279 46.7ZM289.999 85.22L288.728 84.9468L288.39 86.52H289.999V85.22ZM309.079 31.82L310.336 31.4873L310.08 30.52H309.079V31.82ZM331.759 117.5V118.8H333.448L333.016 117.167L331.759 117.5ZM313.759 117.5L312.489 117.778L312.712 118.8H313.759V117.5ZM309.799 99.38L311.069 99.1024L310.846 98.08H309.799V99.38ZM286.999 99.38V98.08H285.952L285.729 99.1024L286.999 99.38ZM283.039 117.5V118.8H284.086L284.309 117.778L283.039 117.5ZM265.039 117.5L263.782 117.167L263.35 118.8H265.039V117.5ZM287.719 31.82V30.52H286.718L286.462 31.4873L287.719 31.82ZM308.07 84.9468L299.79 46.4268L297.248 46.9732L305.528 85.4932L308.07 84.9468ZM298.519 45.4H298.279V48H298.519V45.4ZM297.008 46.4268L288.728 84.9468L291.27 85.4932L299.55 46.9732L297.008 46.4268ZM289.999 86.52H306.799V83.92H289.999V86.52ZM307.822 32.1527L330.502 117.833L333.016 117.167L310.336 31.4873L307.822 32.1527ZM331.759 116.2H313.759V118.8H331.759V116.2ZM315.029 117.222L311.069 99.1024L308.529 99.6576L312.489 117.778L315.029 117.222ZM309.799 98.08H286.999V100.68H309.799V98.08ZM285.729 99.1024L281.769 117.222L284.309 117.778L288.269 99.6576L285.729 99.1024ZM283.039 116.2H265.039V118.8H283.039V116.2ZM266.296 117.833L288.976 32.1527L286.462 31.4873L263.782 117.167L266.296 117.833ZM287.719 33.12H309.079V30.52H287.719V33.12Z" fill="#0094FF"/>
</g>
<g style="mix-blend-mode:hard-light" filter="url(#filter1_f)">
<path d="M46.76 85.22V86.92H48.8643L48.422 84.8627L46.76 85.22ZM38.48 46.7L40.142 46.3427L39.8534 45H38.48V46.7ZM38.24 46.7V45H36.8666L36.578 46.3427L38.24 46.7ZM29.96 85.22L28.298 84.8627L27.8557 86.92H29.96V85.22ZM49.04 31.82L50.6834 31.385L50.3486 30.12H49.04V31.82ZM71.72 117.5V119.2H73.9286L73.3634 117.065L71.72 117.5ZM53.72 117.5L52.0592 117.863L52.3514 119.2H53.72V117.5ZM49.76 99.38L51.4208 99.017L51.1286 97.68H49.76V99.38ZM26.96 99.38V97.68H25.5914L25.2992 99.017L26.96 99.38ZM23 117.5V119.2H24.3686L24.6608 117.863L23 117.5ZM5 117.5L3.3566 117.065L2.79145 119.2H5V117.5ZM27.68 31.82V30.12H26.3715L26.0366 31.385L27.68 31.82ZM48.422 84.8627L40.142 46.3427L36.818 47.0573L45.098 85.5773L48.422 84.8627ZM38.48 45H38.24V48.4H38.48V45ZM36.578 46.3427L28.298 84.8627L31.622 85.5773L39.902 47.0573L36.578 46.3427ZM29.96 86.92H46.76V83.52H29.96V86.92ZM47.3966 32.255L70.0766 117.935L73.3634 117.065L50.6834 31.385L47.3966 32.255ZM71.72 115.8H53.72V119.2H71.72V115.8ZM55.3808 117.137L51.4208 99.017L48.0992 99.743L52.0592 117.863L55.3808 117.137ZM49.76 97.68H26.96V101.08H49.76V97.68ZM25.2992 99.017L21.3392 117.137L24.6608 117.863L28.6208 99.743L25.2992 99.017ZM23 115.8H5V119.2H23V115.8ZM6.6434 117.935L29.3234 32.255L26.0366 31.385L3.3566 117.065L6.6434 117.935ZM27.68 33.52H49.04V30.12H27.68V33.52ZM77.6797 31.82V30.12H75.9797V31.82H77.6797ZM77.6797 117.5H75.9797V119.2H77.6797V117.5ZM94.9597 117.5V119.2H96.6597V117.5H94.9597ZM94.9597 81.26V79.56H93.2597V81.26H94.9597ZM111.88 84.14L113.213 83.0848H113.213L111.88 84.14ZM114.4 92.06L116.099 92.0104L116.099 91.9948L116.098 91.9791L114.4 92.06ZM114.88 108.5L113.18 108.55L113.181 108.565L113.182 108.581L114.88 108.5ZM115.36 113.42L113.678 113.672L113.68 113.685L115.36 113.42ZM117.04 117.5L115.669 118.505L116.178 119.2H117.04V117.5ZM135.76 117.5V119.2H137.46V117.5H135.76ZM135.76 116.78H137.46V115.775L136.579 115.29L135.76 116.78ZM132.64 111.86L130.955 112.085L130.962 112.139L130.973 112.193L132.64 111.86ZM131.92 101.42L130.221 101.479L130.221 101.48L131.92 101.42ZM131.68 95.18L129.981 95.2508L129.981 95.2538L131.68 95.18ZM131.32 89.9L129.628 90.0692L131.32 89.9ZM127.6 79.46L126.352 80.615V80.615L127.6 79.46ZM118.12 75.26H116.42V76.7267L117.871 76.9416L118.12 75.26ZM118.12 75.02L117.765 73.3573L116.42 73.6441V75.02H118.12ZM128.92 68.06L130.349 68.9809L130.353 68.9738L130.358 68.9666L128.92 68.06ZM126.4 37.34L125.249 38.5911L125.256 38.5974L125.262 38.6036L126.4 37.34ZM94.9597 69.26H93.2597V70.96H94.9597V69.26ZM94.9597 44.54V42.84H93.2597V44.54H94.9597ZM111.76 66.38L112.866 67.6707L112.879 67.6595L112.892 67.6481L111.76 66.38ZM75.9797 31.82V117.5H79.3797V31.82H75.9797ZM77.6797 119.2H94.9597V115.8H77.6797V119.2ZM96.6597 117.5V81.26H93.2597V117.5H96.6597ZM94.9597 82.96H104.2V79.56H94.9597V82.96ZM104.2 82.96C107.533 82.96 109.479 83.8463 110.547 85.1952L113.213 83.0848C111.24 80.5937 108.066 79.56 104.2 79.56V82.96ZM110.547 85.1952C111.777 86.7496 112.552 89.0062 112.702 92.1409L116.098 91.9791C115.927 88.3938 115.022 85.3703 113.213 83.0848L110.547 85.1952ZM112.7 92.1096L113.18 108.55L116.579 108.45L116.099 92.0104L112.7 92.1096ZM113.182 108.581C113.264 110.316 113.43 112.013 113.678 113.672L117.041 113.168C116.81 111.627 116.655 110.044 116.578 108.419L113.182 108.581ZM113.68 113.685C113.961 115.463 114.623 117.079 115.669 118.505L118.411 116.495C117.696 115.521 117.238 114.417 117.039 113.155L113.68 113.685ZM117.04 119.2H135.76V115.8H117.04V119.2ZM137.46 117.5V116.78H134.06V117.5H137.46ZM136.579 115.29C135.555 114.727 134.724 113.612 134.307 111.527L130.973 112.193C131.516 114.908 132.764 117.073 134.94 118.27L136.579 115.29ZM134.325 111.635C134.016 109.319 133.778 105.904 133.619 101.36L130.221 101.48C130.381 106.056 130.624 109.601 130.955 112.085L134.325 111.635ZM133.619 101.361C133.539 99.0376 133.458 96.9523 133.378 95.1062L129.981 95.2538C130.061 97.0877 130.141 99.1624 130.221 101.479L133.619 101.361ZM133.378 95.1092C133.297 93.1625 133.175 91.3691 133.011 89.7308L129.628 90.0692C129.784 91.6309 129.902 93.3575 129.981 95.2508L133.378 95.1092ZM133.011 89.7308C132.516 84.7784 131.214 80.8613 128.847 78.305L126.352 80.615C127.985 82.3787 129.163 85.4216 129.628 90.0692L133.011 89.7308ZM128.847 78.305C126.483 75.7521 122.894 74.2487 118.369 73.5784L117.871 76.9416C121.986 77.5513 124.716 78.8479 126.352 80.615L128.847 78.305ZM119.82 75.26V75.02H116.42V75.26H119.82ZM118.474 76.6827C123.718 75.5652 127.743 73.0242 130.349 68.9809L127.491 67.1391C125.456 70.2957 122.282 72.3948 117.765 73.3573L118.474 76.6827ZM130.358 68.9666C132.896 64.9404 134.1 59.8793 134.1 53.9H130.7C130.7 59.4407 129.583 63.8195 127.482 67.1534L130.358 68.9666ZM134.1 53.9C134.1 46.1692 132.016 40.1077 127.537 36.0764L125.262 38.6036C128.783 41.7723 130.7 46.7508 130.7 53.9H134.1ZM127.551 36.0889C123.146 32.0369 117.085 30.12 109.6 30.12V33.52C116.515 33.52 121.653 35.2831 125.249 38.5911L127.551 36.0889ZM109.6 30.12H77.6797V33.52H109.6V30.12ZM96.6597 69.26V44.54H93.2597V69.26H96.6597ZM94.9597 46.24H103.12V42.84H94.9597V46.24ZM103.12 46.24C106.862 46.24 109.355 47.1656 110.924 48.7181C112.489 50.2675 113.42 52.7264 113.42 56.42H116.82C116.82 52.1936 115.751 48.7125 113.316 46.3019C110.884 43.8944 107.377 42.84 103.12 42.84V46.24ZM113.42 56.42C113.42 60.8381 112.348 63.5755 110.627 65.1119L112.892 67.6481C115.651 65.1845 116.82 61.2819 116.82 56.42H113.42ZM110.653 65.0893C108.827 66.6548 106.079 67.56 102.16 67.56V70.96C106.561 70.96 110.212 69.9452 112.866 67.6707L110.653 65.0893ZM102.16 67.56H94.9597V70.96H102.16V67.56ZM192.239 31.82H193.939V30.12H192.239V31.82ZM144.359 31.82V30.12H142.659V31.82H144.359ZM144.359 117.5H142.659V119.2H144.359V117.5ZM193.439 117.5V119.2H195.139V117.5H193.439ZM193.439 103.34H195.139V101.64H193.439V103.34ZM161.639 103.34H159.939V105.04H161.639V103.34ZM161.639 80.3V78.6H159.939V80.3H161.639ZM190.439 80.3V82H192.139V80.3H190.439ZM190.439 66.14H192.139V64.44H190.439V66.14ZM161.639 66.14H159.939V67.84H161.639V66.14ZM161.639 45.98V44.28H159.939V45.98H161.639ZM192.239 45.98V47.68H193.939V45.98H192.239ZM192.239 30.12H144.359V33.52H192.239V30.12ZM142.659 31.82V117.5H146.059V31.82H142.659ZM144.359 119.2H193.439V115.8H144.359V119.2ZM195.139 117.5V103.34H191.739V117.5H195.139ZM193.439 101.64H161.639V105.04H193.439V101.64ZM163.339 103.34V80.3H159.939V103.34H163.339ZM161.639 82H190.439V78.6H161.639V82ZM192.139 80.3V66.14H188.739V80.3H192.139ZM190.439 64.44H161.639V67.84H190.439V64.44ZM163.339 66.14V45.98H159.939V66.14H163.339ZM161.639 47.68H192.239V44.28H161.639V47.68ZM193.939 45.98V31.82H190.539V45.98H193.939ZM222.053 31.82L223.654 31.2501L223.252 30.12H222.053V31.82ZM202.133 31.82V30.12H200.433V31.82H202.133ZM202.133 117.5H200.433V119.2H202.133V117.5ZM217.973 117.5V119.2H219.673V117.5H217.973ZM217.973 57.5V55.8H216.273V57.5H217.973ZM218.213 57.5L219.816 56.9355L219.417 55.8H218.213V57.5ZM239.333 117.5L237.729 118.064L238.129 119.2H239.333V117.5ZM259.013 117.5V119.2H260.713V117.5H259.013ZM259.013 31.82H260.713V30.12H259.013V31.82ZM243.173 31.82V30.12H241.473V31.82H243.173ZM243.173 90.5V92.2H244.873V90.5H243.173ZM242.933 90.5L241.331 91.0699L241.733 92.2H242.933V90.5ZM222.053 30.12H202.133V33.52H222.053V30.12ZM200.433 31.82V117.5H203.833V31.82H200.433ZM202.133 119.2H217.973V115.8H202.133V119.2ZM219.673 117.5V57.5H216.273V117.5H219.673ZM217.973 59.2H218.213V55.8H217.973V59.2ZM216.609 58.0645L237.729 118.064L240.936 116.936L219.816 56.9355L216.609 58.0645ZM239.333 119.2H259.013V115.8H239.333V119.2ZM260.713 117.5V31.82H257.313V117.5H260.713ZM259.013 30.12H243.173V33.52H259.013V30.12ZM241.473 31.82V90.5H244.873V31.82H241.473ZM243.173 88.8H242.933V92.2H243.173V88.8ZM244.534 89.9301L223.654 31.2501L220.451 32.3899L241.331 91.0699L244.534 89.9301ZM306.799 85.22V86.92H308.903L308.461 84.8627L306.799 85.22ZM298.519 46.7L300.181 46.3427L299.892 45H298.519V46.7ZM298.279 46.7V45H296.906L296.617 46.3427L298.279 46.7ZM289.999 85.22L288.337 84.8627L287.895 86.92H289.999V85.22ZM309.079 31.82L310.722 31.385L310.388 30.12H309.079V31.82ZM331.759 117.5V119.2H333.968L333.402 117.065L331.759 117.5ZM313.759 117.5L312.098 117.863L312.39 119.2H313.759V117.5ZM309.799 99.38L311.46 99.017L311.168 97.68H309.799V99.38ZM286.999 99.38V97.68H285.63L285.338 99.017L286.999 99.38ZM283.039 117.5V119.2H284.408L284.7 117.863L283.039 117.5ZM265.039 117.5L263.396 117.065L262.831 119.2H265.039V117.5ZM287.719 31.82V30.12H286.411L286.076 31.385L287.719 31.82ZM308.461 84.8627L300.181 46.3427L296.857 47.0573L305.137 85.5773L308.461 84.8627ZM298.519 45H298.279V48.4H298.519V45ZM296.617 46.3427L288.337 84.8627L291.661 85.5773L299.941 47.0573L296.617 46.3427ZM289.999 86.92H306.799V83.52H289.999V86.92ZM307.436 32.255L330.116 117.935L333.402 117.065L310.722 31.385L307.436 32.255ZM331.759 115.8H313.759V119.2H331.759V115.8ZM315.42 117.137L311.46 99.017L308.138 99.743L312.098 117.863L315.42 117.137ZM309.799 97.68H286.999V101.08H309.799V97.68ZM285.338 99.017L281.378 117.137L284.7 117.863L288.66 99.743L285.338 99.017ZM283.039 115.8H265.039V119.2H283.039V115.8ZM266.682 117.935L289.362 32.255L286.076 31.385L263.396 117.065L266.682 117.935ZM287.719 33.52H309.079V30.12H287.719V33.52Z" fill="#0094FF"/>
</g>
<g style="mix-blend-mode:hard-light" filter="url(#filter2_ddi)">
<path d="M46.76 85.22V86.52H48.3691L48.031 84.9468L46.76 85.22ZM38.48 46.7L39.751 46.4268L39.5303 45.4H38.48V46.7ZM38.24 46.7V45.4H37.1897L36.969 46.4268L38.24 46.7ZM29.96 85.22L28.689 84.9468L28.3509 86.52H29.96V85.22ZM49.04 31.82L50.2967 31.4873L50.0407 30.52H49.04V31.82ZM71.72 117.5V118.8H73.4089L72.9767 117.167L71.72 117.5ZM53.72 117.5L52.45 117.778L52.6734 118.8H53.72V117.5ZM49.76 99.38L51.03 99.1024L50.8066 98.08H49.76V99.38ZM26.96 99.38V98.08H25.9134L25.69 99.1024L26.96 99.38ZM23 117.5V118.8H24.0466L24.27 117.778L23 117.5ZM5 117.5L3.74328 117.167L3.31111 118.8H5V117.5ZM27.68 31.82V30.52H26.6793L26.4233 31.4873L27.68 31.82ZM48.031 84.9468L39.751 46.4268L37.209 46.9732L45.489 85.4932L48.031 84.9468ZM38.48 45.4H38.24V48H38.48V45.4ZM36.969 46.4268L28.689 84.9468L31.231 85.4932L39.511 46.9732L36.969 46.4268ZM29.96 86.52H46.76V83.92H29.96V86.52ZM47.7833 32.1527L70.4633 117.833L72.9767 117.167L50.2967 31.4873L47.7833 32.1527ZM71.72 116.2H53.72V118.8H71.72V116.2ZM54.99 117.222L51.03 99.1024L48.49 99.6576L52.45 117.778L54.99 117.222ZM49.76 98.08H26.96V100.68H49.76V98.08ZM25.69 99.1024L21.73 117.222L24.27 117.778L28.23 99.6576L25.69 99.1024ZM23 116.2H5V118.8H23V116.2ZM6.25672 117.833L28.9367 32.1527L26.4233 31.4873L3.74328 117.167L6.25672 117.833ZM27.68 33.12H49.04V30.52H27.68V33.12ZM77.6797 31.82V30.52H76.3797V31.82H77.6797ZM77.6797 117.5H76.3797V118.8H77.6797V117.5ZM94.9597 117.5V118.8H96.2597V117.5H94.9597ZM94.9597 81.26V79.96H93.6597V81.26H94.9597ZM111.88 84.14L112.899 83.3331L111.88 84.14ZM114.4 92.06L115.699 92.0221L115.699 92.0101L115.698 91.9982L114.4 92.06ZM114.88 108.5L113.58 108.538L113.581 108.55L113.581 108.562L114.88 108.5ZM115.36 113.42L114.074 113.613L114.076 113.623L115.36 113.42ZM117.04 117.5L115.991 118.269L116.381 118.8H117.04V117.5ZM135.76 117.5V118.8H137.06V117.5H135.76ZM135.76 116.78H137.06V116.011L136.386 115.641L135.76 116.78ZM132.64 111.86L131.351 112.032L131.357 112.074L131.365 112.115L132.64 111.86ZM131.92 101.42L130.62 101.465L130.62 101.466L131.92 101.42ZM131.68 95.18L130.381 95.2341L130.381 95.2365L131.68 95.18ZM131.32 89.9L130.026 90.0294V90.0294L131.32 89.9ZM127.6 79.46L126.646 80.3432H126.646L127.6 79.46ZM118.12 75.26H116.82V76.3816L117.929 76.546L118.12 75.26ZM118.12 75.02L117.849 73.7486L116.82 73.9679V75.02H118.12ZM128.92 68.06L130.012 68.7642L130.019 68.7533L128.92 68.06ZM126.4 37.34L125.52 38.2967L125.525 38.3015L125.53 38.3063L126.4 37.34ZM94.9597 69.26H93.6597V70.56H94.9597V69.26ZM94.9597 44.54V43.24H93.6597V44.54H94.9597ZM111.76 66.38L112.606 67.367L112.616 67.3585L112.626 67.3497L111.76 66.38ZM76.3797 31.82V117.5H78.9797V31.82H76.3797ZM77.6797 118.8H94.9597V116.2H77.6797V118.8ZM96.2597 117.5V81.26H93.6597V117.5H96.2597ZM94.9597 82.56H104.2V79.96H94.9597V82.56ZM104.2 82.56C107.596 82.56 109.686 83.4636 110.86 84.9469L112.899 83.3331C111.033 80.9764 108.004 79.96 104.2 79.96V82.56ZM110.86 84.9469C112.159 86.5874 112.949 88.9341 113.101 92.1218L115.698 91.9982C115.53 88.4659 114.64 85.5326 112.899 83.3331L110.86 84.9469ZM113.1 92.0979L113.58 108.538L116.179 108.462L115.699 92.0221L113.1 92.0979ZM113.581 108.562C113.663 110.284 113.827 111.968 114.074 113.613L116.645 113.227C116.412 111.672 116.256 110.076 116.178 108.438L113.581 108.562ZM114.076 113.623C114.347 115.34 114.985 116.896 115.991 118.269L118.088 116.731C117.335 115.704 116.853 114.54 116.644 113.217L114.076 113.623ZM117.04 118.8H135.76V116.2H117.04V118.8ZM137.06 117.5V116.78H134.46V117.5H137.06ZM136.386 115.641C135.227 115.003 134.346 113.765 133.914 111.605L131.365 112.115C131.893 114.755 133.093 116.797 135.133 117.919L136.386 115.641ZM133.928 111.688C133.617 109.352 133.378 105.922 133.219 101.374L130.62 101.466C130.781 106.038 131.023 109.568 131.351 112.032L133.928 111.688ZM133.219 101.375C133.139 99.0523 133.059 96.9683 132.978 95.1235L130.381 95.2365C130.461 97.0717 130.541 99.1477 130.62 101.465L133.219 101.375ZM132.979 95.1259C132.898 93.1854 132.776 91.3999 132.613 89.7706L130.026 90.0294C130.183 91.6001 130.302 93.3346 130.381 95.2341L132.979 95.1259ZM132.613 89.7706C132.122 84.8541 130.834 81.0398 128.554 78.5768L126.646 80.3432C128.365 82.2001 129.558 85.3459 130.026 90.0294L132.613 89.7706ZM128.554 78.5768C126.275 76.1163 122.787 74.6372 118.31 73.974L117.929 76.546C122.093 77.1628 124.924 78.4837 126.646 80.3432L128.554 78.5768ZM119.42 75.26V75.02H116.82V75.26H119.42ZM118.391 76.2915C123.549 75.1922 127.474 72.7032 130.012 68.7642L127.827 67.3558C125.725 70.6167 122.451 72.7678 117.849 73.7486L118.391 76.2915ZM130.019 68.7533C132.506 64.8086 133.7 59.8277 133.7 53.9H131.1C131.1 59.4923 129.973 63.9514 127.82 67.3667L130.019 68.7533ZM133.7 53.9C133.7 46.2376 131.636 40.3035 127.269 36.3737L125.53 38.3063C129.164 41.5765 131.1 46.6823 131.1 53.9H133.7ZM127.28 36.3833C122.971 32.4188 117.017 30.52 109.6 30.52V33.12C116.582 33.12 121.829 34.9012 125.52 38.2967L127.28 36.3833ZM109.6 30.52H77.6797V33.12H109.6V30.52ZM96.2597 69.26V44.54H93.6597V69.26H96.2597ZM94.9597 45.84H103.12V43.24H94.9597V45.84ZM103.12 45.84C106.923 45.84 109.535 46.7808 111.205 48.4338C112.872 50.0845 113.82 52.6637 113.82 56.42H116.42C116.42 52.2563 115.367 48.8955 113.034 46.5862C110.704 44.2792 107.317 43.24 103.12 43.24V45.84ZM113.82 56.42C113.82 60.8903 112.737 63.7648 110.894 65.4103L112.626 67.3497C115.263 64.9952 116.42 61.2297 116.42 56.42H113.82ZM110.914 65.393C108.99 67.0419 106.135 67.96 102.16 67.96V70.56C106.504 70.56 110.049 69.5581 112.606 67.367L110.914 65.393ZM102.16 67.96H94.9597V70.56H102.16V67.96ZM192.239 31.82H193.539V30.52H192.239V31.82ZM144.359 31.82V30.52H143.059V31.82H144.359ZM144.359 117.5H143.059V118.8H144.359V117.5ZM193.439 117.5V118.8H194.739V117.5H193.439ZM193.439 103.34H194.739V102.04H193.439V103.34ZM161.639 103.34H160.339V104.64H161.639V103.34ZM161.639 80.3V79H160.339V80.3H161.639ZM190.439 80.3V81.6H191.739V80.3H190.439ZM190.439 66.14H191.739V64.84H190.439V66.14ZM161.639 66.14H160.339V67.44H161.639V66.14ZM161.639 45.98V44.68H160.339V45.98H161.639ZM192.239 45.98V47.28H193.539V45.98H192.239ZM192.239 30.52H144.359V33.12H192.239V30.52ZM143.059 31.82V117.5H145.659V31.82H143.059ZM144.359 118.8H193.439V116.2H144.359V118.8ZM194.739 117.5V103.34H192.139V117.5H194.739ZM193.439 102.04H161.639V104.64H193.439V102.04ZM162.939 103.34V80.3H160.339V103.34H162.939ZM161.639 81.6H190.439V79H161.639V81.6ZM191.739 80.3V66.14H189.139V80.3H191.739ZM190.439 64.84H161.639V67.44H190.439V64.84ZM162.939 66.14V45.98H160.339V66.14H162.939ZM161.639 47.28H192.239V44.68H161.639V47.28ZM193.539 45.98V31.82H190.939V45.98H193.539ZM222.053 31.82L223.278 31.3842L222.97 30.52H222.053V31.82ZM202.133 31.82V30.52H200.833V31.82H202.133ZM202.133 117.5H200.833V118.8H202.133V117.5ZM217.973 117.5V118.8H219.273V117.5H217.973ZM217.973 57.5V56.2H216.673V57.5H217.973ZM218.213 57.5L219.439 57.0684L219.133 56.2H218.213V57.5ZM239.333 117.5L238.107 117.932L238.412 118.8H239.333V117.5ZM259.013 117.5V118.8H260.313V117.5H259.013ZM259.013 31.82H260.313V30.52H259.013V31.82ZM243.173 31.82V30.52H241.873V31.82H243.173ZM243.173 90.5V91.8H244.473V90.5H243.173ZM242.933 90.5L241.708 90.9358L242.016 91.8H242.933V90.5ZM222.053 30.52H202.133V33.12H222.053V30.52ZM200.833 31.82V117.5H203.433V31.82H200.833ZM202.133 118.8H217.973V116.2H202.133V118.8ZM219.273 117.5V57.5H216.673V117.5H219.273ZM217.973 58.8H218.213V56.2H217.973V58.8ZM216.987 57.9316L238.107 117.932L240.559 117.068L219.439 57.0684L216.987 57.9316ZM239.333 118.8H259.013V116.2H239.333V118.8ZM260.313 117.5V31.82H257.713V117.5H260.313ZM259.013 30.52H243.173V33.12H259.013V30.52ZM241.873 31.82V90.5H244.473V31.82H241.873ZM243.173 89.2H242.933V91.8H243.173V89.2ZM244.158 90.0642L223.278 31.3842L220.828 32.2558L241.708 90.9358L244.158 90.0642ZM306.799 85.22V86.52H308.408L308.07 84.9468L306.799 85.22ZM298.519 46.7L299.79 46.4268L299.569 45.4H298.519V46.7ZM298.279 46.7V45.4H297.229L297.008 46.4268L298.279 46.7ZM289.999 85.22L288.728 84.9468L288.39 86.52H289.999V85.22ZM309.079 31.82L310.336 31.4873L310.08 30.52H309.079V31.82ZM331.759 117.5V118.8H333.448L333.016 117.167L331.759 117.5ZM313.759 117.5L312.489 117.778L312.712 118.8H313.759V117.5ZM309.799 99.38L311.069 99.1024L310.846 98.08H309.799V99.38ZM286.999 99.38V98.08H285.952L285.729 99.1024L286.999 99.38ZM283.039 117.5V118.8H284.086L284.309 117.778L283.039 117.5ZM265.039 117.5L263.782 117.167L263.35 118.8H265.039V117.5ZM287.719 31.82V30.52H286.718L286.462 31.4873L287.719 31.82ZM308.07 84.9468L299.79 46.4268L297.248 46.9732L305.528 85.4932L308.07 84.9468ZM298.519 45.4H298.279V48H298.519V45.4ZM297.008 46.4268L288.728 84.9468L291.27 85.4932L299.55 46.9732L297.008 46.4268ZM289.999 86.52H306.799V83.92H289.999V86.52ZM307.822 32.1527L330.502 117.833L333.016 117.167L310.336 31.4873L307.822 32.1527ZM331.759 116.2H313.759V118.8H331.759V116.2ZM315.029 117.222L311.069 99.1024L308.529 99.6576L312.489 117.778L315.029 117.222ZM309.799 98.08H286.999V100.68H309.799V98.08ZM285.729 99.1024L281.769 117.222L284.309 117.778L288.269 99.6576L285.729 99.1024ZM283.039 116.2H265.039V118.8H283.039V116.2ZM266.296 117.833L288.976 32.1527L286.462 31.4873L263.782 117.167L266.296 117.833ZM287.719 33.12H309.079V30.52H287.719V33.12Z" fill="#00B3FF" fill-opacity="0.2"/>
</g>
<g filter="url(#filter3_f)">
<path d="M46.76 85.22V86.02H47.7502L47.5421 85.0519L46.76 85.22ZM38.48 46.7L39.2621 46.5319L39.1263 45.9H38.48V46.7ZM38.24 46.7V45.9H37.5937L37.4579 46.5319L38.24 46.7ZM29.96 85.22L29.1779 85.0519L28.9698 86.02H29.96V85.22ZM49.04 31.82L49.8134 31.6153L49.6558 31.02H49.04V31.82ZM71.72 117.5V118.3H72.7593L72.4934 117.295L71.72 117.5ZM53.72 117.5L52.9384 117.671L53.076 118.3H53.72V117.5ZM49.76 99.38L50.5416 99.2092L50.404 98.58H49.76V99.38ZM26.96 99.38V98.58H26.316L26.1784 99.2092L26.96 99.38ZM23 117.5V118.3H23.644L23.7816 117.671L23 117.5ZM5 117.5L4.22664 117.295L3.96068 118.3H5V117.5ZM27.68 31.82V31.02H27.0642L26.9066 31.6153L27.68 31.82ZM47.5421 85.0519L39.2621 46.5319L37.6979 46.8681L45.9779 85.3881L47.5421 85.0519ZM38.48 45.9H38.24V47.5H38.48V45.9ZM37.4579 46.5319L29.1779 85.0519L30.7421 85.3881L39.0221 46.8681L37.4579 46.5319ZM29.96 86.02H46.76V84.42H29.96V86.02ZM48.2666 32.0247L70.9466 117.705L72.4934 117.295L49.8134 31.6153L48.2666 32.0247ZM71.72 116.7H53.72V118.3H71.72V116.7ZM54.5016 117.329L50.5416 99.2092L48.9785 99.5508L52.9384 117.671L54.5016 117.329ZM49.76 98.58H26.96V100.18H49.76V98.58ZM26.1784 99.2092L22.2184 117.329L23.7816 117.671L27.7416 99.5508L26.1784 99.2092ZM23 116.7H5V118.3H23V116.7ZM5.77336 117.705L28.4534 32.0247L26.9066 31.6153L4.22664 117.295L5.77336 117.705ZM27.68 32.62H49.04V31.02H27.68V32.62ZM77.6797 31.82V31.02H76.8797V31.82H77.6797ZM77.6797 117.5H76.8797V118.3H77.6797V117.5ZM94.9597 117.5V118.3H95.7597V117.5H94.9597ZM94.9597 81.26V80.46H94.1597V81.26H94.9597ZM111.88 84.14L112.507 83.6434L111.88 84.14ZM114.4 92.06L115.199 92.0367L115.199 92.0293L115.199 92.0219L114.4 92.06ZM114.88 108.5L114.08 108.523L114.08 108.531L114.081 108.538L114.88 108.5ZM115.36 113.42L114.569 113.539L114.569 113.545L115.36 113.42ZM117.04 117.5L116.395 117.973L116.634 118.3H117.04V117.5ZM135.76 117.5V118.3H136.56V117.5H135.76ZM135.76 116.78H136.56V116.307L136.145 116.079L135.76 116.78ZM132.64 111.86L131.847 111.966L131.85 111.991L131.855 112.017L132.64 111.86ZM131.92 101.42L131.12 101.448L131.12 101.448L131.92 101.42ZM131.68 95.18L130.88 95.2133L130.88 95.2148L131.68 95.18ZM131.32 89.9L130.524 89.9796L131.32 89.9ZM127.6 79.46L127.013 80.0035L127.6 79.46ZM118.12 75.26H117.32V75.9502L118.002 76.0514L118.12 75.26ZM118.12 75.02L117.953 74.2376L117.32 74.3725V75.02H118.12ZM128.92 68.06L129.592 68.4934L129.596 68.4866L128.92 68.06ZM126.4 37.34L125.858 37.9288L125.865 37.9346L126.4 37.34ZM94.9597 69.26H94.1597V70.06H94.9597V69.26ZM94.9597 44.54V43.74H94.1597V44.54H94.9597ZM111.76 66.38L112.28 66.9874L112.286 66.9821L112.293 66.9767L111.76 66.38ZM76.8797 31.82V117.5H78.4797V31.82H76.8797ZM77.6797 118.3H94.9597V116.7H77.6797V118.3ZM95.7597 117.5V81.26H94.1597V117.5H95.7597ZM94.9597 82.06H104.2V80.46H94.9597V82.06ZM104.2 82.06C107.674 82.06 109.945 82.9853 111.252 84.6366L112.507 83.6434C110.774 81.4547 107.925 80.46 104.2 80.46V82.06ZM111.252 84.6366C112.636 86.3845 113.446 88.8441 113.601 92.0981L115.199 92.0219C115.034 88.5559 114.163 85.7355 112.507 83.6434L111.252 84.6366ZM113.6 92.0833L114.08 108.523L115.679 108.477L115.199 92.0367L113.6 92.0833ZM114.081 108.538C114.162 110.244 114.324 111.911 114.569 113.539L116.151 113.301C115.915 111.729 115.758 110.116 115.679 108.462L114.081 108.538ZM114.569 113.545C114.829 115.186 115.437 116.667 116.395 117.973L117.685 117.027C116.883 115.933 116.371 114.694 116.15 113.295L114.569 113.545ZM117.04 118.3H135.76V116.7H117.04V118.3ZM136.56 117.5V116.78H134.96V117.5H136.56ZM136.145 116.079C134.816 115.348 133.875 113.955 133.424 111.703L131.855 112.017C132.365 114.565 133.503 116.452 135.374 117.481L136.145 116.079ZM133.433 111.754C133.118 109.393 132.879 105.944 132.719 101.392L131.12 101.448C131.28 106.016 131.521 109.527 131.847 111.966L133.433 111.754ZM132.719 101.392C132.639 99.0706 132.559 96.9882 132.479 95.1452L130.88 95.2148C130.96 97.0518 131.04 99.1294 131.12 101.448L132.719 101.392ZM132.479 95.1467C132.398 93.2141 132.278 91.4384 132.116 89.8204L130.524 89.9796C130.682 91.5616 130.801 93.3059 130.88 95.2133L132.479 95.1467ZM132.116 89.8204C131.629 84.9487 130.359 81.263 128.187 78.9165L127.013 80.0035C128.84 81.977 130.051 85.2513 130.524 89.9796L132.116 89.8204ZM128.187 78.9165C126.015 76.5716 122.653 75.1229 118.237 74.4686L118.002 76.0514C122.226 76.6771 125.184 78.0284 127.013 80.0035L128.187 78.9165ZM118.92 75.26V75.02H117.32V75.26H118.92ZM118.286 75.8024C123.338 74.726 127.138 72.302 129.592 68.4934L128.247 67.6266C126.062 71.018 122.662 73.234 117.953 74.2376L118.286 75.8024ZM129.596 68.4866C132.019 64.6437 133.2 59.7632 133.2 53.9H131.6C131.6 59.5568 130.46 64.1163 128.243 67.6334L129.596 68.4866ZM133.2 53.9C133.2 46.3232 131.16 40.5483 126.935 36.7454L125.865 37.9346C129.639 41.3317 131.6 46.5968 131.6 53.9H133.2ZM126.941 36.7513C122.751 32.8962 116.934 31.02 109.6 31.02V32.62C116.666 32.62 122.048 34.4238 125.858 37.9287L126.941 36.7513ZM109.6 31.02H77.6797V32.62H109.6V31.02ZM95.7597 69.26V44.54H94.1597V69.26H95.7597ZM94.9597 45.34H103.12V43.74H94.9597V45.34ZM103.12 45.34C106.998 45.34 109.76 46.2997 111.557 48.0785C113.352 49.8559 114.32 52.5854 114.32 56.42H115.92C115.92 52.3346 114.887 49.1241 112.683 46.9415C110.479 44.7603 107.241 43.74 103.12 43.74V45.34ZM114.32 56.42C114.32 60.9556 113.223 64.0014 111.227 65.7832L112.293 66.9767C114.777 64.7586 115.92 61.1644 115.92 56.42H114.32ZM111.239 65.7726C109.194 67.5258 106.206 68.46 102.16 68.46V70.06C106.433 70.06 109.846 69.0742 112.28 66.9874L111.239 65.7726ZM102.16 68.46H94.9597V70.06H102.16V68.46ZM192.239 31.82H193.039V31.02H192.239V31.82ZM144.359 31.82V31.02H143.559V31.82H144.359ZM144.359 117.5H143.559V118.3H144.359V117.5ZM193.439 117.5V118.3H194.239V117.5H193.439ZM193.439 103.34H194.239V102.54H193.439V103.34ZM161.639 103.34H160.839V104.14H161.639V103.34ZM161.639 80.3V79.5H160.839V80.3H161.639ZM190.439 80.3V81.1H191.239V80.3H190.439ZM190.439 66.14H191.239V65.34H190.439V66.14ZM161.639 66.14H160.839V66.94H161.639V66.14ZM161.639 45.98V45.18H160.839V45.98H161.639ZM192.239 45.98V46.78H193.039V45.98H192.239ZM192.239 31.02H144.359V32.62H192.239V31.02ZM143.559 31.82V117.5H145.159V31.82H143.559ZM144.359 118.3H193.439V116.7H144.359V118.3ZM194.239 117.5V103.34H192.639V117.5H194.239ZM193.439 102.54H161.639V104.14H193.439V102.54ZM162.439 103.34V80.3H160.839V103.34H162.439ZM161.639 81.1H190.439V79.5H161.639V81.1ZM191.239 80.3V66.14H189.639V80.3H191.239ZM190.439 65.34H161.639V66.94H190.439V65.34ZM162.439 66.14V45.98H160.839V66.14H162.439ZM161.639 46.78H192.239V45.18H161.639V46.78ZM193.039 45.98V31.82H191.439V45.98H193.039ZM222.053 31.82L222.807 31.5518L222.617 31.02H222.053V31.82ZM202.133 31.82V31.02H201.333V31.82H202.133ZM202.133 117.5H201.333V118.3H202.133V117.5ZM217.973 117.5V118.3H218.773V117.5H217.973ZM217.973 57.5V56.7H217.173V57.5H217.973ZM218.213 57.5L218.967 57.2344L218.779 56.7H218.213V57.5ZM239.333 117.5L238.578 117.766L238.766 118.3H239.333V117.5ZM259.013 117.5V118.3H259.813V117.5H259.013ZM259.013 31.82H259.813V31.02H259.013V31.82ZM243.173 31.82V31.02H242.373V31.82H243.173ZM243.173 90.5V91.3H243.973V90.5H243.173ZM242.933 90.5L242.179 90.7682L242.368 91.3H242.933V90.5ZM222.053 31.02H202.133V32.62H222.053V31.02ZM201.333 31.82V117.5H202.933V31.82H201.333ZM202.133 118.3H217.973V116.7H202.133V118.3ZM218.773 117.5V57.5H217.173V117.5H218.773ZM217.973 58.3H218.213V56.7H217.973V58.3ZM217.458 57.7656L238.578 117.766L240.087 117.234L218.967 57.2344L217.458 57.7656ZM239.333 118.3H259.013V116.7H239.333V118.3ZM259.813 117.5V31.82H258.213V117.5H259.813ZM259.013 31.02H243.173V32.62H259.013V31.02ZM242.373 31.82V90.5H243.973V31.82H242.373ZM243.173 89.7H242.933V91.3H243.173V89.7ZM243.687 90.2318L222.807 31.5518L221.299 32.0882L242.179 90.7682L243.687 90.2318ZM306.799 85.22V86.02H307.789L307.581 85.0519L306.799 85.22ZM298.519 46.7L299.301 46.5319L299.165 45.9H298.519V46.7ZM298.279 46.7V45.9H297.633L297.497 46.5319L298.279 46.7ZM289.999 85.22L289.217 85.0519L289.009 86.02H289.999V85.22ZM309.079 31.82L309.852 31.6153L309.695 31.02H309.079V31.82ZM331.759 117.5V118.3H332.798L332.532 117.295L331.759 117.5ZM313.759 117.5L312.978 117.671L313.115 118.3H313.759V117.5ZM309.799 99.38L310.581 99.2092L310.443 98.58H309.799V99.38ZM286.999 99.38V98.58H286.355L286.217 99.2092L286.999 99.38ZM283.039 117.5V118.3H283.683L283.821 117.671L283.039 117.5ZM265.039 117.5L264.266 117.295L264 118.3H265.039V117.5ZM287.719 31.82V31.02H287.103L286.946 31.6153L287.719 31.82ZM307.581 85.0519L299.301 46.5319L297.737 46.8681L306.017 85.3881L307.581 85.0519ZM298.519 45.9H298.279V47.5H298.519V45.9ZM297.497 46.5319L289.217 85.0519L290.781 85.3881L299.061 46.8681L297.497 46.5319ZM289.999 86.02H306.799V84.42H289.999V86.02ZM308.306 32.0247L330.986 117.705L332.532 117.295L309.852 31.6153L308.306 32.0247ZM331.759 116.7H313.759V118.3H331.759V116.7ZM314.541 117.329L310.581 99.2092L309.018 99.5508L312.978 117.671L314.541 117.329ZM309.799 98.58H286.999V100.18H309.799V98.58ZM286.217 99.2092L282.258 117.329L283.821 117.671L287.781 99.5508L286.217 99.2092ZM283.039 116.7H265.039V118.3H283.039V116.7ZM265.812 117.705L288.492 32.0247L286.946 31.6153L264.266 117.295L265.812 117.705ZM287.719 32.62H309.079V31.02H287.719V32.62Z" fill="#82D9FF"/>
</g>
<defs>
<filter id="filter0_f" x="0.281035" y="27.49" width="336.197" height="94.34" filterUnits="userSpaceOnUse" color-interpolation-filters="sRGB">
<feFlood flood-opacity="0" result="BackgroundImageFix"/>
<feBlend mode="normal" in="SourceGraphic" in2="BackgroundImageFix" result="shape"/>
<feGaussianBlur stdDeviation="1.515" result="effect1_foregroundBlur"/>
</filter>
<filter id="filter1_f" x="1.7815" y="29.11" width="333.196" height="91.1" filterUnits="userSpaceOnUse" color-interpolation-filters="sRGB">
<feFlood flood-opacity="0" result="BackgroundImageFix"/>
<feBlend mode="normal" in="SourceGraphic" in2="BackgroundImageFix" result="shape"/>
<feGaussianBlur stdDeviation="0.505" result="effect1_foregroundBlur"/>
</filter>
<filter id="filter2_ddi" x="1.99804" y="30.217" width="332.763" height="90.906" filterUnits="userSpaceOnUse" color-interpolation-filters="sRGB">
<feFlood flood-opacity="0" result="BackgroundImageFix"/>
<feColorMatrix in="SourceAlpha" type="matrix" values="0 0 0 0 0 0 0 0 0 0 0 0 0 0 0 0 0 0 127 0"/>
<feOffset dy="1.3"/>
<feGaussianBlur stdDeviation="0.5"/>
<feColorMatrix type="matrix" values="0 0 0 0 0 0 0 0 0 0.051 0 0 0 0 0.082 0 0 0 0.7 0"/>
<feBlend mode="multiply" in2="BackgroundImageFix" result="effect1_dropShadow"/>
<feColorMatrix in="SourceAlpha" type="matrix" values="0 0 0 0 0 0 0 0 0 0 0 0 0 0 0 0 0 0 127 0"/>
<feOffset dy="1.01"/>
<feGaussianBlur stdDeviation="0.6565"/>
<feColorMatrix type="matrix" values="0 0 0 0 0 0 0 0 0 0.4 0 0 0 0 1 0 0 0 1 0"/>
<feBlend mode="color-dodge" in2="effect1_dropShadow" result="effect2_dropShadow"/>
<feBlend mode="normal" in="SourceGraphic" in2="effect2_dropShadow" result="shape"/>
<feColorMatrix in="SourceAlpha" type="matrix" values="0 0 0 0 0 0 0 0 0 0 0 0 0 0 0 0 0 0 127 0" result="hardAlpha"/>
<feOffset dx="-0.13" dy="0.26"/>
<feGaussianBlur stdDeviation="0.065"/>
<feComposite in2="hardAlpha" operator="arithmetic" k2="-1" k3="1"/>
<feColorMatrix type="matrix" values="0 0 0 0 1 0 0 0 0 1 0 0 0 0 1 0 0 0 0.5 0"/>
<feBlend mode="normal" in2="shape" result="effect3_innerShadow"/>
</filter>
<filter id="filter3_f" x="3.76045" y="30.82" width="329.238" height="87.68" filterUnits="userSpaceOnUse" color-interpolation-filters="sRGB">
<feFlood flood-opacity="0" result="BackgroundImageFix"/>
<feBlend mode="normal" in="SourceGraphic" in2="BackgroundImageFix" result="shape"/>
<feGaussianBlur stdDeviation="0.1" result="effect1_foregroundBlur"/>
</filter>
</defs>
</svg>
