<svg width="47" height="64" viewBox="0 0 47 64" fill="none" xmlns="http://www.w3.org/2000/svg">
<path d="M20.7059 49.2532C20.7059 49.2532 19.7207 55.1036 20.7059 57.3116C21.6912 59.5035 24.2592 60.3577 24.2592 60.3577C24.2592 60.3577 24.6307 62.7914 26.1004 63.1621C27.5702 63.5327 45.0458 59.02 46.031 57.1827C47.0163 55.3454 43.7053 41.3237 43.7053 41.3237L20.7059 49.2532Z" stroke="white" stroke-miterlimit="10"/>
<path d="M2.24527 13.9891C1.61537 18.5985 5.29784 27.3016 14.5848 27.7852C23.8717 28.2687 38.9085 23.6431 40.8789 18.0183C42.8332 12.4097 39.6515 0.322044 29.6377 0.821667C19.624 1.32129 3.58582 4.1095 2.24527 13.9891Z" stroke="white" stroke-miterlimit="10"/>
<path d="M20.7056 49.2534C20.7056 49.2534 15.8118 45.8366 13.0015 45.1113C10.1912 44.3861 2.35788 43.5319 1.01733 33.9423C-0.323219 24.3528 5.21664 23.0957 5.21664 23.0957" stroke="white" stroke-miterlimit="10"/>
<path d="M43.6888 41.3236C43.6888 41.3236 45.5301 40.679 45.5301 37.9069C45.5301 36.1985 45.2878 29.51 44.2703 25.0295C43.4466 21.4032 40.8301 17.5352 40.8301 17.5352" stroke="white" stroke-miterlimit="10"/>
<path d="M23.0637 59.7934L36.6953 55.0228C37.3252 54.8133 37.6321 54.1042 37.3575 53.4917L35.807 50.1072C35.5809 49.6076 35.0156 49.3497 34.4826 49.4947L20.6895 54.0881" stroke="white" stroke-miterlimit="10"/>
</svg>
