<svg width="30" height="72" viewBox="0 0 30 72" fill="none" xmlns="http://www.w3.org/2000/svg">
<g clip-path="url(#clip0)">
<path d="M19.59 12.71H19.6V10.48H19.76C20.38 10.48 20.89 9.97 20.89 9.35C20.89 8.73 20.38 8.22 19.76 8.22H19.6V7.79H19.65C20.27 7.79 20.78 7.28 20.78 6.66C20.78 6.04 20.27 5.53 19.65 5.53H19.6V5.1H19.76C20.38 5.1 20.89 4.59 20.89 3.97C20.89 3.35 20.38 2.84 19.76 2.84H19.6V2.1C19.6 1.22 18.88 0.5 18 0.5H11.02C10.14 0.5 9.42 1.22 9.42 2.1V2.85C8.82 2.87 8.33 3.36 8.33 3.97C8.33 4.58 8.82 5.07 9.42 5.09V5.53H9.34C8.72 5.53 8.21 6.04 8.21 6.66C8.21 7.28 8.72 7.79 9.34 7.79H9.42V8.23C8.82 8.25 8.33 8.74 8.33 9.35C8.33 9.96 8.82 10.45 9.42 10.47V12.71C4.31 13.96 0.5 18.56 0.5 24.06V63.05C0.5 67.36 4 70.86 8.31 70.86H20.7C25.01 70.86 28.51 67.36 28.51 63.05V24.06C28.51 18.56 24.71 13.96 19.59 12.71Z" stroke="white" stroke-miterlimit="10" stroke-linecap="round" stroke-linejoin="round"/>
<path d="M14.6302 26.5902C14.6302 26.5902 17.6902 22.7302 20.4802 22.8002C24.5102 22.8902 25.2102 26.7602 25.2102 29.2302V61.8802C25.2102 65.3602 22.3102 68.1802 18.7402 68.1802H10.5202C6.95023 68.1802 4.05023 65.3602 4.05023 61.8802V29.2202C4.05023 29.2202 3.20023 21.9702 8.90023 21.9702C14.6002 21.9702 15.7102 33.0802 21.3802 31.3102C24.0302 30.4902 25.0002 27.6002 25.0002 27.6002" stroke="white" stroke-miterlimit="10" stroke-linecap="round" stroke-linejoin="round"/>
<path d="M9.52002 7.99023H19.7" stroke="white" stroke-miterlimit="10" stroke-linecap="round" stroke-linejoin="round"/>
<path d="M9.52002 5.33984H19.7" stroke="white" stroke-miterlimit="10" stroke-linecap="round" stroke-linejoin="round"/>
<path d="M10.0199 35.68C11.0306 35.68 11.8499 34.8607 11.8499 33.85C11.8499 32.8393 11.0306 32.02 10.0199 32.02C9.00926 32.02 8.18994 32.8393 8.18994 33.85C8.18994 34.8607 9.00926 35.68 10.0199 35.68Z" stroke="white" stroke-width="0.5" stroke-miterlimit="10" stroke-linecap="round" stroke-linejoin="round"/>
<path d="M16.9498 53.9098C17.4579 53.9098 17.8698 53.4979 17.8698 52.9898C17.8698 52.4817 17.4579 52.0698 16.9498 52.0698C16.4417 52.0698 16.0298 52.4817 16.0298 52.9898C16.0298 53.4979 16.4417 53.9098 16.9498 53.9098Z" stroke="white" stroke-width="0.5" stroke-miterlimit="10" stroke-linecap="round" stroke-linejoin="round"/>
<path d="M20.5 27C20.7761 27 21 26.7761 21 26.5C21 26.2239 20.7761 26 20.5 26C20.2239 26 20 26.2239 20 26.5C20 26.7761 20.2239 27 20.5 27Z" stroke="white" stroke-width="0.2" stroke-miterlimit="10" stroke-linecap="round" stroke-linejoin="round"/>
<path d="M14.0498 43.1099C14.3039 43.1099 14.5098 42.904 14.5098 42.6499C14.5098 42.3959 14.3039 42.1899 14.0498 42.1899C13.7958 42.1899 13.5898 42.3959 13.5898 42.6499C13.5898 42.904 13.7958 43.1099 14.0498 43.1099Z" fill="white"/>
<path d="M10.0201 53.4498C10.2741 53.4498 10.4801 53.2438 10.4801 52.9898C10.4801 52.7357 10.2741 52.5298 10.0201 52.5298C9.76601 52.5298 9.56006 52.7357 9.56006 52.9898C9.56006 53.2438 9.76601 53.4498 10.0201 53.4498Z" fill="white"/>
<path d="M17.8702 63.21C18.1242 63.21 18.3302 63.0041 18.3302 62.75C18.3302 62.496 18.1242 62.29 17.8702 62.29C17.6161 62.29 17.4102 62.496 17.4102 62.75C17.4102 63.0041 17.6161 63.21 17.8702 63.21Z" fill="white"/>
</g>
<defs>
<clipPath id="clip0">
<rect width="29.01" height="71.36" fill="white"/>
</clipPath>
</defs>
</svg>
