<svg width="88" height="42" viewBox="0 0 88 42" fill="none" xmlns="http://www.w3.org/2000/svg">
<g clip-path="url(#clip0)">
<path d="M65.2501 18.2201L70.2001 22.0601C70.9901 22.6701 71.9601 23.0101 72.9701 23.0101C76.8301 22.9801 86.6201 21.9401 86.6201 28.4901C86.6201 34.7701 82.1401 40.4401 71.8901 40.6401C61.6401 40.8401 22.7601 40.8801 18.2001 39.1901C13.6401 37.5001 12.5201 34.6701 13.1501 31.8701C13.7701 29.0801 14.9101 26.5601 13.9201 16.6901C13.3001 10.4801 16.8801 7.40007 18.7501 7.80007C21.8601 8.47007 22.9901 16.0901 28.4901 15.9401C33.8901 15.8001 32.2501 9.58006 39.1801 7.24006C43.0901 5.92006 45.3301 7.12006 45.3301 7.12006C45.3301 7.12006 42.1601 0.520065 36.9801 0.500065C31.8001 0.480065 31.7501 5.08006 31.7501 5.08006" stroke="white" stroke-miterlimit="10" stroke-linecap="round" stroke-linejoin="round"/>
<path d="M52.0801 13.8398C52.0801 13.8398 55.0701 11.2298 53.9501 8.72977C52.7601 6.08977 49.6301 6.66977 49.6301 6.66977" stroke="white" stroke-miterlimit="10" stroke-linecap="round" stroke-linejoin="round"/>
<path d="M59.4199 18.3202C59.4199 18.3202 62.4099 15.7102 61.2899 13.2102C60.0999 10.5702 56.9699 11.1502 56.9699 11.1502" stroke="white" stroke-miterlimit="10" stroke-linecap="round" stroke-linejoin="round"/>
<path d="M34.6402 11.0898C34.6402 11.0898 38.0802 11.6498 37.4902 17.0898C37.0302 21.3398 30.9002 18.3098 30.9002 22.1198C30.9002 26.6198 43.0002 24.3198 45.4202 26.6698C47.0902 28.2998 46.2802 29.8698 46.2802 29.8698" stroke="white" stroke-miterlimit="10" stroke-linecap="round" stroke-linejoin="round"/>
<path d="M13.8901 28.8302C13.8901 28.8302 34.7701 26.3402 48.5401 30.4902C62.3101 34.6402 74.4601 35.1802 86.3101 31.2702" stroke="white" stroke-miterlimit="10" stroke-linecap="round" stroke-linejoin="round"/>
<path d="M86.6201 28.4899C86.6201 28.4899 70.8801 29.8799 68.3901 27.7499C65.4801 25.2599 68.1901 20.8999 68.1901 20.8999" stroke="white" stroke-miterlimit="10" stroke-linecap="round" stroke-linejoin="round"/>
<path d="M7.61035 22.6899H0.500351" stroke="white" stroke-miterlimit="10" stroke-linecap="round" stroke-linejoin="round"/>
<path d="M9.43994 24.9199H4.76994" stroke="white" stroke-miterlimit="10" stroke-linecap="round" stroke-linejoin="round"/>
<path d="M5.74023 27.0898H1.06023" stroke="white" stroke-miterlimit="10" stroke-linecap="round" stroke-linejoin="round"/>
</g>
<defs>
<clipPath id="clip0">
<rect width="87.12" height="41.23" fill="white" transform="matrix(-1 0 0 1 87.1201 0)"/>
</clipPath>
</defs>
</svg>
