<svg width="49" height="53" viewBox="0 0 49 53" fill="none" xmlns="http://www.w3.org/2000/svg">
<g clip-path="url(#clip0)">
<path d="M11.346 52.3357H3.80442C2.06303 52.3357 0.669922 50.941 0.669922 49.2274V27.7352C0.669922 26.0084 2.07643 24.627 3.80442 24.627H11.3326C13.074 24.627 14.4671 26.0217 14.4671 27.7352V49.2142C14.4805 50.941 13.074 52.3357 11.346 52.3357Z" stroke="white" stroke-miterlimit="10"/>
<path d="M26.9934 8.56505C35.8075 4.44725 30.5566 24.1861 30.5566 24.1861C30.5566 24.1861 48.1312 20.7856 43.617 34.6267C41.0317 42.5435 37.9106 46.3956 35.7004 48.242C34.4278 49.3179 32.807 49.8758 31.1326 49.8758H19.626C18.2195 49.8758 16.8532 49.464 15.6878 48.6936L14.5 47.5747V28.5C14.5 28.5 17.4828 26.2184 20.0949 22.1538C22.7069 18.0891 24.5 10.5 26.9934 8.56505Z" stroke="white" stroke-miterlimit="10" stroke-linecap="round" stroke-linejoin="round"/>
<path d="M45.4828 13L46.7151 15.2316L48.979 16.4669L46.7151 17.689L45.4828 19.9206L44.2504 17.689L42 16.4669L44.2504 15.2316L45.4828 13Z" stroke="white" stroke-miterlimit="10" stroke-linecap="round" stroke-linejoin="round"/>
<path d="M36.8638 3.57324L37.7479 5.16723L39.3553 6.04392L37.7479 6.92061L36.8638 8.5146L35.9797 6.92061L34.3589 6.04392L35.9797 5.16723L36.8638 3.57324Z" stroke="white" stroke-width="0.5" stroke-miterlimit="10" stroke-linecap="round" stroke-linejoin="round"/>
<path d="M18.4962 1L19.7285 3.24486L21.9789 4.46692L19.7285 5.68897L18.4962 7.92055L17.2638 5.68897L15 4.46692L17.2638 3.24486L18.4962 1Z" stroke="white" stroke-miterlimit="10" stroke-linecap="round" stroke-linejoin="round"/>
</g>
<defs>
<clipPath id="clip0">
<rect width="49" height="53" fill="white"/>
</clipPath>
</defs>
</svg>
