<svg width="20" height="20" fill="none" xmlns="http://www.w3.org/2000/svg"><g clip-path="url(#clip0)"><path d="M19.486 14.751L17 12.265a1.76 1.76 0 00-2.487 0l-1.13 1.13c-.519.52-1.364.52-1.883 0L6.6 8.493a1.331 1.331 0 010-1.884l1.13-1.13a1.757 1.757 0 000-2.487L5.245.514A1.76 1.76 0 002.761.513l-.906.898a6.347 6.347 0 000 8.965l7.761 7.766a6.336 6.336 0 008.966 0l.904-.904a1.76 1.76 0 000-2.487zM3.588 1.343a.587.587 0 01.83 0l2.485 2.478c.229.23.229.6 0 .83l-.415.414-3.312-3.313.412-.409zm6.857 15.97L2.684 9.547a5.152 5.152 0 01-.324-6.953l3.304 3.303a2.501 2.501 0 00.109 3.424l4.898 4.903c.94.94 2.439.978 3.424.109l3.303 3.303a5.142 5.142 0 01-6.953-.323zm8.212-.904l-.414.414-3.315-3.315.414-.414a.587.587 0 01.829 0l2.486 2.486c.229.229.229.6 0 .829z" fill="#fff"/></g><defs><clipPath id="clip0"><path fill="#fff" d="M0 0h20v20H0z"/></clipPath></defs></svg>