<svg width="838" height="120" fill="none" xmlns="http://www.w3.org/2000/svg"><path d="M142.866 114.558L172.172 5.594h-23.506L130.808 80.68h-.305L111.881 5.594H89.444L70.517 79.763h-.305L52.964 5.594H29l28.848 108.964h24.27L100.28 40.39h.305l18.469 74.168h23.811zm59.579-54.024c0-4.782.509-9.41 1.527-13.887 1.119-4.477 2.849-8.445 5.189-11.904 2.341-3.56 5.394-6.359 9.159-8.394 3.765-2.136 8.344-3.204 13.737-3.204 5.393 0 9.972 1.068 13.737 3.204 3.765 2.035 6.818 4.833 9.158 8.394 2.341 3.46 4.02 7.427 5.037 11.904 1.119 4.476 1.679 9.105 1.679 13.887 0 4.578-.56 9.055-1.679 13.43-1.017 4.273-2.696 8.14-5.037 11.598-2.34 3.46-5.393 6.257-9.158 8.394-3.765 2.035-8.344 3.052-13.737 3.052-5.393 0-9.972-1.017-13.737-3.052-3.765-2.137-6.818-4.935-9.159-8.394-2.34-3.459-4.07-7.325-5.189-11.598a59.061 59.061 0 01-1.527-13.43zm-23.963 0c0 7.936 1.221 15.363 3.663 22.281 2.442 6.817 5.953 12.769 10.532 17.856 4.579 5.087 10.175 9.105 16.79 12.056 6.716 2.849 14.246 4.273 22.59 4.273 8.446 0 15.976-1.424 22.59-4.273 6.614-2.951 12.211-6.969 16.79-12.056 4.579-5.087 8.089-11.04 10.532-17.856 2.442-6.918 3.663-14.345 3.663-22.28 0-8.14-1.221-15.669-3.663-22.587-2.443-7.02-5.953-13.125-10.532-18.314-4.579-5.188-10.176-9.258-16.79-12.208C248.033 4.476 240.503 3 232.057 3c-8.344 0-15.874 1.475-22.59 4.426-6.615 2.95-12.211 7.02-16.79 12.209-4.579 5.188-8.09 11.293-10.532 18.313-2.442 6.918-3.663 14.447-3.663 22.586zm147.495-5.646V24.213h26.253c5.495 0 9.616 1.22 12.363 3.662 2.748 2.34 4.122 6.156 4.122 11.446 0 5.494-1.374 9.462-4.122 11.904-2.747 2.442-6.868 3.663-12.363 3.663h-26.253zM302.013 5.594v108.964h23.964V71.98h23.963c6.004 0 10.329 1.322 12.974 3.968 2.646 2.645 4.376 6.816 5.19 12.514a184.087 184.087 0 011.374 13.735c.305 4.782 1.119 8.902 2.442 12.361h23.964c-1.12-1.526-1.984-3.357-2.595-5.494a71.751 71.751 0 01-1.221-7.02 180.634 180.634 0 01-.458-7.172c-.102-2.34-.204-4.375-.305-6.105a57.678 57.678 0 00-1.221-8.24c-.509-2.748-1.374-5.24-2.595-7.479-1.221-2.34-2.799-4.324-4.732-5.952-1.933-1.73-4.375-3.001-7.326-3.815v-.305c6.105-2.442 10.481-6.003 13.126-10.683 2.748-4.68 4.121-10.225 4.121-16.634 0-4.172-.763-8.038-2.289-11.599a26.614 26.614 0 00-6.411-9.614c-2.747-2.747-6.105-4.884-10.074-6.41-3.867-1.628-8.242-2.442-13.126-2.442h-58.765zm110.154 0v108.964h23.964v-35.1l13.737-13.888 32.817 48.988h30.069L466.047 48.63l42.586-43.036h-29.917l-42.585 45.173V5.594h-23.964zm129.386 54.94c0-4.782.509-9.41 1.526-13.887 1.12-4.477 2.85-8.445 5.19-11.904 2.34-3.56 5.393-6.359 9.158-8.394 3.765-2.136 8.344-3.204 13.737-3.204 5.394 0 9.973 1.068 13.738 3.204 3.765 2.035 6.817 4.833 9.158 8.394 2.34 3.46 4.019 7.427 5.037 11.904 1.119 4.476 1.679 9.105 1.679 13.887 0 4.578-.56 9.055-1.679 13.43-1.018 4.273-2.697 8.14-5.037 11.598-2.341 3.46-5.393 6.257-9.158 8.394-3.765 2.035-8.344 3.052-13.738 3.052-5.393 0-9.972-1.017-13.737-3.052-3.765-2.137-6.818-4.935-9.158-8.394-2.34-3.459-4.07-7.325-5.19-11.598a59.117 59.117 0 01-1.526-13.43zm-23.964 0c0 7.936 1.221 15.363 3.664 22.281 2.442 6.817 5.952 12.769 10.531 17.856 4.58 5.087 10.176 9.105 16.79 12.056 6.716 2.849 14.246 4.273 22.59 4.273 8.446 0 15.976-1.424 22.591-4.273 6.614-2.951 12.21-6.969 16.789-12.056 4.58-5.087 8.09-11.04 10.532-17.856 2.442-6.918 3.664-14.345 3.664-22.28 0-8.14-1.222-15.669-3.664-22.587-2.442-7.02-5.952-13.125-10.532-18.314-4.579-5.188-10.175-9.258-16.789-12.208C587.14 4.476 579.61 3 571.164 3c-8.344 0-15.874 1.475-22.59 4.426-6.614 2.95-12.21 7.02-16.79 12.209-4.579 5.188-8.089 11.293-10.531 18.313-2.443 6.918-3.664 14.447-3.664 22.586zm216.029 12.819V5.594h-23.964v67.76c0 8.139-1.628 14.141-4.884 18.007-3.257 3.765-9.159 5.647-17.706 5.647-4.884 0-8.802-.661-11.753-1.984-2.849-1.424-5.088-3.205-6.716-5.341-1.628-2.239-2.697-4.782-3.205-7.63a49.359 49.359 0 01-.764-8.7V5.594h-23.963v67.76c0 14.853 4.019 25.841 12.058 32.963 8.14 7.122 19.588 10.683 34.343 10.683 14.551 0 25.948-3.561 34.19-10.683 8.243-7.223 12.364-18.211 12.364-32.964zm44.754-47.614v88.819h23.964V25.739H835V5.594h-89.292V25.74h32.664z" opacity=".5" fill="#0036D7"/><path fill-rule="evenodd" clip-rule="evenodd" d="M144.84 117.553h-28.256l-16.372-65.864-16.1 65.864H55.379L25 2.6h29.97l15.258 65.728L86.97 2.6h26.914l16.489 66.605L146.186 2.6h29.515L144.84 117.553zm3.608-112.085h23.518l-29.321 109.217h-23.823l-18.479-74.34h-.305l-18.173 74.34H57.583L28.72 5.468h23.976l17.257 74.34h.305l18.937-74.34h22.449l18.631 75.259h.306l17.867-75.259zm60.527 29.216c-2.342 3.468-4.073 7.445-5.193 11.932-1.018 4.487-1.527 9.127-1.527 13.92 0 4.588.509 9.075 1.527 13.46 1.12 4.283 2.851 8.158 5.193 11.625 2.341 3.468 5.395 6.272 9.162 8.413 3.767 2.04 8.349 3.06 13.745 3.06 5.396 0 9.977-1.02 13.744-3.06 3.767-2.141 6.821-4.945 9.163-8.413 2.342-3.467 4.021-7.342 5.039-11.625a54.178 54.178 0 001.68-13.46c0-4.794-.56-9.433-1.68-13.92-1.018-4.487-2.697-8.464-5.039-11.931-2.342-3.57-5.396-6.374-9.163-8.414-3.767-2.141-8.348-3.212-13.744-3.212-5.396 0-9.978 1.071-13.745 3.212-3.767 2.04-6.821 4.844-9.162 8.413zm35.264 56.841c3.386-1.93 6.098-4.43 8.178-7.51 2.138-3.166 3.684-6.72 4.626-10.683l.005-.023.006-.024a51.299 51.299 0 001.591-12.75c0-4.566-.533-8.972-1.594-13.224l-.008-.03-.007-.03c-.947-4.174-2.495-7.815-4.619-10.96l-.011-.015-.01-.016c-2.08-3.171-4.78-5.65-8.132-7.465l-.026-.015-.025-.014c-3.243-1.843-7.311-2.839-12.331-2.839-5.021 0-9.089.996-12.331 2.839l-.026.015-.026.014c-3.352 1.814-6.051 4.294-8.132 7.465l-.01.016-.011.015c-2.13 3.155-3.731 6.807-4.778 10.99-.965 4.261-1.45 8.677-1.45 13.254 0 4.361.483 8.617 1.444 12.773 1.043 3.972 2.641 7.533 4.784 10.706 2.08 3.08 4.793 5.582 8.179 7.511 3.249 1.753 7.328 2.7 12.357 2.7 5.028 0 9.107-.947 12.357-2.7zm-64.991-7.69l-.004-.012c-2.56-7.265-3.829-15.035-3.829-23.288 0-8.445 1.266-16.316 3.827-23.587 2.556-7.36 6.249-13.806 11.092-19.305 4.866-5.523 10.805-9.841 17.779-12.958l.008-.003.007-.004C215.257 1.541 223.191 0 231.882 0c8.786 0 16.727 1.538 23.768 4.685 6.975 3.117 12.914 7.435 17.779 12.959 4.844 5.498 8.536 11.945 11.092 19.304 2.562 7.27 3.827 15.142 3.827 23.587 0 8.253-1.268 16.023-3.828 23.288l-.005.012c-2.562 7.163-6.26 13.457-11.105 18.848-4.864 5.415-10.798 9.674-17.76 12.785l-.017.008-.017.007c-7.031 3.034-14.961 4.517-23.734 4.517-8.678 0-16.6-1.485-23.72-4.511l-.025-.01-.024-.011c-6.962-3.111-12.895-7.37-17.76-12.785-4.845-5.391-8.543-11.685-11.105-18.848zm102.571-45.938c-2.443-7.037-5.955-13.155-10.537-18.356-4.581-5.2-10.181-9.28-16.799-12.237-6.617-2.957-14.151-4.436-22.601-4.436-8.349 0-15.883 1.479-22.602 4.436-6.618 2.957-12.217 7.036-16.799 12.237-4.581 5.2-8.094 11.32-10.537 18.356-2.443 6.934-3.665 14.48-3.665 22.638 0 7.955 1.222 15.399 3.665 22.333 2.443 6.832 5.956 12.798 10.537 17.897 4.582 5.099 10.181 9.127 16.799 12.084 6.719 2.855 14.253 4.283 22.602 4.283 8.45 0 15.984-1.428 22.601-4.283 6.618-2.957 12.218-6.985 16.799-12.084 4.582-5.099 8.094-11.065 10.537-17.897 2.444-6.934 3.666-14.378 3.666-22.333 0-8.158-1.222-15.704-3.666-22.638zm80.788-7.932l-.022-.02c-2.018-1.797-5.334-2.947-10.468-2.947h-23.403v25.01h23.403c5.134 0 8.45-1.15 10.468-2.947 1.887-1.68 3.162-4.691 3.162-9.788 0-4.863-1.259-7.703-3.117-9.289l-.023-.02zM299.011 2.6h61.658c5.19 0 9.94.865 14.203 2.655 4.283 1.656 7.971 3.995 11.016 7.039a29.54 29.54 0 017.059 10.598c1.678 3.94 2.503 8.188 2.503 12.71 0 6.833-1.463 12.904-4.506 18.105-2.131 3.768-5.207 6.834-9.123 9.237a18.49 18.49 0 012.716 2.002c2.211 1.873 4.005 4.143 5.383 6.782 1.366 2.513 2.318 5.278 2.876 8.272a60.676 60.676 0 011.272 8.622l.001.022.001.021c.103 1.752.206 3.807.308 6.163.099 2.287.248 4.626.446 7.016.29 2.31.673 4.516 1.148 6.62.531 1.836 1.254 3.328 2.13 4.524l3.342 4.565h-31.598l-.703-1.844c-1.452-3.803-2.308-8.231-2.627-13.232a182.258 182.258 0 00-1.352-13.55c-.772-5.404-2.353-8.882-4.382-10.914-1.862-1.866-5.267-3.137-10.956-3.137h-21.112v42.677h-29.703V2.6zm68.988 85.928a185.465 185.465 0 011.375 13.766c.305 4.793 1.12 8.923 2.443 12.391h23.976a15.511 15.511 0 01-1.646-2.869 19.84 19.84 0 01-.95-2.638 72.141 72.141 0 01-1.221-7.036 181.6 181.6 0 01-.459-7.19 395.458 395.458 0 00-.305-6.118 57.799 57.799 0 00-1.222-8.26c-.509-2.754-1.374-5.252-2.596-7.496-1.222-2.345-2.8-4.334-4.734-5.965a16.169 16.169 0 00-3.841-2.535 20.937 20.937 0 00-3.352-1.25l-.137-.04v-.305l.094-.038a34.67 34.67 0 003.307-1.535c4.361-2.32 7.605-5.366 9.732-9.135 2.749-4.69 4.123-10.248 4.123-16.673 0-4.18-.763-8.056-2.29-11.625a26.688 26.688 0 00-6.414-9.637c-2.749-2.753-6.109-4.895-10.08-6.424-3.868-1.632-8.246-2.448-13.133-2.448h-58.795v109.217h23.976V72.008h23.976c6.007 0 10.334 1.325 12.981 3.977 2.647 2.651 4.378 6.832 5.192 12.543zM409.222 2.6h29.703v40.921l38.508-40.92h38.029l-45.743 46.31 48.542 68.642h-37.15l-31.734-47.457-10.452 10.586v36.871h-29.703V2.6zm26.839 76.903l13.744-13.92 32.834 49.102h30.085l-46.731-66.08 42.608-43.137h-29.933l-42.607 45.278V5.468h-23.976v109.217h23.976V79.503zM557.42 26.272c-3.767 2.039-6.821 4.843-9.163 8.413-2.341 3.467-4.072 7.444-5.192 11.93-1.018 4.488-1.527 9.127-1.527 13.92 0 4.59.509 9.076 1.527 13.461 1.12 4.283 2.851 8.158 5.192 11.625 2.342 3.468 5.396 6.272 9.163 8.413 3.767 2.04 8.349 3.06 13.745 3.06 5.395 0 9.977-1.02 13.744-3.06 3.767-2.141 6.821-4.945 9.163-8.413 2.341-3.467 4.021-7.342 5.039-11.625a54.178 54.178 0 001.68-13.46c0-4.794-.56-9.433-1.68-13.92-1.018-4.487-2.698-8.464-5.039-11.931-2.342-3.57-5.396-6.374-9.163-8.414-3.767-2.141-8.349-3.212-13.744-3.212-5.396 0-9.978 1.071-13.745 3.212zm1.388 65.253c3.249 1.753 7.328 2.7 12.357 2.7 5.028 0 9.107-.947 12.357-2.7 3.386-1.93 6.098-4.43 8.178-7.51 2.138-3.166 3.684-6.72 4.626-10.683l.005-.023.006-.024a51.299 51.299 0 001.591-12.75c0-4.566-.533-8.972-1.595-13.224l-.007-.03-.007-.03c-.947-4.174-2.495-7.815-4.619-10.96l-.011-.015-.01-.016c-2.08-3.171-4.78-5.65-8.132-7.465l-.026-.015-.025-.014c-3.243-1.843-7.311-2.839-12.331-2.839-5.021 0-9.089.996-12.331 2.839l-.026.015-.026.014c-3.352 1.814-6.051 4.294-8.132 7.465l-.01.016-.011.015c-2.13 3.155-3.731 6.808-4.779 10.991-.964 4.26-1.449 8.677-1.449 13.253 0 4.361.482 8.617 1.444 12.773 1.043 3.971 2.641 7.533 4.784 10.706 2.08 3.08 4.793 5.582 8.179 7.511zm-40.277-7.69l-.004-.012c-2.56-7.265-3.829-15.035-3.829-23.288 0-8.445 1.265-16.316 3.827-23.587 2.556-7.36 6.248-13.806 11.092-19.305 4.866-5.523 10.805-9.841 17.779-12.958l.008-.003.007-.004C554.54 1.541 562.474 0 571.165 0c8.786 0 16.727 1.538 23.768 4.685 6.975 3.117 12.914 7.435 17.779 12.959 4.844 5.498 8.536 11.945 11.092 19.303 2.562 7.272 3.827 15.142 3.827 23.588 0 8.253-1.269 16.023-3.829 23.288l-.004.012c-2.562 7.163-6.26 13.457-11.105 18.848-4.865 5.415-10.798 9.674-17.76 12.785l-.017.008-.017.007c-7.032 3.034-14.961 4.517-23.734 4.517-8.678 0-16.6-1.485-23.72-4.511l-.025-.01-.024-.011c-6.962-3.111-12.895-7.37-17.76-12.785-4.845-5.391-8.543-11.685-11.105-18.848zm102.571-45.938c2.444 6.934 3.665 14.48 3.665 22.638 0 7.955-1.221 15.399-3.665 22.333-2.443 6.832-5.956 12.798-10.537 17.897-4.581 5.099-10.181 9.127-16.799 12.084-6.617 2.855-14.151 4.283-22.601 4.283-8.349 0-15.883-1.428-22.602-4.283-6.618-2.957-12.217-6.985-16.799-12.084-4.581-5.099-8.094-11.065-10.537-17.897-2.443-6.934-3.665-14.378-3.665-22.333 0-8.158 1.222-15.704 3.665-22.638 2.443-7.037 5.956-13.155 10.537-18.356 4.582-5.2 10.181-9.28 16.799-12.237 6.719-2.957 14.253-4.436 22.602-4.436 8.45 0 15.984 1.479 22.601 4.436 6.618 2.957 12.218 7.036 16.799 12.237 4.581 5.2 8.094 11.32 10.537 18.356zM736.565 2.6v70.784c0 15.312-4.284 27.241-13.346 35.197l-.007.007-.008.006c-8.919 7.721-21.067 11.406-36.08 11.406-15.202 0-27.416-3.678-36.246-11.417l-.007-.006-.007-.006c-8.864-7.867-13.029-19.804-13.029-35.187V2.6h29.703v70.784c0 2.792.24 5.53.719 8.215.435 2.437 1.333 4.57 2.685 6.44 1.309 1.71 3.157 3.217 5.648 4.473 2.442 1.083 5.898 1.714 10.534 1.714 8.276 0 13.105-1.85 15.537-4.654 2.619-3.126 4.201-8.332 4.201-16.188V2.6h29.703zm-31.726 88.834c3.258-3.875 4.887-9.892 4.887-18.05V5.468h23.976v67.916c0 14.787-4.123 25.8-12.37 33.04-8.247 7.139-19.649 10.708-34.208 10.708-14.762 0-26.216-3.569-34.361-10.708-8.043-7.138-12.064-18.151-12.064-33.04V5.468h23.976v67.916c0 2.958.254 5.864.763 8.72.509 2.855 1.579 5.404 3.208 7.647 1.628 2.142 3.868 3.926 6.719 5.354 2.952 1.326 6.872 1.989 11.759 1.989 8.552 0 14.457-1.887 17.715-5.66zm40.96-65.774V5.468h89.338V25.66h-32.681v89.025h-23.977V25.66h-32.68zm29.817 2.868v89.025h29.703V28.528H838V2.6h-95.065v25.928h32.681zM325.85 54.876h26.267c5.498 0 9.621-1.224 12.37-3.671 2.749-2.448 4.123-6.425 4.123-11.932 0-5.302-1.374-9.126-4.123-11.472-2.749-2.447-6.872-3.671-12.37-3.671H325.85v30.746z" fill="#0036D7" fill-opacity=".6" opacity=".5"/><path d="M117.866 114.558L147.172 5.594h-23.506L105.808 80.68h-.305L86.881 5.594H64.444L45.517 79.763h-.305L27.964 5.594H4l28.848 108.964h24.27L75.28 40.39h.305l18.47 74.168h23.81zm59.579-54.024c0-4.782.509-9.41 1.527-13.887 1.119-4.477 2.849-8.445 5.189-11.904 2.341-3.56 5.394-6.359 9.159-8.394 3.765-2.136 8.344-3.204 13.737-3.204 5.393 0 9.972 1.068 13.737 3.204 3.765 2.035 6.818 4.833 9.158 8.394 2.341 3.46 4.02 7.427 5.037 11.904 1.119 4.476 1.679 9.105 1.679 13.887 0 4.578-.56 9.055-1.679 13.43-1.017 4.273-2.696 8.14-5.037 11.598-2.34 3.46-5.393 6.257-9.158 8.394-3.765 2.035-8.344 3.052-13.737 3.052-5.393 0-9.972-1.017-13.737-3.052-3.765-2.137-6.818-4.935-9.159-8.394-2.34-3.459-4.07-7.325-5.189-11.598a59.061 59.061 0 01-1.527-13.43zm-23.963 0c0 7.936 1.221 15.363 3.663 22.281 2.442 6.817 5.953 12.769 10.532 17.856 4.579 5.087 10.175 9.105 16.79 12.056 6.716 2.849 14.246 4.273 22.59 4.273 8.446 0 15.976-1.424 22.59-4.273 6.614-2.951 12.211-6.969 16.79-12.056 4.579-5.087 8.089-11.04 10.532-17.856 2.442-6.918 3.663-14.345 3.663-22.28 0-8.14-1.221-15.669-3.663-22.587-2.443-7.02-5.953-13.125-10.532-18.314-4.579-5.188-10.176-9.258-16.79-12.208C223.033 4.476 215.503 3 207.057 3c-8.344 0-15.874 1.475-22.59 4.426-6.615 2.95-12.211 7.02-16.79 12.209-4.579 5.188-8.09 11.293-10.532 18.313-2.442 6.918-3.663 14.447-3.663 22.586zm147.495-5.646V24.213h26.253c5.495 0 9.616 1.22 12.363 3.662 2.748 2.34 4.122 6.156 4.122 11.446 0 5.494-1.374 9.462-4.122 11.904-2.747 2.442-6.868 3.663-12.363 3.663h-26.253zM277.013 5.594v108.964h23.964V71.98h23.963c6.004 0 10.329 1.322 12.974 3.968 2.646 2.645 4.376 6.816 5.19 12.514a184.087 184.087 0 011.374 13.735c.305 4.782 1.119 8.902 2.442 12.361h23.964c-1.12-1.526-1.984-3.357-2.595-5.494a71.751 71.751 0 01-1.221-7.02 180.634 180.634 0 01-.458-7.172c-.102-2.34-.204-4.375-.305-6.105a57.678 57.678 0 00-1.221-8.24c-.509-2.748-1.374-5.24-2.595-7.479-1.221-2.34-2.799-4.324-4.732-5.952-1.933-1.73-4.375-3.001-7.326-3.815v-.305c6.105-2.442 10.481-6.003 13.126-10.683 2.748-4.68 4.121-10.225 4.121-16.634 0-4.172-.763-8.038-2.289-11.599a26.614 26.614 0 00-6.411-9.614c-2.747-2.747-6.105-4.884-10.074-6.41-3.867-1.628-8.242-2.442-13.126-2.442h-58.765zm110.154 0v108.964h23.964v-35.1l13.737-13.888 32.817 48.988h30.069L441.047 48.63l42.586-43.036h-29.917l-42.585 45.173V5.594h-23.964zm129.386 54.94c0-4.782.509-9.41 1.526-13.887 1.12-4.477 2.85-8.445 5.19-11.904 2.34-3.56 5.393-6.359 9.158-8.394 3.765-2.136 8.344-3.204 13.737-3.204 5.394 0 9.973 1.068 13.738 3.204 3.765 2.035 6.817 4.833 9.158 8.394 2.34 3.46 4.019 7.427 5.037 11.904 1.119 4.476 1.679 9.105 1.679 13.887 0 4.578-.56 9.055-1.679 13.43-1.018 4.273-2.697 8.14-5.037 11.598-2.341 3.46-5.393 6.257-9.158 8.394-3.765 2.035-8.344 3.052-13.738 3.052-5.393 0-9.972-1.017-13.737-3.052-3.765-2.137-6.818-4.935-9.158-8.394-2.34-3.459-4.07-7.325-5.19-11.598a59.117 59.117 0 01-1.526-13.43zm-23.964 0c0 7.936 1.221 15.363 3.664 22.281 2.442 6.817 5.952 12.769 10.531 17.856 4.58 5.087 10.176 9.105 16.79 12.056 6.716 2.849 14.246 4.273 22.59 4.273 8.446 0 15.976-1.424 22.591-4.273 6.614-2.951 12.21-6.969 16.789-12.056 4.58-5.087 8.09-11.04 10.532-17.856 2.442-6.918 3.664-14.345 3.664-22.28 0-8.14-1.222-15.669-3.664-22.587-2.442-7.02-5.952-13.125-10.532-18.314-4.579-5.188-10.175-9.258-16.789-12.208C562.14 4.476 554.61 3 546.164 3c-8.344 0-15.874 1.475-22.59 4.426-6.614 2.95-12.21 7.02-16.79 12.209-4.579 5.188-8.089 11.293-10.531 18.313-2.443 6.918-3.664 14.447-3.664 22.586zm216.029 12.819V5.594h-23.964v67.76c0 8.139-1.628 14.141-4.884 18.007-3.257 3.765-9.159 5.647-17.706 5.647-4.884 0-8.802-.661-11.753-1.984-2.849-1.424-5.088-3.205-6.716-5.341-1.628-2.239-2.697-4.782-3.205-7.63a49.359 49.359 0 01-.764-8.7V5.594h-23.963v67.76c0 14.853 4.019 25.841 12.058 32.963 8.14 7.122 19.588 10.683 34.343 10.683 14.551 0 25.948-3.561 34.19-10.683 8.243-7.223 12.364-18.211 12.364-32.964zm44.754-47.614v88.819h23.964V25.739H810V5.594h-89.292V25.74h32.664z" fill="#fff"/><path fill-rule="evenodd" clip-rule="evenodd" d="M119.84 117.553H91.584L75.212 51.689l-16.1 65.864H30.378L0 2.6h29.97l15.258 65.728L61.97 2.6h26.914l16.489 66.605L121.186 2.6h29.515L119.84 117.553zm3.608-112.085h23.518l-29.321 109.217H93.822l-18.479-74.34h-.305l-18.173 74.34H32.583L3.72 5.468h23.976l17.257 74.34h.305l18.937-74.34h22.449l18.631 75.259h.306l17.867-75.259zm60.527 29.216c-2.342 3.468-4.073 7.445-5.193 11.932-1.018 4.487-1.527 9.127-1.527 13.92 0 4.588.509 9.075 1.527 13.46 1.12 4.283 2.851 8.158 5.193 11.625 2.341 3.468 5.395 6.272 9.162 8.413 3.767 2.04 8.349 3.06 13.745 3.06 5.396 0 9.977-1.02 13.744-3.06 3.767-2.141 6.821-4.945 9.163-8.413 2.342-3.467 4.021-7.342 5.039-11.625a54.178 54.178 0 001.68-13.46c0-4.794-.56-9.433-1.68-13.92-1.018-4.487-2.697-8.464-5.039-11.931-2.342-3.57-5.396-6.374-9.163-8.414-3.767-2.141-8.348-3.212-13.744-3.212-5.396 0-9.978 1.071-13.745 3.212-3.767 2.04-6.821 4.844-9.162 8.413zm35.264 56.841c3.386-1.93 6.098-4.43 8.178-7.51 2.138-3.166 3.684-6.72 4.626-10.683l.005-.023.006-.024a51.299 51.299 0 001.591-12.75c0-4.566-.533-8.972-1.594-13.224l-.008-.03-.007-.03c-.947-4.174-2.495-7.815-4.619-10.96l-.011-.015-.01-.016c-2.08-3.171-4.78-5.65-8.132-7.465l-.026-.015-.025-.014c-3.243-1.843-7.311-2.839-12.331-2.839-5.021 0-9.089.996-12.331 2.839l-.026.015-.026.014c-3.352 1.814-6.051 4.294-8.132 7.465l-.01.016-.011.015c-2.13 3.155-3.731 6.807-4.778 10.99-.965 4.261-1.45 8.677-1.45 13.254 0 4.361.483 8.617 1.444 12.773 1.043 3.972 2.641 7.533 4.784 10.706 2.08 3.08 4.793 5.582 8.179 7.511 3.249 1.753 7.328 2.7 12.357 2.7 5.028 0 9.107-.947 12.357-2.7zm-64.991-7.69l-.004-.012c-2.56-7.265-3.829-15.035-3.829-23.288 0-8.445 1.266-16.316 3.827-23.587 2.556-7.36 6.249-13.806 11.092-19.305 4.866-5.523 10.805-9.841 17.779-12.958l.008-.003.007-.004C190.257 1.541 198.191 0 206.882 0c8.786 0 16.727 1.538 23.768 4.685 6.975 3.117 12.914 7.435 17.779 12.959 4.844 5.498 8.536 11.945 11.092 19.304 2.562 7.27 3.827 15.142 3.827 23.587 0 8.253-1.268 16.023-3.828 23.288l-.005.012c-2.562 7.163-6.26 13.457-11.105 18.848-4.864 5.415-10.798 9.674-17.76 12.785l-.017.008-.017.007c-7.031 3.034-14.961 4.517-23.734 4.517-8.678 0-16.6-1.485-23.72-4.511l-.025-.01-.024-.011c-6.962-3.111-12.895-7.37-17.76-12.785-4.845-5.391-8.543-11.685-11.105-18.848zm102.571-45.938c-2.443-7.037-5.955-13.155-10.537-18.356-4.581-5.2-10.181-9.28-16.799-12.237-6.617-2.957-14.151-4.436-22.601-4.436-8.349 0-15.883 1.479-22.602 4.436-6.618 2.957-12.217 7.036-16.799 12.237-4.581 5.2-8.094 11.32-10.537 18.356-2.443 6.934-3.665 14.48-3.665 22.638 0 7.955 1.222 15.399 3.665 22.333 2.443 6.832 5.956 12.798 10.537 17.897 4.582 5.099 10.181 9.127 16.799 12.084 6.719 2.855 14.253 4.283 22.602 4.283 8.45 0 15.984-1.428 22.601-4.283 6.618-2.957 12.218-6.985 16.799-12.084 4.582-5.099 8.094-11.065 10.537-17.897 2.444-6.934 3.666-14.378 3.666-22.333 0-8.158-1.222-15.704-3.666-22.638zm80.788-7.932l-.022-.02c-2.018-1.797-5.334-2.947-10.468-2.947h-23.403v25.01h23.403c5.134 0 8.45-1.15 10.468-2.947 1.887-1.68 3.162-4.691 3.162-9.788 0-4.863-1.259-7.703-3.117-9.289l-.023-.02zM274.011 2.6h61.658c5.19 0 9.94.865 14.203 2.655 4.283 1.656 7.971 3.995 11.016 7.039a29.54 29.54 0 017.059 10.598c1.678 3.94 2.503 8.188 2.503 12.71 0 6.833-1.463 12.904-4.506 18.105-2.131 3.768-5.207 6.834-9.123 9.237a18.49 18.49 0 012.716 2.002c2.211 1.873 4.005 4.143 5.383 6.782 1.366 2.513 2.318 5.278 2.876 8.272a60.676 60.676 0 011.272 8.622l.001.022.001.021c.103 1.752.206 3.807.308 6.163.099 2.287.248 4.626.446 7.016.29 2.31.673 4.516 1.148 6.62.531 1.836 1.254 3.328 2.13 4.524l3.342 4.565h-31.598l-.703-1.844c-1.452-3.803-2.308-8.231-2.627-13.232a182.258 182.258 0 00-1.352-13.55c-.772-5.404-2.353-8.882-4.382-10.914-1.862-1.866-5.267-3.137-10.956-3.137h-21.112v42.677h-29.703V2.6zm68.988 85.928a185.465 185.465 0 011.375 13.766c.305 4.793 1.12 8.923 2.443 12.391h23.976a15.511 15.511 0 01-1.646-2.869 19.84 19.84 0 01-.95-2.638 72.141 72.141 0 01-1.221-7.036 181.6 181.6 0 01-.459-7.19 395.458 395.458 0 00-.305-6.118 57.799 57.799 0 00-1.222-8.26c-.509-2.754-1.374-5.252-2.596-7.496-1.222-2.345-2.8-4.334-4.734-5.965a16.169 16.169 0 00-3.841-2.535 20.937 20.937 0 00-3.352-1.25l-.137-.04v-.305l.094-.038a34.67 34.67 0 003.307-1.535c4.361-2.32 7.605-5.366 9.732-9.135 2.749-4.69 4.123-10.248 4.123-16.673 0-4.18-.763-8.056-2.29-11.625a26.688 26.688 0 00-6.414-9.637c-2.749-2.753-6.109-4.895-10.08-6.424-3.868-1.632-8.246-2.448-13.133-2.448h-58.795v109.217h23.976V72.008h23.976c6.007 0 10.334 1.325 12.981 3.977 2.647 2.651 4.378 6.832 5.192 12.543zM384.222 2.6h29.703v40.921l38.508-40.92h38.029l-45.743 46.31 48.542 68.642h-37.15l-31.734-47.457-10.452 10.586v36.871h-29.703V2.6zm26.839 76.903l13.744-13.92 32.834 49.102h30.085l-46.731-66.08 42.608-43.137h-29.933l-42.607 45.278V5.468h-23.976v109.217h23.976V79.503zM532.42 26.272c-3.767 2.039-6.821 4.843-9.163 8.413-2.341 3.467-4.072 7.444-5.192 11.93-1.018 4.488-1.527 9.127-1.527 13.92 0 4.59.509 9.076 1.527 13.461 1.12 4.283 2.851 8.158 5.192 11.625 2.342 3.468 5.396 6.272 9.163 8.413 3.767 2.04 8.349 3.06 13.745 3.06 5.395 0 9.977-1.02 13.744-3.06 3.767-2.141 6.821-4.945 9.163-8.413 2.341-3.467 4.021-7.342 5.039-11.625a54.178 54.178 0 001.68-13.46c0-4.794-.56-9.433-1.68-13.92-1.018-4.487-2.698-8.464-5.039-11.931-2.342-3.57-5.396-6.374-9.163-8.414-3.767-2.141-8.349-3.212-13.744-3.212-5.396 0-9.978 1.071-13.745 3.212zm1.388 65.253c3.249 1.753 7.328 2.7 12.357 2.7 5.028 0 9.107-.947 12.357-2.7 3.386-1.93 6.098-4.43 8.178-7.51 2.138-3.166 3.684-6.72 4.626-10.683l.005-.023.006-.024a51.299 51.299 0 001.591-12.75c0-4.566-.533-8.972-1.595-13.224l-.007-.03-.007-.03c-.947-4.174-2.495-7.815-4.619-10.96l-.011-.015-.01-.016c-2.08-3.171-4.78-5.65-8.132-7.465l-.026-.015-.025-.014c-3.243-1.843-7.311-2.839-12.331-2.839-5.021 0-9.089.996-12.331 2.839l-.026.015-.026.014c-3.352 1.814-6.051 4.294-8.132 7.465l-.01.016-.011.015c-2.13 3.155-3.731 6.808-4.779 10.991-.964 4.26-1.449 8.677-1.449 13.253 0 4.361.482 8.617 1.444 12.773 1.043 3.971 2.641 7.533 4.784 10.706 2.08 3.08 4.793 5.582 8.179 7.511zm-40.277-7.69l-.004-.012c-2.56-7.265-3.829-15.035-3.829-23.288 0-8.445 1.265-16.316 3.827-23.587 2.556-7.36 6.248-13.806 11.092-19.305 4.866-5.523 10.805-9.841 17.779-12.958l.008-.003.007-.004C529.54 1.541 537.474 0 546.165 0c8.786 0 16.727 1.538 23.768 4.685 6.975 3.117 12.914 7.435 17.779 12.959 4.844 5.498 8.536 11.945 11.092 19.303 2.562 7.272 3.827 15.142 3.827 23.588 0 8.253-1.269 16.023-3.829 23.288l-.004.012c-2.562 7.163-6.26 13.457-11.105 18.848-4.865 5.415-10.798 9.674-17.76 12.785l-.017.008-.017.007c-7.032 3.034-14.961 4.517-23.734 4.517-8.678 0-16.6-1.485-23.72-4.511l-.025-.01-.024-.011c-6.962-3.111-12.895-7.37-17.76-12.785-4.845-5.391-8.543-11.685-11.105-18.848zm102.571-45.938c2.444 6.934 3.665 14.48 3.665 22.638 0 7.955-1.221 15.399-3.665 22.333-2.443 6.832-5.956 12.798-10.537 17.897-4.581 5.099-10.181 9.127-16.799 12.084-6.617 2.855-14.151 4.283-22.601 4.283-8.349 0-15.883-1.428-22.602-4.283-6.618-2.957-12.217-6.985-16.799-12.084-4.581-5.099-8.094-11.065-10.537-17.897-2.443-6.934-3.665-14.378-3.665-22.333 0-8.158 1.222-15.704 3.665-22.638 2.443-7.037 5.956-13.155 10.537-18.356 4.582-5.2 10.181-9.28 16.799-12.237 6.719-2.957 14.253-4.436 22.602-4.436 8.45 0 15.984 1.479 22.601 4.436 6.618 2.957 12.218 7.036 16.799 12.237 4.581 5.2 8.094 11.32 10.537 18.356zM711.565 2.6v70.784c0 15.312-4.284 27.241-13.346 35.197l-.007.007-.008.006c-8.919 7.721-21.067 11.406-36.08 11.406-15.202 0-27.416-3.678-36.246-11.417l-.007-.006-.007-.006c-8.864-7.867-13.029-19.804-13.029-35.187V2.6h29.703v70.784c0 2.792.24 5.53.719 8.215.435 2.437 1.333 4.57 2.685 6.44 1.309 1.71 3.157 3.217 5.648 4.473 2.442 1.083 5.898 1.714 10.534 1.714 8.276 0 13.105-1.85 15.537-4.654 2.619-3.126 4.201-8.332 4.201-16.188V2.6h29.703zm-31.726 88.834c3.258-3.875 4.887-9.892 4.887-18.05V5.468h23.976v67.916c0 14.787-4.123 25.8-12.37 33.04-8.247 7.139-19.649 10.708-34.208 10.708-14.762 0-26.216-3.569-34.361-10.708-8.043-7.138-12.064-18.151-12.064-33.04V5.468h23.976v67.916c0 2.958.254 5.864.763 8.72.509 2.855 1.579 5.404 3.208 7.647 1.628 2.142 3.868 3.926 6.719 5.354 2.952 1.326 6.872 1.989 11.759 1.989 8.552 0 14.457-1.887 17.715-5.66zm40.96-65.774V5.468h89.338V25.66h-32.681v89.025h-23.977V25.66h-32.68zm29.817 2.868v89.025h29.703V28.528H813V2.6h-95.065v25.928h32.681zM300.85 54.876h26.267c5.498 0 9.621-1.224 12.37-3.671 2.749-2.448 4.123-6.425 4.123-11.932 0-5.302-1.374-9.126-4.123-11.472-2.749-2.447-6.872-3.671-12.37-3.671H300.85v30.746z" fill="#3A1AE7" fill-opacity=".6"/></svg>