<svg width="76" height="76" viewBox="0 0 76 76" fill="none" xmlns="http://www.w3.org/2000/svg">
<path d="M0.999996 38C0.999997 17.5655 17.5655 1 38 1C58.4345 1.00001 75 17.5655 75 38C75 58.4345 58.4345 75 38 75C17.5655 75 0.999994 58.4345 0.999996 38Z" stroke="white" stroke-width="2"/>
<path d="M26 34.0145L26 36.5749C27.4016 36.5266 30.7622 36.0725 32.9921 34.6425C35.222 33.2126 36.4409 31.5668 36.7717 30.9227L36.7717 53L39.2283 53L39.2283 30.9227C39.5591 31.4863 40.7969 33.0193 43.1024 34.6425C45.4079 36.2657 48.6614 36.6071 50 36.5749L50 33.9662C49.4016 33.9823 47.5528 33.7343 44.9449 32.6135C41.685 31.2126 40.1969 27.7343 39.7008 26.43C39.2283 25.1877 39.2756 23.8535 39.2283 23L36.7717 23C36.8032 23.6119 36.5827 25.1449 36.2047 26.5749C35.7323 28.3623 34.126 30.9227 31.6693 32.4686C29.8208 33.6318 27.1496 34.0789 26 34.0145Z" fill="white" stroke="white"/>
</svg>
