<svg width="18" height="18" viewBox="0 0 18 18" fill="none" xmlns="http://www.w3.org/2000/svg">
<g clip-path="url(#clip0)">
<path d="M17.5375 13.2762L15.2999 11.0385C14.6829 10.4216 13.6791 10.4216 13.0622 11.0385L12.0451 12.0556C11.5777 12.523 10.8172 12.5229 10.35 12.0558L5.94142 7.64344C5.47297 7.17498 5.4729 6.41677 5.94142 5.94824C6.10525 5.78441 6.57568 5.31398 6.95853 4.93113C7.57275 4.31695 7.58133 3.31623 6.95793 2.6929L4.72087 0.462868C4.10394 -0.15402 3.10012 -0.15402 2.48485 0.461251C2.02445 0.91765 1.87595 1.06489 1.66951 1.26953C-0.555183 3.49419 -0.555183 7.11399 1.6694 9.33857L8.65468 16.3275C10.8846 18.5574 14.4937 18.5576 16.7238 16.3275L17.5375 15.5138C18.1544 14.8969 18.1544 13.8931 17.5375 13.2762ZM3.22911 1.20874C3.43474 1.00312 3.76929 1.00308 3.97559 1.20931L6.21265 3.43934C6.41878 3.64546 6.41878 3.97906 6.21265 4.18522L5.83968 4.55816L2.85807 1.57655L3.22911 1.20874ZM9.4007 15.5817L2.41539 8.59273C0.694202 6.87155 0.599596 4.16891 2.12443 2.3347L5.09739 5.30765C4.31622 6.19321 4.34877 7.54261 5.19537 8.38921L9.60383 12.8014C9.60387 12.8014 9.60394 12.8015 9.60397 12.8015C10.4497 13.6472 11.799 13.6819 12.6856 12.8997L15.6587 15.8727C13.8303 17.3949 11.1337 17.3148 9.4007 15.5817ZM16.7917 14.7679L16.4187 15.1409L13.4352 12.1573L13.8081 11.7844C14.0137 11.5788 14.3483 11.5787 14.554 11.7844L16.7916 14.0221C16.9973 14.2277 16.9973 14.5623 16.7917 14.7679Z" fill="white"/>
</g>
<defs>
<clipPath id="clip0">
<rect width="18" height="18" fill="white"/>
</clipPath>
</defs>
</svg>
