<svg width="18" height="18" fill="none" xmlns="http://www.w3.org/2000/svg"><path d="M13.128 0H4.872A4.878 4.878 0 000 4.872v8.256A4.878 4.878 0 004.872 18h8.256A4.878 4.878 0 0018 13.128V4.872A4.878 4.878 0 0013.128 0zm3.817 13.128a3.822 3.822 0 01-3.817 3.817H4.872a3.821 3.821 0 01-3.817-3.817V4.872a3.821 3.821 0 013.817-3.817h8.256a3.821 3.821 0 013.817 3.817v8.256z" fill="#fff"/><path d="M9 4C6.243 4 4 6.243 4 9s2.243 5 5 5 5-2.243 5-5-2.243-5-5-5zm0 8.928A3.933 3.933 0 015.072 9 3.933 3.933 0 019 5.072 3.933 3.933 0 0112.928 9 3.932 3.932 0 019 12.928zM14 3a1.001 1.001 0 000 2 1.001 1.001 0 000-2zm0 1.274a.275.275 0 110-.55.275.275 0 010 .55z" fill="#fff"/></svg>