<svg width="47" height="64" fill="none" xmlns="http://www.w3.org/2000/svg"><path d="M20.706 49.253s-.985 5.85 0 8.059c.985 2.192 3.553 3.046 3.553 3.046s.372 2.433 1.841 2.804c1.47.37 18.946-4.142 19.931-5.98.985-1.837-2.326-15.858-2.326-15.858l-23 7.93zM2.245 13.99c-.63 4.609 3.053 13.312 12.34 13.795 9.287.484 24.323-4.142 26.294-9.767C42.833 12.41 39.652.322 29.638.822S3.586 4.109 2.245 13.989z" stroke="#fff" stroke-miterlimit="10"/><path d="M20.706 49.253s-4.894-3.416-7.704-4.142c-2.81-.725-10.644-1.58-11.985-11.169-1.34-9.59 4.2-10.846 4.2-10.846m38.472 18.228s1.841-.645 1.841-3.417c0-1.708-.242-8.397-1.26-12.877-.823-3.627-3.44-7.495-3.44-7.495M23.064 59.793l13.631-4.77c.63-.21.937-.919.663-1.531l-1.551-3.385a1.128 1.128 0 00-1.324-.612L20.69 54.088" stroke="#fff" stroke-miterlimit="10"/></svg>