<svg width="88" height="42" fill="none" xmlns="http://www.w3.org/2000/svg"><g clip-path="url(#clip0)" stroke="#fff" stroke-miterlimit="10" stroke-linecap="round" stroke-linejoin="round"><path d="M65.25 18.22l4.95 3.84c.79.61 1.76.95 2.77.95 3.86-.03 13.65-1.07 13.65 5.48 0 6.28-4.48 11.95-14.73 12.15-10.25.2-49.13.24-53.69-1.45-4.56-1.69-5.68-4.52-5.05-7.32.62-2.79 1.76-5.31.77-15.18-.62-6.21 2.96-9.29 4.83-8.89 3.11.67 4.24 8.29 9.74 8.14 5.4-.14 3.76-6.36 10.69-8.7 3.91-1.32 6.15-.12 6.15-.12S42.16.52 36.98.5c-5.18-.02-5.23 4.58-5.23 4.58"/><path d="M52.08 13.84s2.99-2.61 1.87-5.11c-1.19-2.64-4.32-2.06-4.32-2.06m9.79 11.65s2.99-2.61 1.87-5.11c-1.19-2.64-4.32-2.06-4.32-2.06m-22.33-.06s3.44.56 2.85 6c-.46 4.25-6.59 1.22-6.59 5.03 0 4.5 12.1 2.2 14.52 4.55 1.67 1.63.86 3.2.86 3.2"/><path d="M13.89 28.83s20.88-2.49 34.65 1.66 25.92 4.69 37.77.78m.31-2.78s-15.74 1.39-18.23-.74c-2.91-2.49-.2-6.85-.2-6.85M7.61 22.69H.5m8.94 2.23H4.77m.97 2.17H1.06"/></g><defs><clipPath id="clip0"><path fill="#fff" transform="matrix(-1 0 0 1 87.12 0)" d="M0 0h87.12v41.23H0z"/></clipPath></defs></svg>