<svg width="76" height="76" fill="none" xmlns="http://www.w3.org/2000/svg"><path d="M1 38C1 17.566 17.566 1 38 1s37 16.566 37 37-16.566 37-37 37S1 58.434 1 38z" stroke="#fff" stroke-width="2"/><path d="M26 34.014v2.56c1.402-.047 4.762-.502 6.992-1.931 2.23-1.43 3.449-3.076 3.78-3.72V53h2.456V30.923c.331.563 1.569 2.096 3.874 3.72 2.306 1.623 5.56 1.964 6.898 1.932v-2.609c-.598.016-2.447-.232-5.055-1.352-3.26-1.401-4.748-4.88-5.244-6.184-.473-1.242-.425-2.576-.473-3.43h-2.456c.031.612-.19 2.145-.567 3.575-.473 1.787-2.079 4.348-4.536 5.894-1.848 1.163-4.52 1.61-5.669 1.545z" fill="#fff" stroke="#fff"/></svg>