<svg width="18" height="18" fill="none" xmlns="http://www.w3.org/2000/svg"><g clip-path="url(#clip0)"><path d="M17.538 13.276L15.3 11.04a1.584 1.584 0 00-2.238 0l-1.017 1.017a1.2 1.2 0 01-1.695 0L5.941 7.643a1.198 1.198 0 010-1.695L6.96 4.931a1.581 1.581 0 00-.001-2.238L4.72.463A1.584 1.584 0 002.485.46l-.815.809a5.712 5.712 0 000 8.069l6.985 6.989a5.703 5.703 0 008.069 0l.814-.814a1.584 1.584 0 000-2.238zM3.229 1.21a.528.528 0 01.747 0l2.237 2.23a.527.527 0 010 .746l-.373.373-2.982-2.981.371-.368zm6.172 14.373l-6.986-6.99a4.637 4.637 0 01-.29-6.257l2.972 2.973a2.251 2.251 0 00.098 3.081l4.409 4.412c.846.846 2.195.88 3.082.099l2.973 2.973a4.628 4.628 0 01-6.258-.291zm7.39-.814l-.372.373-2.984-2.984.373-.373a.528.528 0 01.746 0l2.238 2.238a.528.528 0 010 .746z" fill="#fff"/></g><defs><clipPath id="clip0"><path fill="#fff" d="M0 0h18v18H0z"/></clipPath></defs></svg>